<svg width="24" height="24" viewBox="0 0 24 24" fill="none" xmlns="http://www.w3.org/2000/svg">
<path d="M7.00024 9.99999H9.00024C9.26546 9.99999 9.51981 9.89464 9.70735 9.7071C9.89489 9.51956 10.0002 9.26521 10.0002 8.99999C10.0002 8.73478 9.89489 8.48042 9.70735 8.29289C9.51981 8.10535 9.26546 7.99999 9.00024 7.99999H7.00024C6.73503 7.99999 6.48067 8.10535 6.29314 8.29289C6.1056 8.48042 6.00024 8.73478 6.00024 8.99999C6.00024 9.26521 6.1056 9.51956 6.29314 9.7071C6.48067 9.89464 6.73503 9.99999 7.00024 9.99999ZM21.0002 3.99999H13.0002V2.99999C13.0002 2.73478 12.8949 2.48042 12.7074 2.29289C12.5198 2.10535 12.2655 1.99999 12.0002 1.99999C11.735 1.99999 11.4807 2.10535 11.2931 2.29289C11.1056 2.48042 11.0002 2.73478 11.0002 2.99999V3.99999H3.00024C2.73503 3.99999 2.48067 4.10535 2.29314 4.29289C2.1056 4.48042 2.00024 4.73478 2.00024 4.99999V15C2.00024 15.7956 2.31631 16.5587 2.87892 17.1213C3.44153 17.6839 4.20459 18 5.00024 18H9.59024L7.29024 20.29C7.19652 20.383 7.12212 20.4936 7.07135 20.6154C7.02058 20.7373 6.99445 20.868 6.99445 21C6.99445 21.132 7.02058 21.2627 7.07135 21.3846C7.12212 21.5064 7.19652 21.617 7.29024 21.71C7.38321 21.8037 7.49381 21.8781 7.61567 21.9289C7.73753 21.9797 7.86823 22.0058 8.00024 22.0058C8.13226 22.0058 8.26296 21.9797 8.38482 21.9289C8.50668 21.8781 8.61728 21.8037 8.71024 21.71L11.0002 19.41V21C11.0002 21.2652 11.1056 21.5196 11.2931 21.7071C11.4807 21.8946 11.735 22 12.0002 22C12.2655 22 12.5198 21.8946 12.7074 21.7071C12.8949 21.5196 13.0002 21.2652 13.0002 21V19.41L15.2902 21.71C15.3832 21.8037 15.4938 21.8781 15.6157 21.9289C15.7375 21.9797 15.8682 22.0058 16.0002 22.0058C16.1323 22.0058 16.263 21.9797 16.3848 21.9289C16.5067 21.8781 16.6173 21.8037 16.7102 21.71C16.804 21.617 16.8784 21.5064 16.9291 21.3846C16.9799 21.2627 17.006 21.132 17.006 21C17.006 20.868 16.9799 20.7373 16.9291 20.6154C16.8784 20.4936 16.804 20.383 16.7102 20.29L14.4102 18H19.0002C19.7959 18 20.559 17.6839 21.1216 17.1213C21.6842 16.5587 22.0002 15.7956 22.0002 15V4.99999C22.0002 4.73478 21.8949 4.48042 21.7074 4.29289C21.5198 4.10535 21.2655 3.99999 21.0002 3.99999ZM20.0002 15C20.0002 15.2652 19.8949 15.5196 19.7074 15.7071C19.5198 15.8946 19.2655 16 19.0002 16H5.00024C4.73503 16 4.48067 15.8946 4.29314 15.7071C4.1056 15.5196 4.00024 15.2652 4.00024 15V5.99999H20.0002V15ZM7.00024 14H13.0002C13.2655 14 13.5198 13.8946 13.7074 13.7071C13.8949 13.5196 14.0002 13.2652 14.0002 13C14.0002 12.7348 13.8949 12.4804 13.7074 12.2929C13.5198 12.1053 13.2655 12 13.0002 12H7.00024C6.73503 12 6.48067 12.1053 6.29314 12.2929C6.1056 12.4804 6.00024 12.7348 6.00024 13C6.00024 13.2652 6.1056 13.5196 6.29314 13.7071C6.48067 13.8946 6.73503 14 7.00024 14Z" fill="#C0C1C3"/>
</svg>