<svg width="24" height="24" viewBox="0 0 24 24" fill="none" xmlns="http://www.w3.org/2000/svg">
<path d="M21.1622 9.34473H14.8379L13.7839 15.5286H9.34983L4.17798 21.6565C4.34347 21.7976 4.55387 21.8757 4.77176 21.8769H18.5411C18.7018 21.8764 18.8571 21.8193 18.9793 21.7155C19.1016 21.6117 19.1829 21.4681 19.2087 21.3102L21.1622 9.34473Z" fill="url(#paint0_linear)"/>
<path d="M1.67637 3C1.57825 3.00025 1.48136 3.02169 1.39237 3.06285C1.30339 3.10401 1.22444 3.1639 1.16097 3.23839C1.09751 3.31287 1.05103 3.40019 1.02476 3.4943C0.998488 3.58841 0.993045 3.68707 1.0088 3.78348L3.86878 21.1144C3.90353 21.3252 4.01175 21.5172 4.17446 21.6565C4.33995 21.7976 4.55035 21.8757 4.76824 21.8769L10.1087 15.5286H9.34983L8.17632 9.34476H21.1762L22.0862 3.78697C22.102 3.69057 22.0965 3.5919 22.0703 3.49779C22.044 3.40368 21.9975 3.31637 21.934 3.24188C21.8706 3.1674 21.7916 3.10751 21.7026 3.06635C21.6137 3.02519 21.5168 3.00375 21.4187 3.0035L1.67637 3Z" fill="white"/>
<defs>
<linearGradient id="paint0_linear" x1="22.0019" y1="12.0904" x2="12.115" y2="18.8159" gradientUnits="userSpaceOnUse">
<stop offset="0.07" stop-color="white" stop-opacity="0.4"/>
<stop offset="1" stop-color="white"/>
</linearGradient>
</defs>
</svg>
