<svg width="28" height="28" viewBox="0 0 28 28" fill="none" xmlns="http://www.w3.org/2000/svg">
<path d="M22.1624 10.7405H16.4662L15.5168 16.3355H11.5232L6.86495 21.8798C7.01401 22.0074 7.20351 22.0781 7.39976 22.0791H19.8016C19.9463 22.0788 20.0862 22.027 20.1963 21.9331C20.3065 21.8392 20.3797 21.7093 20.4029 21.5665L22.1624 10.7405Z" fill="url(#paint0_linear)"/>
<path d="M4.60919 5C4.52082 5.00023 4.43355 5.01963 4.35341 5.05686C4.27326 5.0941 4.20215 5.14829 4.14499 5.21568C4.08782 5.28308 4.04596 5.36207 4.0223 5.44722C3.99864 5.53237 3.99374 5.62163 4.00793 5.70886L6.58387 21.3892C6.61517 21.58 6.71264 21.7536 6.85919 21.8797C7.00825 22.0074 7.19775 22.078 7.394 22.0791L12.2041 16.3354H11.5206L10.4636 10.7405H22.1725L22.9921 5.71202C23.0063 5.6248 23.0014 5.53553 22.9777 5.45038C22.954 5.36524 22.9122 5.28624 22.855 5.21885C22.7978 5.15145 22.7267 5.09727 22.6466 5.06003C22.5665 5.02279 22.4792 5.00339 22.3908 5.00316L4.60919 5Z" fill="white"/>
<defs>
<linearGradient id="paint0_linear" x1="22.9187" y1="13.2247" x2="13.9884" y2="19.2722" gradientUnits="userSpaceOnUse">
<stop offset="0.07" stop-color="white" stop-opacity="0.4"/>
<stop offset="1" stop-color="white"/>
</linearGradient>
</defs>
</svg>
