<svg width="24" height="24" viewBox="0 0 24 24" fill="none" xmlns="http://www.w3.org/2000/svg">
<path d="M2 21.0909C2 21.332 2.0878 21.5632 2.24408 21.7337C2.40036 21.9042 2.61232 22 2.83333 22C3.05435 22 3.26631 21.9042 3.42259 21.7337C3.57887 21.5632 3.66667 21.332 3.66667 21.0909C3.66336 20.7341 3.72494 20.38 3.84784 20.0493C3.97074 19.7186 4.15252 19.4177 4.38268 19.1641C4.61283 18.9105 4.88679 18.7091 5.18871 18.5717C5.49064 18.4343 5.81453 18.3636 6.14167 18.3636H6.725C6.89715 18.7466 7.10076 19.1117 7.33333 19.4545C7.87669 20.2449 8.58126 20.8864 9.39125 21.3282C10.2012 21.77 11.0944 22 12 22C12.9056 22 13.7988 21.77 14.6087 21.3282C15.4187 20.8864 16.1233 20.2449 16.6667 19.4545C16.8978 19.1106 17.1013 18.7456 17.275 18.3636H17.8583C18.517 18.3708 19.1465 18.6613 19.61 19.172C20.0734 19.6827 20.3334 20.3723 20.3333 21.0909C20.3333 21.332 20.4211 21.5632 20.5774 21.7337C20.7337 21.9042 20.9457 22 21.1667 22C21.3877 22 21.5996 21.9042 21.7559 21.7337C21.9122 21.5632 22 21.332 22 21.0909C22 19.8901 21.5645 18.7381 20.7885 17.8864C20.0125 17.0347 18.9591 16.5527 17.8583 16.5455C17.9155 16.276 17.9558 16.0027 17.9792 15.7273L18.0625 14.7273H21.1667C21.3877 14.7273 21.5996 14.6315 21.7559 14.461C21.9122 14.2905 22 14.0593 22 13.8182C22 13.5771 21.9122 13.3458 21.7559 13.1754C21.5996 13.0049 21.3877 12.9091 21.1667 12.9091H18.2167L18.3333 11.5045C18.3414 11.3532 18.3414 11.2014 18.3333 11.05C19.3432 10.9168 20.2735 10.3853 20.9489 9.55552C21.6243 8.72577 21.9982 7.65514 22 6.54545C22 6.30435 21.9122 6.07312 21.7559 5.90263C21.5996 5.73214 21.3877 5.63636 21.1667 5.63636C20.9457 5.63636 20.7337 5.73214 20.5774 5.90263C20.4211 6.07312 20.3333 6.30435 20.3333 6.54545C20.3415 7.2458 20.0995 7.92213 19.6585 8.43119C19.2176 8.94026 18.6123 9.24207 17.9708 9.27273C17.7981 8.82155 17.5573 8.40517 17.2583 8.04091C16.7384 7.42373 16.0722 6.97539 15.3333 6.74545V5.63636C15.3333 4.67194 14.9821 3.74702 14.357 3.06507C13.7319 2.38312 12.8841 2 12 2C11.1159 2 10.2681 2.38312 9.64298 3.06507C9.01786 3.74702 8.66667 4.67194 8.66667 5.63636V6.74545C7.92919 6.97156 7.26312 7.41508 6.74167 8.02727C6.44152 8.39565 6.20063 8.81674 6.02917 9.27273C5.3881 9.24095 4.78342 8.93879 4.34265 8.42997C3.90189 7.92116 3.65952 7.24547 3.66667 6.54545C3.66667 6.30435 3.57887 6.07312 3.42259 5.90263C3.26631 5.73214 3.05435 5.63636 2.83333 5.63636C2.61232 5.63636 2.40036 5.73214 2.24408 5.90263C2.0878 6.07312 2 6.30435 2 6.54545C2.00295 7.6525 2.37912 8.71968 3.05683 9.54368C3.73455 10.3677 4.66646 10.8909 5.675 11.0136C5.66696 11.165 5.66696 11.3168 5.675 11.4682L5.78333 12.9091H2.83333C2.61232 12.9091 2.40036 13.0049 2.24408 13.1754C2.0878 13.3458 2 13.5771 2 13.8182C2 14.0593 2.0878 14.2905 2.24408 14.461C2.40036 14.6315 2.61232 14.7273 2.83333 14.7273H5.9375L6.02083 15.7273C6.04416 16.0027 6.08453 16.276 6.14167 16.5455C5.04093 16.5527 3.98754 17.0347 3.21154 17.8864C2.43553 18.7381 1.99998 19.8901 2 21.0909ZM16.6708 11.3364L16.3208 15.5591C16.2375 16.576 15.8955 17.5473 15.3333 18.3636C14.7204 19.2503 13.8311 19.8615 12.8333 20.0818V8.36364H14.1833C14.5315 8.36209 14.876 8.43989 15.195 8.59203C15.514 8.74418 15.8003 8.96732 16.0357 9.24717C16.271 9.52701 16.4502 9.8574 16.5617 10.2172C16.6732 10.5769 16.7147 10.9581 16.6833 11.3364H16.6708ZM12 3.81818C12.442 3.81818 12.8659 4.00974 13.1785 4.35072C13.4911 4.69169 13.6667 5.15415 13.6667 5.63636V6.54545H10.3333V5.63636C10.3333 5.15415 10.5089 4.69169 10.8215 4.35072C11.134 4.00974 11.558 3.81818 12 3.81818ZM7.97083 9.27273C8.20201 8.98733 8.48608 8.75871 8.80428 8.60199C9.12248 8.44528 9.46754 8.36404 9.81667 8.36364H11.1667V20.0818C10.1689 19.8615 9.27962 19.2503 8.66667 18.3636C8.10524 17.5486 7.76326 16.579 7.67917 15.5636L7.32917 11.3364C7.29804 10.9626 7.33906 10.5858 7.44958 10.2304C7.5601 9.87494 7.73767 9.54872 7.97083 9.27273Z" fill="#52575C"/>
</svg>
