<svg width="24" height="27" viewBox="0 0 24 24" fill="none" xmlns="http://www.w3.org/2000/svg">
<path d="M10.9341 0C10.7926 0 10.6625 0.00422386 10.529 0.0072409C10.4739 0.00603408 10.4211 0 10.366 0C4.6849 0 0.70816 2.76482 0.70816 5.43067C0.70816 8.09653 4.3287 7.8443 8.09353 7.8443C10.6171 7.8443 12.4384 7.8443 13.7553 7.79241L13.7746 7.8443L17.1832 16.8954H18.3194C18.3194 16.8954 18.5143 15.052 18.8875 12.6716C19.4556 9.05112 19.1903 0 10.9341 0Z" fill="#DD2E44"/>
<path d="M17.7045 18.2015C18.9723 18.2015 20 17.1929 20 15.9488C20 14.7047 18.9723 13.6961 17.7045 13.6961C16.4367 13.6961 15.409 14.7047 15.409 15.9488C15.409 17.1929 16.4367 18.2015 17.7045 18.2015Z" fill="#F1F2F2"/>
<path fill-rule="evenodd" clip-rule="evenodd" d="M4.22325 7.78935H10.9717C11.5417 7.78935 12.0166 8.25034 12.0166 8.80283C12.0166 9.35539 11.5417 9.81636 10.9717 9.81636H4.22325V7.78935ZM4.22325 15.8045H12.4922C13.0622 15.8045 13.5378 16.2649 13.5378 16.8181C13.5378 17.3706 13.0622 17.8309 12.4922 17.8309H4.22325V15.8045ZM1.53845 21.9771V5.82353H8.1911C10.2587 5.82353 10.9717 5.82353 13.4426 5.00253C14.868 5.87808 15.9608 7.02955 16.6738 8.43406C17.3869 9.83924 17.7667 11.3131 17.7667 12.8334C17.7667 14.3765 17.4105 15.8503 16.6738 17.2326C15.9608 18.6371 14.868 19.7657 13.4426 20.6641C12.0166 21.539 10.2587 22 8.1911 22H2.77428C2.41742 21.9771 1.56206 21.9771 1.53845 21.9771ZM4.22325 11.7969H8.90411C9.47482 11.7969 9.94972 12.2573 9.94972 12.8105C9.94972 13.363 9.47482 13.8239 8.90411 13.8239H4.22325V11.7969Z" fill="white"/>
<path d="M16.7033 6.81569C16.7033 7.57767 16.1872 8.19608 15.5514 8.19608H1.15195C0.516074 8.19608 0 7.57767 0 6.81569V6.12549C0 5.36352 0.516074 4.7451 1.15195 4.7451H15.5514C16.1872 4.7451 16.7033 5.36352 16.7033 6.12549V6.81569Z" fill="#EEEEEE"/>
</svg>
