<svg width="24" height="24" viewBox="0 0 24 24" fill="none" xmlns="http://www.w3.org/2000/svg">
<g clip-path="url(#clip0)">
<path fill-rule="evenodd" clip-rule="evenodd" d="M9.94646 14H5.38496C4.98794 14 4.66571 13.6324 4.66571 13.1795V5.4872C4.66571 5.03346 4.98794 4.66669 5.38496 4.66669H9.94646C10.3435 4.66669 10.6657 5.03346 10.6657 5.4872V13.1795C10.6657 13.6324 10.3435 14 9.94646 14Z" stroke="#C0C1C3" stroke-width="1.5"/>
<path fill-rule="evenodd" clip-rule="evenodd" d="M18.5736 7.33335H14.0911C13.6715 7.33335 13.3323 7.03469 13.3323 6.66669V5.33335C13.3323 4.96469 13.6715 4.66669 14.0911 4.66669H18.5736C18.9924 4.66669 19.3323 4.96469 19.3323 5.33335V6.66669C19.3323 7.03469 18.9924 7.33335 18.5736 7.33335Z" stroke="#C0C1C3" stroke-width="1.5"/>
<path fill-rule="evenodd" clip-rule="evenodd" d="M14.0516 9.33331H18.6131C19.0101 9.33331 19.3323 9.70008 19.3323 10.1538V17.8461C19.3323 18.2991 19.0101 18.6666 18.6131 18.6666H14.0516C13.6546 18.6666 13.3323 18.2991 13.3323 17.8461V10.1538C13.3323 9.70008 13.6546 9.33331 14.0516 9.33331Z" stroke="#C0C1C3" stroke-width="1.5"/>
<path fill-rule="evenodd" clip-rule="evenodd" d="M5.42444 16H9.90699C10.3258 16 10.6657 16.298 10.6657 16.6667V18C10.6657 18.368 10.3258 18.6667 9.90699 18.6667H5.42444C5.00486 18.6667 4.66571 18.368 4.66571 18V16.6667C4.66571 16.298 5.00486 16 5.42444 16Z" stroke="#C0C1C3" stroke-width="1.5"/>
</g>
<defs>
<clipPath id="clip0">
<rect width="16" height="16" fill="white" transform="translate(4 4)"/>
</clipPath>
</defs>
</svg>
