<svg width="16" height="16" viewBox="0 0 16 16" fill="none" xmlns="http://www.w3.org/2000/svg">
<mask id="path-1-inside-1" fill="white">
<path d="M5.6452 5.59679L5.6437 5.59801L5.64227 5.5994L5.6452 5.59679ZM12.2813 5.47244C12.2349 5.42773 12.1834 5.38862 12.1279 5.3559C12.0494 5.30967 11.9622 5.28005 11.8718 5.26886C11.7813 5.25767 11.6895 5.26515 11.6021 5.29084C11.5147 5.31653 11.4334 5.35988 11.3634 5.41821C11.2934 5.47655 11.2361 5.54863 11.195 5.62999C10.9654 6.08245 10.6486 6.48512 10.263 6.81488C10.322 6.48262 10.3517 6.14583 10.3519 5.80837C10.3531 4.78177 10.0823 3.77318 9.56697 2.88528C9.05166 1.99738 8.31027 1.26189 7.41827 0.753703C7.32001 0.698001 7.20921 0.668176 7.09626 0.667027C6.98332 0.665877 6.87193 0.693441 6.77256 0.747131C6.67318 0.800821 6.58908 0.878878 6.52813 0.973977C6.46719 1.06908 6.4314 1.1781 6.42413 1.29082C6.38683 1.92293 6.22158 2.54089 5.93839 3.10726C5.65521 3.67363 5.25999 4.17661 4.77669 4.58572L4.62304 4.71072C4.11765 5.05078 3.6703 5.46999 3.29817 5.95226C2.71972 6.68099 2.319 7.53448 2.12781 8.44504C1.93662 9.3556 1.96021 10.2982 2.1967 11.198C2.4332 12.0979 2.8761 12.9303 3.49029 13.6292C4.10447 14.3281 4.87304 14.8742 5.73505 15.2244C5.83626 15.2658 5.94609 15.2816 6.05486 15.2704C6.16363 15.2593 6.26799 15.2216 6.35873 15.1606C6.44948 15.0996 6.52382 15.0172 6.5752 14.9207C6.62658 14.8242 6.65342 14.7165 6.65335 14.6072C6.65288 14.5365 6.64168 14.4662 6.62015 14.3989C6.471 13.8382 6.42805 13.2546 6.49352 12.6782C7.12435 13.868 8.13695 14.8111 9.36852 15.3559C9.51885 15.4232 9.68879 15.4322 9.84541 15.3813C10.8185 15.0672 11.695 14.5096 12.3918 13.7613C13.0887 13.0131 13.5826 12.0991 13.8267 11.1062C14.0707 10.1133 14.0569 9.07443 13.7864 8.08839C13.5159 7.10234 12.9978 6.20184 12.2813 5.47244ZM9.67808 14.0265C9.09696 13.732 8.58433 13.3184 8.17352 12.8128C7.76271 12.3071 7.46292 11.7207 7.29364 11.0916C7.24194 10.8798 7.20195 10.6652 7.17385 10.449C7.15481 10.3113 7.09321 10.183 6.99766 10.082C6.90212 9.98105 6.77741 9.91247 6.64097 9.88585C6.59894 9.87756 6.5562 9.87342 6.51335 9.87348C6.39618 9.87344 6.28107 9.9043 6.17963 9.96294C6.07818 10.0216 5.994 10.1059 5.93555 10.2075C5.3824 11.1616 5.10422 12.2502 5.13184 13.3527C4.64533 12.9744 4.23874 12.5033 3.93563 11.9668C3.63251 11.4302 3.4389 10.8389 3.36602 10.2269C3.29314 9.615 3.34244 8.99469 3.51106 8.40195C3.67967 7.80921 3.96426 7.25583 4.34831 6.77389C4.63992 6.39511 4.99171 6.06675 5.38965 5.80189C5.40688 5.79077 5.4234 5.77859 5.43913 5.76543C5.43913 5.76543 5.63692 5.60178 5.64368 5.59803C6.59348 4.79467 7.26902 3.71504 7.57617 2.50957C8.30255 3.18106 8.7869 4.07359 8.95401 5.04858C9.12112 6.02356 8.96164 7.02644 8.50033 7.9015C8.43938 8.01826 8.41438 8.15046 8.42848 8.28142C8.44257 8.41238 8.49514 8.53623 8.57954 8.63735C8.66395 8.73847 8.77641 8.81233 8.90274 8.84961C9.02907 8.88689 9.16361 8.88592 9.28939 8.84683C10.3106 8.52672 11.2092 7.90144 11.8643 7.05516C12.258 7.63669 12.5154 8.29957 12.6173 8.9944C12.7192 9.68924 12.663 10.3981 12.4528 11.0682C12.2427 11.7383 11.884 12.3523 11.4036 12.8645C10.9232 13.3767 10.3333 13.7739 9.67806 14.0265L9.67808 14.0265Z"/>
</mask>
<path d="M5.6452 5.59679L5.6437 5.59801L5.64227 5.5994L5.6452 5.59679ZM12.2813 5.47244C12.2349 5.42773 12.1834 5.38862 12.1279 5.3559C12.0494 5.30967 11.9622 5.28005 11.8718 5.26886C11.7813 5.25767 11.6895 5.26515 11.6021 5.29084C11.5147 5.31653 11.4334 5.35988 11.3634 5.41821C11.2934 5.47655 11.2361 5.54863 11.195 5.62999C10.9654 6.08245 10.6486 6.48512 10.263 6.81488C10.322 6.48262 10.3517 6.14583 10.3519 5.80837C10.3531 4.78177 10.0823 3.77318 9.56697 2.88528C9.05166 1.99738 8.31027 1.26189 7.41827 0.753703C7.32001 0.698001 7.20921 0.668176 7.09626 0.667027C6.98332 0.665877 6.87193 0.693441 6.77256 0.747131C6.67318 0.800821 6.58908 0.878878 6.52813 0.973977C6.46719 1.06908 6.4314 1.1781 6.42413 1.29082C6.38683 1.92293 6.22158 2.54089 5.93839 3.10726C5.65521 3.67363 5.25999 4.17661 4.77669 4.58572L4.62304 4.71072C4.11765 5.05078 3.6703 5.46999 3.29817 5.95226C2.71972 6.68099 2.319 7.53448 2.12781 8.44504C1.93662 9.3556 1.96021 10.2982 2.1967 11.198C2.4332 12.0979 2.8761 12.9303 3.49029 13.6292C4.10447 14.3281 4.87304 14.8742 5.73505 15.2244C5.83626 15.2658 5.94609 15.2816 6.05486 15.2704C6.16363 15.2593 6.26799 15.2216 6.35873 15.1606C6.44948 15.0996 6.52382 15.0172 6.5752 14.9207C6.62658 14.8242 6.65342 14.7165 6.65335 14.6072C6.65288 14.5365 6.64168 14.4662 6.62015 14.3989C6.471 13.8382 6.42805 13.2546 6.49352 12.6782C7.12435 13.868 8.13695 14.8111 9.36852 15.3559C9.51885 15.4232 9.68879 15.4322 9.84541 15.3813C10.8185 15.0672 11.695 14.5096 12.3918 13.7613C13.0887 13.0131 13.5826 12.0991 13.8267 11.1062C14.0707 10.1133 14.0569 9.07443 13.7864 8.08839C13.5159 7.10234 12.9978 6.20184 12.2813 5.47244ZM9.67808 14.0265C9.09696 13.732 8.58433 13.3184 8.17352 12.8128C7.76271 12.3071 7.46292 11.7207 7.29364 11.0916C7.24194 10.8798 7.20195 10.6652 7.17385 10.449C7.15481 10.3113 7.09321 10.183 6.99766 10.082C6.90212 9.98105 6.77741 9.91247 6.64097 9.88585C6.59894 9.87756 6.5562 9.87342 6.51335 9.87348C6.39618 9.87344 6.28107 9.9043 6.17963 9.96294C6.07818 10.0216 5.994 10.1059 5.93555 10.2075C5.3824 11.1616 5.10422 12.2502 5.13184 13.3527C4.64533 12.9744 4.23874 12.5033 3.93563 11.9668C3.63251 11.4302 3.4389 10.8389 3.36602 10.2269C3.29314 9.615 3.34244 8.99469 3.51106 8.40195C3.67967 7.80921 3.96426 7.25583 4.34831 6.77389C4.63992 6.39511 4.99171 6.06675 5.38965 5.80189C5.40688 5.79077 5.4234 5.77859 5.43913 5.76543C5.43913 5.76543 5.63692 5.60178 5.64368 5.59803C6.59348 4.79467 7.26902 3.71504 7.57617 2.50957C8.30255 3.18106 8.7869 4.07359 8.95401 5.04858C9.12112 6.02356 8.96164 7.02644 8.50033 7.9015C8.43938 8.01826 8.41438 8.15046 8.42848 8.28142C8.44257 8.41238 8.49514 8.53623 8.57954 8.63735C8.66395 8.73847 8.77641 8.81233 8.90274 8.84961C9.02907 8.88689 9.16361 8.88592 9.28939 8.84683C10.3106 8.52672 11.2092 7.90144 11.8643 7.05516C12.258 7.63669 12.5154 8.29957 12.6173 8.9944C12.7192 9.68924 12.663 10.3981 12.4528 11.0682C12.2427 11.7383 11.884 12.3523 11.4036 12.8645C10.9232 13.3767 10.3333 13.7739 9.67806 14.0265L9.67808 14.0265Z" fill="black"/>
<path d="M5.6452 5.59679L6.64289 6.71688L4.69862 4.43318L5.6452 5.59679ZM5.6437 5.59801L4.69712 4.4344L4.64574 4.47619L4.59825 4.52236L5.6437 5.59801ZM5.64227 5.5994L4.59682 4.52374L6.63997 6.71949L5.64227 5.5994ZM12.1279 5.3559L12.8899 4.06386L12.8888 4.06317L12.1279 5.3559ZM11.195 5.62999L12.5326 6.30888L12.5342 6.30576L11.195 5.62999ZM10.263 6.81488L8.78608 6.55277L8.05403 10.6775L11.2379 7.9549L10.263 6.81488ZM10.3519 5.80837L8.85187 5.80656L8.85187 5.80765L10.3519 5.80837ZM7.41827 0.753703L8.16081 -0.549619L8.158 -0.551215L7.41827 0.753703ZM6.42413 1.29082L4.92722 1.19429L4.92674 1.20244L6.42413 1.29082ZM4.77669 4.58572L5.72332 5.74929L5.73466 5.74006L5.74583 5.73061L4.77669 4.58572ZM4.62304 4.71072L5.46042 5.95523L5.51688 5.91724L5.56967 5.87429L4.62304 4.71072ZM3.29817 5.95226L4.47303 6.88484L4.47944 6.87677L4.48573 6.86861L3.29817 5.95226ZM5.73505 15.2244L6.30244 13.8358L6.29957 13.8347L5.73505 15.2244ZM6.65335 14.6072L8.15338 14.6063L8.15332 14.5971L6.65335 14.6072ZM6.62015 14.3989L5.17057 14.7845L5.18008 14.8203L5.19134 14.8555L6.62015 14.3989ZM6.49352 12.6782L7.81877 11.9755L5.54973 7.69586L5.0031 12.5089L6.49352 12.6782ZM9.36852 15.3559L9.98108 13.9867L9.97534 13.9841L9.36852 15.3559ZM9.84541 15.3813L9.38467 13.9538L9.38173 13.9548L9.84541 15.3813ZM9.67808 14.0265L10.7212 15.1044L12.2341 13.6403L10.3562 12.6885L9.67808 14.0265ZM7.29364 11.0916L5.83641 11.4472L5.84058 11.4643L5.84516 11.4813L7.29364 11.0916ZM7.17385 10.449L8.66139 10.2557L8.65971 10.2435L7.17385 10.449ZM6.64097 9.88585L6.35079 11.3575L6.35378 11.3581L6.64097 9.88585ZM6.51335 9.87348L6.51282 11.3735L6.51558 11.3735L6.51335 9.87348ZM5.93555 10.2075L7.23323 10.9598L7.23565 10.9556L5.93555 10.2075ZM5.13184 13.3527L4.21113 14.5368L6.71067 16.4802L6.63137 13.3151L5.13184 13.3527ZM4.34831 6.77389L5.52139 7.70871L5.52922 7.69889L5.53688 7.68893L4.34831 6.77389ZM5.38965 5.80189L4.57625 4.54158L4.56735 4.54732L4.55854 4.55319L5.38965 5.80189ZM5.43913 5.76543L4.48289 4.60971L4.47631 4.61522L5.43913 5.76543ZM5.64368 5.59803L6.37083 6.91L6.49979 6.83852L6.61237 6.7433L5.64368 5.59803ZM7.57617 2.50957L8.5944 1.40811L6.74461 -0.301894L6.12262 2.1392L7.57617 2.50957ZM8.50033 7.9015L7.17341 7.20198L7.17057 7.20742L8.50033 7.9015ZM8.57954 8.63735L7.42798 9.59855L8.57954 8.63735ZM9.28939 8.84683L9.73459 10.2792L9.73806 10.2782L9.28939 8.84683ZM11.8643 7.05516L13.1064 6.21424L11.9455 4.4996L10.6781 6.137L11.8643 7.05516ZM9.67806 14.0265L8.63493 12.9486L10.2175 15.4261L9.67806 14.0265ZM4.69862 4.43318L4.69712 4.4344L6.59028 6.76162L6.59178 6.7604L4.69862 4.43318ZM4.59825 4.52236L4.59682 4.52374L6.68773 6.67505L6.68915 6.67366L4.59825 4.52236ZM6.63997 6.71949L6.64289 6.71688L4.64751 4.4767L4.64458 4.4793L6.63997 6.71949ZM13.3222 4.39238C13.1914 4.26636 13.0463 4.1561 12.8899 4.06386L11.3659 6.64793C11.3205 6.62114 11.2784 6.58911 11.2404 6.5525L13.3222 4.39238ZM12.8888 4.06317C12.6334 3.91289 12.35 3.81659 12.0559 3.78021L11.6876 6.75751C11.5744 6.74351 11.4654 6.70645 11.3671 6.64863L12.8888 4.06317ZM12.0559 3.78021C11.7619 3.74383 11.4635 3.76815 11.1793 3.85166L12.0249 6.73001C11.9155 6.76215 11.8007 6.7715 11.6876 6.75751L12.0559 3.78021ZM11.1793 3.85166C10.895 3.93518 10.6309 4.07611 10.4033 4.26576L12.3235 6.57067C12.2359 6.64365 12.1343 6.69788 12.0249 6.73001L11.1793 3.85166ZM10.4033 4.26576C10.1756 4.4554 9.98932 4.68972 9.85585 4.95422L12.5342 6.30576C12.4828 6.40753 12.4111 6.49769 12.3235 6.57067L10.4033 4.26576ZM9.85742 4.9511C9.71715 5.22748 9.52368 5.47344 9.28813 5.67487L11.2379 7.9549C11.7736 7.49679 12.2136 6.93742 12.5326 6.30888L9.85742 4.9511ZM11.7399 7.077C11.8142 6.65845 11.8517 6.23418 11.8519 5.80909L8.85187 5.80765C8.85175 6.05747 8.82973 6.30679 8.78608 6.55277L11.7399 7.077ZM11.8519 5.81018C11.8534 4.51851 11.5127 3.24949 10.8643 2.13234L8.26964 3.63822C8.65189 4.29686 8.85279 5.04503 8.85187 5.80656L11.8519 5.81018ZM10.8643 2.13234C10.2159 1.01518 9.28312 0.0897926 8.16081 -0.549616L6.67574 2.05702C7.33741 2.434 7.88738 2.97958 8.26964 3.63822L10.8643 2.13234ZM8.158 -0.551215C7.83867 -0.732234 7.47858 -0.82916 7.11153 -0.832896L7.081 2.16695C6.93984 2.16551 6.80136 2.12824 6.67855 2.05862L8.158 -0.551215ZM7.11153 -0.832896C6.74448 -0.836631 6.3825 -0.747056 6.05955 -0.572573L7.48557 2.06683C7.36137 2.13394 7.22216 2.16839 7.081 2.16695L7.11153 -0.832896ZM6.05955 -0.572573C5.7366 -0.39809 5.46327 -0.144422 5.26522 0.164631L7.79105 1.78332C7.71488 1.90218 7.60977 1.99973 7.48557 2.06683L6.05955 -0.572573ZM5.26522 0.164631C5.06715 0.473687 4.95086 0.827991 4.92724 1.19429L7.92103 1.38734C7.91194 1.52821 7.86722 1.66446 7.79105 1.78332L5.26522 0.164631ZM4.92674 1.20244C4.9014 1.63187 4.78913 2.05168 4.59675 2.43644L7.28004 3.77808C7.65402 3.03011 7.87226 2.214 7.92153 1.37919L4.92674 1.20244ZM4.59675 2.43644C4.40437 2.8212 4.13588 3.1629 3.80755 3.44084L5.74583 5.73061C6.38411 5.19031 6.90605 4.52605 7.28004 3.77808L4.59675 2.43644ZM3.83006 3.42215L3.67641 3.54715L5.56967 5.87429L5.72332 5.74929L3.83006 3.42215ZM3.78566 3.46622C3.14669 3.89616 2.5811 4.42617 2.11062 5.0359L4.48573 6.86861C4.7595 6.51381 5.08861 6.20541 5.46042 5.95523L3.78566 3.46622ZM2.12331 5.01968C1.39998 5.93093 0.898902 6.99819 0.659823 8.13681L3.5958 8.75328C3.73911 8.07078 4.03946 7.43105 4.47303 6.88484L2.12331 5.01968ZM0.659823 8.13681C0.420745 9.27542 0.450241 10.4541 0.745971 11.5793L3.64744 10.8168C3.47017 10.1423 3.45249 9.43578 3.5958 8.75328L0.659823 8.13681ZM0.745971 11.5793C1.0417 12.7045 1.59553 13.7454 2.36354 14.6193L4.61703 12.639C4.15667 12.1151 3.8247 11.4912 3.64744 10.8168L0.745971 11.5793ZM2.36354 14.6193C3.13155 15.4933 4.09262 16.1763 5.17053 16.6141L6.29957 13.8347C5.65346 13.5722 5.07738 13.1628 4.61703 12.639L2.36354 14.6193ZM5.16766 16.6129C5.49672 16.7474 5.85383 16.7988 6.20747 16.7627L5.90225 13.7782C6.03836 13.7643 6.1758 13.7841 6.30244 13.8358L5.16766 16.6129ZM6.20747 16.7627C6.56111 16.7265 6.90042 16.6039 7.19546 16.4056L5.52201 13.9157C5.63556 13.8393 5.76615 13.7921 5.90225 13.7782L6.20747 16.7627ZM7.19546 16.4056C7.4905 16.2073 7.7322 15.9394 7.89925 15.6256L5.25115 14.2158C5.31544 14.0951 5.40846 13.992 5.52201 13.9157L7.19546 16.4056ZM7.89925 15.6256C8.06631 15.3118 8.15357 14.9618 8.15335 14.6063L5.15335 14.6081C5.15327 14.4713 5.18685 14.3366 5.25115 14.2158L7.89925 15.6256ZM8.15332 14.5971C8.15182 14.3748 8.11664 14.154 8.04897 13.9423L5.19134 14.8555C5.16673 14.7785 5.15393 14.6982 5.15339 14.6173L8.15332 14.5971ZM8.06973 14.0132C7.96868 13.6334 7.93958 13.238 7.98394 12.8474L5.0031 12.5089C4.91652 13.2712 4.97332 14.0431 5.17057 14.7845L8.06973 14.0132ZM5.16827 13.3808C5.95673 14.8679 7.22236 16.0467 8.7617 16.7277L9.97534 13.9841C9.05153 13.5755 8.29197 12.868 7.81877 11.9755L5.16827 13.3808ZM8.75597 16.7251C9.24556 16.9442 9.79902 16.9736 10.3091 16.8078L9.38173 13.9548C9.57856 13.8908 9.79214 13.9022 9.98107 13.9867L8.75597 16.7251ZM10.3062 16.8088C11.5226 16.4162 12.6184 15.719 13.4896 14.7836L11.2941 12.7391C10.7716 13.3002 10.1143 13.7183 9.38468 13.9538L10.3062 16.8088ZM13.4896 14.7836C14.3607 13.8482 14.9782 12.7055 15.2833 11.4642L12.37 10.7481C12.187 11.4926 11.8166 12.178 11.2941 12.7391L13.4896 14.7836ZM15.2833 11.4642C15.5884 10.223 15.5711 8.92428 15.233 7.69158L12.3398 8.48519C12.5427 9.22458 12.5531 10.0035 12.37 10.7481L15.2833 11.4642ZM15.233 7.69158C14.8948 6.45888 14.2471 5.33312 13.3513 4.42126L11.2112 6.52361C11.7485 7.07056 12.137 7.7458 12.3398 8.48519L15.233 7.69158ZM10.3562 12.6885C9.96281 12.4891 9.6158 12.2092 9.33772 11.8669L7.00931 13.7586C7.55285 14.4277 8.23111 14.9748 8.99999 15.3645L10.3562 12.6885ZM9.33772 11.8669C9.05964 11.5247 8.85671 11.1277 8.74212 10.7018L5.84516 11.4813C6.06913 12.3137 6.46578 13.0896 7.00931 13.7586L9.33772 11.8669ZM8.75087 10.7359C8.71223 10.5776 8.68234 10.4173 8.66134 10.2557L5.68636 10.6423C5.72156 10.9132 5.77165 11.1819 5.83641 11.4472L8.75087 10.7359ZM8.65971 10.2435C8.59783 9.79608 8.39767 9.37916 8.08721 9.05106L5.90812 11.113C5.78874 10.9868 5.71178 10.8265 5.68799 10.6545L8.65971 10.2435ZM8.08721 9.05106C7.77675 8.72296 7.37152 8.50009 6.92817 8.4136L6.35378 11.3581C6.18331 11.3248 6.02749 11.2391 5.90812 11.113L8.08721 9.05106ZM6.93116 8.41419C6.79282 8.38691 6.65213 8.37328 6.51113 8.37349L6.51558 11.3735C6.46026 11.3736 6.40506 11.3682 6.35079 11.3575L6.93116 8.41419ZM6.51389 8.37348C6.13296 8.37335 5.75873 8.47366 5.42894 8.66429L6.93031 11.2616C6.80341 11.3349 6.6594 11.3735 6.51282 11.3735L6.51389 8.37348ZM5.42894 8.66429C5.09915 8.85493 4.82545 9.12916 4.63546 9.45932L7.23565 10.9556C7.16254 11.0827 7.05722 11.1882 6.93031 11.2616L5.42894 8.66429ZM4.63788 9.45512C3.9458 10.6488 3.59775 12.0108 3.63231 13.3902L6.63137 13.3151C6.61069 12.4895 6.819 11.6743 7.23323 10.9598L4.63788 9.45512ZM6.05255 12.1685C5.72274 11.9121 5.44711 11.5927 5.24163 11.229L2.62962 12.7046C3.03037 13.414 3.56792 14.0368 4.21113 14.5368L6.05255 12.1685ZM5.24163 11.229C5.03615 10.8653 4.9049 10.4644 4.85549 10.0495L1.87655 10.4043C1.9729 11.2134 2.22887 11.9952 2.62962 12.7046L5.24163 11.229ZM4.85549 10.0495C4.80609 9.6347 4.83951 9.21419 4.95381 8.81237L2.0683 7.99152C1.84537 8.77518 1.78019 9.59529 1.87655 10.4043L4.85549 10.0495ZM4.95381 8.81237C5.06812 8.41055 5.26104 8.03542 5.52139 7.70871L3.17523 5.83907C2.66747 6.47625 2.29123 7.20787 2.0683 7.99152L4.95381 8.81237ZM5.53688 7.68893C5.72839 7.44018 5.95942 7.22453 6.22076 7.05059L4.55854 4.55319C4.024 4.90897 3.55145 5.35005 3.15975 5.85885L5.53688 7.68893ZM6.20305 7.0622C6.27232 7.01749 6.33875 6.96854 6.40195 6.91564L4.47631 4.61522C4.50806 4.58865 4.54143 4.56405 4.57625 4.54158L6.20305 7.0622ZM5.43913 5.76543C6.39535 6.92113 6.39534 6.92113 6.39534 6.92113C6.39534 6.92113 6.39534 6.92113 6.39534 6.92113C6.39534 6.92113 6.39535 6.92113 6.39536 6.92112C6.39537 6.92111 6.3954 6.92109 6.39544 6.92105C6.39552 6.92099 6.39564 6.92089 6.39581 6.92075C6.39615 6.92047 6.39667 6.92004 6.39736 6.91947C6.39873 6.91833 6.40078 6.91664 6.4034 6.91447C6.40865 6.91013 6.4162 6.90389 6.42529 6.89638C6.44354 6.88131 6.46773 6.86135 6.49193 6.84144C6.51656 6.82118 6.53948 6.80237 6.55586 6.78904C6.55981 6.78582 6.56298 6.78325 6.56541 6.78129C6.56799 6.77921 6.56896 6.77843 6.56871 6.77863C6.56855 6.77876 6.56756 6.77954 6.56595 6.78082C6.56453 6.78194 6.56121 6.78455 6.55665 6.78807C6.55331 6.79064 6.54297 6.79861 6.52913 6.80875C6.52241 6.81368 6.50896 6.82345 6.49157 6.83538C6.48343 6.84096 6.43558 6.87411 6.37083 6.91L4.91654 4.28606C4.85157 4.32207 4.80342 4.35541 4.79488 4.36127C4.77709 4.37346 4.76316 4.38358 4.75587 4.38893C4.74088 4.39991 4.72905 4.40901 4.72389 4.41299C4.71237 4.42188 4.70242 4.4298 4.69719 4.43397C4.68541 4.44337 4.6727 4.45368 4.66188 4.46249C4.63926 4.4809 4.61147 4.50371 4.58581 4.52483C4.55972 4.5463 4.53403 4.56749 4.51498 4.58322C4.50543 4.59111 4.49747 4.59769 4.49188 4.60231C4.48908 4.60462 4.48687 4.60645 4.48534 4.60771C4.48458 4.60834 4.48399 4.60883 4.48358 4.60917C4.48337 4.60934 4.48321 4.60947 4.4831 4.60957C4.48305 4.60961 4.483 4.60965 4.48297 4.60968C4.48295 4.60969 4.48294 4.6097 4.48293 4.60971C4.48292 4.60971 4.48292 4.60972 4.48292 4.60972C4.48291 4.60973 4.48291 4.60973 5.43913 5.76543ZM6.61237 6.7433C7.80048 5.73837 8.64551 4.38786 9.02973 2.87994L6.12262 2.1392C5.89253 3.04222 5.38648 3.85097 4.67499 4.45276L6.61237 6.7433ZM6.55795 3.61103C7.04171 4.05823 7.36428 4.65265 7.47557 5.30197L10.4325 4.79518C10.2095 3.49453 9.5634 2.30388 8.5944 1.40811L6.55795 3.61103ZM7.47557 5.30197C7.58686 5.9513 7.48065 6.61921 7.17342 7.20198L9.82723 8.60101C10.4426 7.43368 10.6554 6.09582 10.4325 4.79518L7.47557 5.30197ZM7.17057 7.20742C6.97252 7.58685 6.89128 8.01643 6.93709 8.44197L9.91986 8.12087C9.93747 8.2845 9.90624 8.44968 9.83008 8.59558L7.17057 7.20742ZM6.93709 8.44197C6.9829 8.86752 7.15371 9.26997 7.42798 9.59855L9.73111 7.67616C9.83657 7.8025 9.90224 7.95725 9.91986 8.12087L6.93709 8.44197ZM7.42798 9.59855C7.70225 9.92714 8.06768 10.1671 8.47818 10.2883L9.32729 7.41095C9.48513 7.45753 9.62565 7.54981 9.73111 7.67616L7.42798 9.59855ZM8.47818 10.2883C8.88868 10.4094 9.32587 10.4063 9.73459 10.2792L8.84418 7.41442C9.00135 7.36557 9.16945 7.36437 9.32729 7.41095L8.47818 10.2883ZM9.73806 10.2782C11.0517 9.86636 12.2077 9.06199 13.0504 7.97333L10.6781 6.137C10.2107 6.74089 9.56942 7.18708 8.84071 7.41551L9.73806 10.2782ZM10.6221 7.89609C10.8893 8.29072 11.064 8.74055 11.1331 9.21207L14.1014 8.77674C13.9667 7.85859 13.6266 6.98267 13.1064 6.21424L10.6221 7.89609ZM11.1331 9.21207C11.2023 9.68358 11.1641 10.1646 11.0215 10.6194L13.8841 11.517C14.1618 10.6316 14.236 9.69489 14.1014 8.77674L11.1331 9.21207ZM11.0215 10.6194C10.8789 11.0741 10.6356 11.4908 10.3095 11.8383L12.4977 13.8907C13.1325 13.2139 13.6064 12.4025 13.8841 11.517L11.0215 10.6194ZM10.3095 11.8383C9.98352 12.1859 9.58326 12.4555 9.13858 12.6269L10.2175 15.4261C11.0834 15.0924 11.8628 14.5675 12.4977 13.8907L10.3095 11.8383ZM10.7212 15.1044L10.7212 15.1044L8.63495 12.9486L8.63493 12.9486L10.7212 15.1044Z" fill="#C0C1C3" mask="url(#path-1-inside-1)"/>
</svg>
