<svg width="14" height="14" viewBox="0 0 14 14" fill="none" xmlns="http://www.w3.org/2000/svg">
<path d="M1.5415 6.50033C1.5415 6.50033 3.70817 2.16699 7.49984 2.16699C11.2915 2.16699 13.4582 6.50033 13.4582 6.50033C13.4582 6.50033 11.2915 10.8337 7.49984 10.8337C3.70817 10.8337 1.5415 6.50033 1.5415 6.50033Z" stroke="#C0C1C3" stroke-linecap="round" stroke-linejoin="round"/>
<path d="M7.5 8.125C8.39746 8.125 9.125 7.39746 9.125 6.5C9.125 5.60254 8.39746 4.875 7.5 4.875C6.60254 4.875 5.875 5.60254 5.875 6.5C5.875 7.39746 6.60254 8.125 7.5 8.125Z" stroke="#C0C1C3" stroke-linecap="round" stroke-linejoin="round"/>
<path d="M6 10C6 12.2091 4.433 14 2.5 14C0.567003 14 0 12.2091 0 10C0 7.79086 0.567003 6 2.5 6C4.433 6 6 7.79086 6 10Z" fill="#21242C"/>
<path d="M4.87685 9.20285L2.79523 7.1188C2.75564 7.08085 2.70895 7.0511 2.65785 7.03127C2.55649 6.98958 2.4428 6.98958 2.34144 7.03127C2.29034 7.0511 2.24365 7.08085 2.20406 7.1188L0.122437 9.20285C0.0836199 9.24171 0.0528284 9.28785 0.0318205 9.33863C0.0108127 9.38941 0 9.44383 0 9.49879C0 9.60979 0.044042 9.71624 0.122437 9.79472C0.200833 9.87321 0.307159 9.9173 0.418027 9.9173C0.528895 9.9173 0.635221 9.87321 0.713617 9.79472L2.08332 8.41925L2.08332 12.5832C2.08332 12.6937 2.12718 12.7998 2.20526 12.8779C2.28334 12.9561 2.38923 13 2.49964 13C2.61006 13 2.71595 12.9561 2.79403 12.8779C2.87211 12.7998 2.91597 12.6937 2.91597 12.5832L2.91597 8.41925L4.28567 9.79472C4.32438 9.83379 4.37042 9.8648 4.42115 9.88596C4.47189 9.90712 4.5263 9.91802 4.58126 9.91802C4.63622 9.91802 4.69064 9.90712 4.74137 9.88596C4.7921 9.8648 4.83815 9.83379 4.87685 9.79472C4.91587 9.75598 4.94685 9.70988 4.96798 9.65908C4.98912 9.60829 5 9.55381 5 9.49879C5 9.44376 4.98912 9.38928 4.96798 9.33849C4.94685 9.2877 4.91587 9.2416 4.87685 9.20285Z" fill="#C0C1C3"/>
</svg>
