<svg width="24" height="24" viewBox="0 0 24 24" fill="none" xmlns="http://www.w3.org/2000/svg">
  <path d="M11.9536 11.7282C10.843 9.14973 8.75386 7.54986 6.49975 7.54986C4.24564 7.54986 2.15646 9.14973 1.0459 11.7282C1.01563 11.7976 1 11.8724 1 11.9481C1 12.0238 1.01563 12.0987 1.0459 12.168C2.15646 14.7465 4.24564 16.3464 6.49975 16.3464C8.75386 16.3464 10.843 14.7465 11.9536 12.168C11.9839 12.0987 11.9995 12.0238 11.9995 11.9481C11.9995 11.8724 11.9839 11.7976 11.9536 11.7282V11.7282ZM6.49975 15.2468C4.75694 15.2468 3.10759 13.9878 2.15646 11.9481C3.10759 9.90843 4.75694 8.64943 6.49975 8.64943C8.24256 8.64943 9.89191 9.90843 10.843 11.9481C9.89191 13.9878 8.24256 15.2468 6.49975 15.2468ZM6.49975 9.74899C6.0648 9.74899 5.63962 9.87797 5.27798 10.1196C4.91633 10.3613 4.63446 10.7047 4.46802 11.1066C4.30157 11.5084 4.25802 11.9506 4.34287 12.3772C4.42773 12.8037 4.63717 13.1956 4.94473 13.5031C5.25228 13.8107 5.64413 14.0202 6.07072 14.105C6.49731 14.1899 6.93948 14.1463 7.34132 13.9799C7.74316 13.8134 8.08662 13.5315 8.32826 13.1699C8.56991 12.8083 8.69888 12.3831 8.69888 11.9481C8.69888 11.3649 8.46719 10.8055 8.05477 10.3931C7.64236 9.98069 7.083 9.74899 6.49975 9.74899V9.74899ZM6.49975 13.0477C6.28228 13.0477 6.06969 12.9832 5.88886 12.8624C5.70804 12.7416 5.56711 12.5698 5.48388 12.3689C5.40066 12.168 5.37888 11.9469 5.42131 11.7336C5.46374 11.5203 5.56846 11.3244 5.72224 11.1706C5.87602 11.0168 6.07194 10.9121 6.28524 10.8697C6.49853 10.8273 6.71962 10.849 6.92054 10.9323C7.12146 11.0155 7.29318 11.1564 7.41401 11.3372C7.53483 11.5181 7.59932 11.7307 7.59932 11.9481C7.59932 12.2398 7.48347 12.5194 7.27726 12.7256C7.07105 12.9318 6.79137 13.0477 6.49975 13.0477Z" fill="#C0C1C3"/>
  <path d="M22.7967 10.632L19.3606 7.19587C19.2952 7.1333 19.2182 7.08426 19.1338 7.05155C18.9665 6.98282 18.7788 6.98282 18.6115 7.05155C18.5271 7.08426 18.4501 7.1333 18.3847 7.19587L14.9486 10.632C14.8845 10.6961 14.8337 10.7722 14.799 10.8559C14.7643 10.9396 14.7465 11.0293 14.7465 11.1199C14.7465 11.303 14.8192 11.4785 14.9486 11.6079C15.078 11.7373 15.2535 11.81 15.4365 11.81C15.6195 11.81 15.795 11.7373 15.9244 11.6079L18.1854 9.34002V16.2054C18.1854 16.3877 18.2578 16.5625 18.3867 16.6914C18.5156 16.8203 18.6904 16.8927 18.8726 16.8927C19.0549 16.8927 19.2297 16.8203 19.3586 16.6914C19.4875 16.5625 19.5599 16.3877 19.5599 16.2054V9.34002L21.8209 11.6079C21.8847 11.6723 21.9608 11.7234 22.0445 11.7583C22.1282 11.7932 22.2181 11.8112 22.3088 11.8112C22.3995 11.8112 22.4893 11.7932 22.5731 11.7583C22.6568 11.7234 22.7328 11.6723 22.7967 11.6079C22.8611 11.544 22.9123 11.468 22.9472 11.3842C22.982 11.3005 23 11.2107 23 11.1199C23 11.0292 22.982 10.9394 22.9472 10.8557C22.9123 10.7719 22.8611 10.6959 22.7967 10.632Z" fill="#C0C1C3"/>
</svg>
