<svg width="24" height="24" viewBox="0 0 24 24" fill="none" xmlns="http://www.w3.org/2000/svg">
<path d="M23.929 13.4316L22.6511 9.49586C22.6517 9.49763 22.6519 9.49947 22.6525 9.50124C22.6518 9.49918 22.6515 9.49713 22.6509 9.49508C22.6508 9.49494 22.6508 9.49486 22.6508 9.49472C22.6508 9.49465 22.6508 9.49458 22.6508 9.49458L20.1139 1.68425C19.9752 1.27281 19.5933 0.996672 19.1555 1.00007C18.7165 1.00234 18.3451 1.27316 18.2093 1.69026L15.8013 9.10375H8.20316L5.7906 1.68977C5.65494 1.27302 5.2835 1.00227 4.84452 1C4.84275 1 4.84105 1 4.83921 1C4.40696 1 4.02433 1.27443 3.88407 1.69048L1.35412 9.4938L1.35377 9.49479C1.35377 9.49487 1.35377 9.49494 1.35377 9.49501C1.35313 9.49699 1.35285 9.49897 1.35221 9.50095C1.35278 9.49918 1.35299 9.49734 1.35356 9.49557L0.0709487 13.4316C-0.121991 14.0258 0.0873752 14.6715 0.592063 15.0386L11.6669 23.0853C11.6685 23.0865 11.6703 23.0872 11.672 23.0884C11.6767 23.0918 11.6813 23.0953 11.6861 23.0985C11.6816 23.0954 11.6773 23.0921 11.6729 23.089C11.6729 23.089 11.6729 23.0889 11.6728 23.0889C11.6735 23.0895 11.6744 23.0898 11.6752 23.0903C11.6758 23.0908 11.6764 23.0911 11.6771 23.0915C11.6771 23.0915 11.6772 23.0916 11.6773 23.0917C11.6945 23.1036 11.7123 23.1145 11.7307 23.1245C11.7332 23.1259 11.7355 23.1277 11.738 23.129C11.7381 23.129 11.7381 23.1291 11.7382 23.1291C11.7397 23.1299 11.7411 23.1308 11.7427 23.1316C11.7439 23.1322 11.7452 23.1325 11.7463 23.1331C11.7472 23.1335 11.7481 23.1338 11.7489 23.1342C11.751 23.1352 11.7532 23.1358 11.7553 23.1369C11.7649 23.1415 11.7751 23.1452 11.785 23.1493C11.7942 23.1531 11.8032 23.1575 11.8127 23.1609C11.8131 23.161 11.8135 23.1612 11.8139 23.1614C11.8155 23.1619 11.8169 23.1627 11.8185 23.1633C11.8205 23.164 11.8224 23.1648 11.8244 23.1654C11.8252 23.1656 11.826 23.1658 11.8267 23.166C11.8292 23.1667 11.8319 23.1671 11.8344 23.1678C11.8353 23.1681 11.8364 23.1682 11.8374 23.1685C11.8507 23.1725 11.8645 23.1755 11.8782 23.1785C11.8836 23.1797 11.8888 23.1814 11.8942 23.1824C11.895 23.1825 11.8957 23.1828 11.8966 23.183C11.8983 23.1833 11.9 23.1839 11.9018 23.1842C11.9047 23.1847 11.9075 23.1856 11.9105 23.1861C11.9128 23.1864 11.9152 23.1863 11.9176 23.1866C11.918 23.1867 11.9184 23.1866 11.9188 23.1867C11.9189 23.1867 11.919 23.1867 11.9191 23.1867C11.9453 23.1905 11.9717 23.1931 11.9987 23.1931C11.9989 23.1931 11.999 23.1931 11.9992 23.1931C11.9993 23.1931 11.9994 23.1931 11.9994 23.1931H11.9994C11.9995 23.1931 11.9996 23.1931 11.9996 23.1931C12.0267 23.1931 12.0532 23.1905 12.0794 23.1867C12.0794 23.1867 12.0796 23.1867 12.0797 23.1867C12.0801 23.1866 12.0805 23.1867 12.0809 23.1866C12.0833 23.1863 12.0857 23.1864 12.0881 23.1861C12.0911 23.1856 12.0939 23.1847 12.0969 23.1842C12.0986 23.1839 12.1003 23.1833 12.102 23.183C12.1028 23.1828 12.1035 23.1825 12.1043 23.1824C12.1098 23.1813 12.1151 23.1796 12.1206 23.1784C12.1342 23.1755 12.1478 23.1725 12.161 23.1686C12.1619 23.1683 12.1628 23.1682 12.1638 23.1679C12.1664 23.1672 12.1691 23.1668 12.1717 23.166C12.1725 23.1658 12.1733 23.1657 12.1741 23.1655C12.1762 23.1648 12.1781 23.164 12.1801 23.1633C12.1817 23.1627 12.1831 23.1619 12.1847 23.1614C12.1851 23.1612 12.1854 23.161 12.1859 23.1609C12.1959 23.1573 12.2054 23.1527 12.2152 23.1486C12.2244 23.1448 12.2337 23.1414 12.2426 23.1371C12.2448 23.1361 12.2472 23.1354 12.2493 23.1344C12.2501 23.134 12.2511 23.1337 12.252 23.1333C12.2532 23.1327 12.2545 23.1323 12.2557 23.1317C12.2573 23.1308 12.2589 23.1299 12.2604 23.1291C12.2604 23.1291 12.2605 23.1291 12.2605 23.129C12.2631 23.1277 12.2654 23.1257 12.2681 23.1243C12.2863 23.1144 12.304 23.1036 12.3211 23.0918C12.3224 23.0908 12.324 23.0901 12.3254 23.0891C12.3258 23.0889 12.3262 23.0887 12.3265 23.0884C12.3282 23.0872 12.3301 23.0865 12.3317 23.0852L23.4082 15.0384C23.9126 14.6715 24.122 14.0258 23.929 13.4316ZM19.1626 2.41593L21.3348 9.10375H16.9903L19.1626 2.41593ZM20.9544 10.2346L20.068 11.3704L13.5304 19.7469L16.6229 10.2346H20.9544ZM11.4615 22.8026C11.4621 22.8043 11.463 22.8059 11.4636 22.8076C11.463 22.8059 11.4621 22.8043 11.4615 22.8026ZM10.4697 19.7475L3.04979 10.2346H7.38155L10.4697 19.7475ZM4.83765 2.41586L7.01394 9.10375H2.66944L4.83765 2.41586ZM1.25705 14.1239C1.14971 14.0458 1.10525 13.908 1.14638 13.7814L2.09982 10.8554L9.08601 19.8122L1.25705 14.1239ZM11.6474 23.0704C11.6452 23.0686 11.6431 23.0667 11.641 23.0649C11.6405 23.0645 11.6401 23.064 11.6396 23.0637C11.6354 23.0601 11.6312 23.0565 11.6271 23.0528C11.619 23.0458 11.6111 23.0387 11.6035 23.0312C11.6041 23.0317 11.6048 23.0322 11.6055 23.0328C11.6063 23.0336 11.6072 23.0342 11.6081 23.035C11.6243 23.0505 11.6414 23.0651 11.6592 23.0785C11.6594 23.0787 11.6596 23.0789 11.6598 23.079C11.6606 23.0797 11.6613 23.0804 11.6622 23.0811C11.6573 23.0776 11.6522 23.0742 11.6474 23.0704ZM11.9996 20.7978L10.1825 15.2001L8.57056 10.2346H15.4338L11.9996 20.7978ZM12.3716 23.0528C12.3673 23.0565 12.3632 23.0602 12.3589 23.0637C12.3584 23.0641 12.3579 23.0646 12.3574 23.0651C12.3552 23.0668 12.3532 23.0687 12.351 23.0705C12.3464 23.0743 12.3413 23.0777 12.3364 23.0813C12.3372 23.0806 12.3379 23.0798 12.3389 23.0792C12.339 23.0791 12.3391 23.0789 12.3393 23.0788C12.3571 23.0654 12.3741 23.0509 12.3902 23.0354C12.3908 23.0348 12.3916 23.0343 12.3922 23.0337C12.3931 23.0329 12.394 23.0323 12.3948 23.0315C12.3873 23.0388 12.3794 23.0459 12.3716 23.0528ZM22.7432 14.1237L14.9154 19.8104L21.9039 10.8561L22.8535 13.7808C22.8947 13.908 22.8504 14.0458 22.7432 14.1237Z" fill="white"/>
</svg>
