<svg width="24" height="25" viewBox="0 0 24 25" fill="none" xmlns="http://www.w3.org/2000/svg">
<path d="M3.66301 10.9007C3.625 10.9007 3.6155 10.8817 3.6345 10.8532L3.83407 10.5966C3.85307 10.5681 3.90059 10.5491 3.9386 10.5491H7.3312C7.36921 10.5491 7.37871 10.5776 7.3597 10.6061L7.19815 10.8532C7.17915 10.8817 7.13163 10.9102 7.10312 10.9102L3.66301 10.9007Z" fill="#00ACD7"/>
<path d="M2.22795 11.775C2.18994 11.775 2.18044 11.7559 2.19944 11.7274L2.39901 11.4709C2.41802 11.4423 2.46553 11.4233 2.50354 11.4233H6.83694C6.87495 11.4233 6.89396 11.4518 6.88446 11.4804L6.80843 11.7084C6.79893 11.7464 6.76092 11.7655 6.7229 11.7655L2.22795 11.775Z" fill="#00ACD7"/>
<path d="M4.52776 12.6492C4.48975 12.6492 4.48024 12.6207 4.49925 12.5922L4.63229 12.3546C4.6513 12.3261 4.68931 12.2976 4.72732 12.2976H6.62794C6.66595 12.2976 6.68495 12.3261 6.68495 12.3641L6.66595 12.5922C6.66595 12.6302 6.62794 12.6587 6.59943 12.6587L4.52776 12.6492Z" fill="#00ACD7"/>
<path d="M14.392 10.7295C13.7933 10.8816 13.3846 10.9956 12.7954 11.1477C12.6529 11.1857 12.6434 11.1952 12.5198 11.0526C12.3773 10.8911 12.2728 10.7866 12.0732 10.6915C11.4745 10.3969 10.8948 10.4825 10.3532 10.8341C9.70694 11.2522 9.37433 11.8699 9.38384 12.6397C9.39334 13.3999 9.91601 14.0271 10.6668 14.1316C11.313 14.2172 11.8546 13.9891 12.2823 13.5044C12.3678 13.3999 12.4438 13.2859 12.5389 13.1528C12.1967 13.1528 11.7691 13.1528 10.7048 13.1528C10.5052 13.1528 10.4577 13.0293 10.5242 12.8677C10.6477 12.5731 10.8758 12.079 11.0089 11.8319C11.0374 11.7749 11.1039 11.6799 11.2464 11.6799C11.7311 11.6799 13.5177 11.6799 14.7056 11.6799C14.6865 11.9364 14.6866 12.193 14.6485 12.4496C14.544 13.1338 14.2874 13.761 13.8693 14.3122C13.1851 15.215 12.2918 15.7757 11.1609 15.9277C10.2296 16.0513 9.36483 15.8707 8.60459 15.3005C7.90136 14.7683 7.50223 14.0651 7.3977 13.1908C7.27416 12.155 7.57825 11.2237 8.20546 10.4064C8.88017 9.52266 9.77346 8.96197 10.8663 8.76241C11.7596 8.60086 12.6149 8.70539 13.3846 9.22806C13.8883 9.56067 14.2494 10.0168 14.487 10.568C14.544 10.6535 14.506 10.701 14.392 10.7295Z" fill="#00ACD7"/>
<path d="M17.5375 15.9846C16.6727 15.9656 15.8839 15.7186 15.2187 15.1484C14.658 14.6637 14.3064 14.046 14.1924 13.3143C14.0213 12.2404 14.3159 11.2901 14.9621 10.4443C15.6559 9.53205 16.4921 9.0569 17.623 8.85734C18.5923 8.68628 19.5046 8.78131 20.3314 9.34199C21.0821 9.85516 21.5478 10.5489 21.6713 11.4612C21.8329 12.7441 21.4622 13.7894 20.5785 14.6827C19.9513 15.3194 19.1815 15.7185 18.2977 15.8991C18.0411 15.9466 17.7846 15.9561 17.5375 15.9846ZM19.7992 12.1454C19.7897 12.0219 19.7897 11.9268 19.7707 11.8318C19.5996 10.891 18.7349 10.3588 17.8321 10.5679C16.9483 10.7675 16.3781 11.3281 16.169 12.2214C15.998 12.9627 16.3591 13.7134 17.0433 14.0175C17.566 14.2456 18.0886 14.2171 18.5923 13.9605C19.3431 13.5709 19.7517 12.9627 19.7992 12.1454Z" fill="#00ACD7"/>
</svg>
