<svg width="24" height="24" viewBox="0 0 24 24" fill="none" xmlns="http://www.w3.org/2000/svg">
  <path d="M2.66241 10.4917C2.61957 10.4917 2.60886 10.4702 2.63028 10.4381L2.8552 10.1489C2.87662 10.1168 2.93017 10.0954 2.97302 10.0954H6.79669C6.83953 10.0954 6.85024 10.1275 6.82882 10.1596L6.64674 10.4381C6.62532 10.4702 6.57177 10.5024 6.53963 10.5024L2.66241 10.4917Z" fill="#00ACD7"/>
  <path d="M1.04284 11.4795C1 11.4795 0.989289 11.4581 1.01071 11.426L1.23563 11.1368C1.25705 11.1047 1.31061 11.0832 1.35345 11.0832H6.23746C6.28031 11.0832 6.30173 11.1154 6.29102 11.1475L6.20533 11.4045C6.19462 11.4474 6.15178 11.4688 6.10894 11.4688L1.04284 11.4795Z" fill="#00ACD7"/>
  <path d="M3.63439 12.4683C3.59155 12.4683 3.58084 12.4362 3.60226 12.4041L3.75221 12.1363C3.77363 12.1042 3.81647 12.072 3.85932 12.072H6.00143C6.04427 12.072 6.06569 12.1042 6.06569 12.147L6.04427 12.4041C6.04427 12.4469 6.00143 12.479 5.9693 12.479L3.63439 12.4683Z" fill="#00ACD7"/>
  <path d="M14.7562 10.2957C14.0815 10.4671 13.6209 10.5956 12.9568 10.767C12.7962 10.8098 12.7855 10.8206 12.6462 10.6599C12.4856 10.4778 12.3678 10.36 12.1428 10.2529C11.4681 9.92087 10.8147 10.0173 10.2042 10.4136C9.47591 10.8848 9.10104 11.581 9.11175 12.4486C9.12246 13.3054 9.71154 14.0123 10.5577 14.1301C11.286 14.2265 11.8965 13.9695 12.3785 13.4232C12.4749 13.3054 12.5606 13.1769 12.6677 13.0269C12.2821 13.0269 11.8001 13.0269 10.6005 13.0269C10.3756 13.0269 10.322 12.8877 10.397 12.7056C10.5363 12.3736 10.7933 11.8166 10.9433 11.5382C10.9754 11.4739 11.0504 11.3668 11.211 11.3668C11.7573 11.3668 13.7708 11.3668 15.1097 11.3668C15.0882 11.656 15.0882 11.9452 15.0454 12.2343C14.9276 13.0055 14.6384 13.7124 14.1671 14.3336C13.396 15.3511 12.3892 15.983 11.1146 16.1544C10.065 16.2937 9.09033 16.0902 8.23349 15.4475C7.4409 14.8477 6.99106 14.0551 6.87325 13.0698C6.73401 11.9023 7.07675 10.8527 7.78364 9.93158C8.54409 8.9355 9.55089 8.30357 10.7826 8.07865C11.7894 7.89657 12.7533 8.01439 13.6209 8.60347C14.1886 8.97834 14.5956 9.49244 14.8633 10.1137C14.9276 10.2101 14.8847 10.2636 14.7562 10.2957Z" fill="#00ACD7"/>
  <path d="M18.2994 16.2209C17.3247 16.1995 16.4358 15.921 15.686 15.2784C15.0541 14.7321 14.6578 14.0359 14.5293 13.2112C14.3365 12.0009 14.6685 10.9299 15.3968 9.97663C16.1787 8.94841 17.1212 8.41288 18.3958 8.18796C19.4883 7.99517 20.5165 8.10228 21.4483 8.7342C22.2944 9.31257 22.8193 10.0944 22.9585 11.1227C23.1406 12.5686 22.7229 13.7467 21.7268 14.7535C21.0199 15.4711 20.1523 15.921 19.1562 16.1245C18.8671 16.178 18.5779 16.1888 18.2994 16.2209ZM20.8485 11.8938C20.8378 11.7546 20.8378 11.6475 20.8164 11.5404C20.6236 10.48 19.6489 9.88023 18.6314 10.1159C17.6353 10.3408 16.9927 10.9727 16.7571 11.9795C16.5643 12.8149 16.9713 13.6611 17.7425 14.0038C18.3315 14.2609 18.9206 14.2287 19.4883 13.9395C20.3344 13.5004 20.795 12.8149 20.8485 11.8938Z" fill="#00ACD7"/>
</svg>
