<svg width="24" height="24" viewBox="0 0 24 24" fill="none" xmlns="http://www.w3.org/2000/svg">
<path fill-rule="evenodd" clip-rule="evenodd" d="M10.6755 12.4955C10.6755 12.4955 10.2467 12.7451 10.981 12.8294C11.8709 12.931 12.3254 12.9164 13.3057 12.7309C13.3057 12.7309 13.5638 12.8925 13.9241 13.0323C11.7259 13.9743 8.94912 12.9778 10.6755 12.4955ZM10.4068 11.2664C10.4068 11.2664 9.92571 11.6224 10.6607 11.6984C11.6113 11.7966 12.3616 11.8046 13.6609 11.5546C13.6609 11.5546 13.8403 11.7367 14.1226 11.8362C11.4652 12.6135 8.50549 11.8974 10.4068 11.2664Z" fill="#3174B9"/>
<path fill-rule="evenodd" clip-rule="evenodd" d="M12.6705 9.18069C13.2124 9.80445 12.5285 10.3654 12.5285 10.3654C12.5285 10.3654 13.9038 9.65561 13.2721 8.76639C12.6823 7.93753 12.2299 7.52575 14.6787 6.10571C14.6786 6.10562 10.8348 7.06535 12.6705 9.18069Z" fill="#CA3132"/>
<path fill-rule="evenodd" clip-rule="evenodd" d="M15.5778 13.4047C15.5778 13.4047 15.8953 13.6664 15.2282 13.8688C13.9597 14.253 9.94762 14.3689 8.83318 13.8841C8.43286 13.7097 9.18396 13.468 9.42026 13.417C9.66671 13.3637 9.80735 13.3734 9.80735 13.3734C9.36186 13.0597 6.92779 13.9895 8.57118 14.2563C13.0524 14.9829 16.7401 13.9292 15.5778 13.4047ZM10.8814 9.99254C10.8814 9.99254 8.84082 10.4773 10.1589 10.6536C10.7156 10.728 11.8245 10.7108 12.8583 10.6241C13.7029 10.5533 14.5507 10.4016 14.5507 10.4016C14.5507 10.4016 14.2531 10.5293 14.0375 10.6763C11.965 11.2215 7.96194 10.9675 9.11447 10.4103C10.0889 9.93889 10.8814 9.99254 10.8814 9.99254ZM14.5422 12.0386C16.6488 10.9442 15.6748 9.89223 14.9948 10.034C14.8285 10.0687 14.7539 10.0987 14.7539 10.0987C14.7539 10.0987 14.8159 10.0017 14.9339 9.95994C16.2789 9.48725 17.3132 11.3545 14.5002 12.0939C14.5001 12.0939 14.5325 12.0647 14.5422 12.0386Z" fill="#3174B9"/>
<path fill-rule="evenodd" clip-rule="evenodd" d="M13.2717 3.81226C13.2717 3.81226 14.4382 4.97941 12.1651 6.7736C10.3423 8.21338 11.7495 9.03405 12.1646 9.97208C11.1003 9.01207 10.3197 8.16681 10.8434 7.38032C11.6122 6.22583 13.7424 5.66596 13.2717 3.81226Z" fill="#CA3132"/>
<path fill-rule="evenodd" clip-rule="evenodd" d="M11.0884 15.0052C13.1101 15.1345 16.2154 14.9334 16.289 13.9766C16.289 13.9766 16.1476 14.3393 14.618 14.627C12.8922 14.9518 10.7632 14.914 9.50098 14.7057C9.50098 14.7057 9.75963 14.9197 11.0884 15.0052Z" fill="#3174B9"/>
<path fill-rule="evenodd" clip-rule="evenodd" d="M16.1957 16.7211H16.1342V16.6866H16.3001V16.7211H16.2386V16.8932H16.1957V16.7211ZM16.5267 16.7297H16.5259L16.4648 16.8931H16.4368L16.3761 16.7297H16.3753V16.8931H16.3345V16.6865H16.3944L16.4507 16.8327L16.5069 16.6865H16.5663V16.8931H16.5268V16.7297H16.5267ZM10.7571 18.6608C10.5665 18.826 10.3649 18.919 10.1839 18.919C9.92611 18.919 9.78621 18.7641 9.78621 18.5162C9.78621 18.2479 9.93599 18.0515 10.5354 18.0515H10.757V18.6608H10.7571ZM11.2834 19.2545V17.4166C11.2834 16.9469 11.0155 16.6369 10.3697 16.6369C9.99299 16.6369 9.66271 16.7299 9.39418 16.8485L9.47149 17.174C9.68301 17.0964 9.95648 17.0244 10.2249 17.0244C10.5969 17.0244 10.757 17.174 10.757 17.4839V17.7163H10.5711C9.66746 17.7163 9.25969 18.0669 9.25969 18.594C9.25969 19.0481 9.5284 19.3063 10.0343 19.3063C10.3594 19.3063 10.6023 19.1721 10.8291 18.9757L10.8704 19.2545H11.2834ZM13.0397 19.2545H12.3836L11.5934 16.6837H12.1666L12.657 18.2634L12.7662 18.7381C13.0136 18.0515 13.1891 17.3546 13.277 16.6837H13.8343C13.6851 17.5301 13.4163 18.4595 13.0397 19.2545ZM15.558 18.6608C15.3668 18.826 15.1652 18.919 14.9846 18.919C14.7268 18.919 14.5871 18.7641 14.5871 18.5162C14.5871 18.2479 14.737 18.0515 15.336 18.0515H15.558V18.6608ZM16.0844 19.2545V17.4166C16.0844 16.9469 15.8157 16.6369 15.1706 16.6369C14.7935 16.6369 14.4633 16.7299 14.1948 16.8485L14.2721 17.174C14.4836 17.0964 14.7576 17.0244 15.0262 17.0244C15.3976 17.0244 15.5579 17.174 15.5579 17.4839V17.7163H15.372C14.4683 17.7163 14.0608 18.0669 14.0608 18.594C14.0608 19.0481 14.3289 19.3063 14.8349 19.3063C15.1603 19.3063 15.4028 19.1721 15.6302 18.9757L15.6716 19.2545H16.0844ZM8.68267 19.6913C8.53272 19.9105 8.29018 20.084 8.025 20.1819L7.76514 19.8758C7.96716 19.7721 8.14022 19.6048 8.22078 19.449C8.29018 19.3102 8.31914 19.1318 8.31914 18.7046V15.7693H8.87846V18.6641C8.87846 19.2355 8.83282 19.4664 8.68267 19.6913Z" fill="#CA3132"/>
</svg>
