<svg width="24" height="24" viewBox="0 0 24 24" fill="none" xmlns="http://www.w3.org/2000/svg">
<path d="M18.2442 18.3487H18.1473V18.3023H18.4082V18.3487H18.3119V18.58H18.2442V18.3487ZM18.7644 18.3608H18.7629L18.6669 18.5801H18.623L18.5276 18.3608H18.5264V18.5801H18.4626V18.3024H18.5565L18.645 18.499L18.7331 18.3024H18.8267V18.5801H18.7644V18.3608H18.7644Z" fill="#5382A1"/>
<path fill-rule="evenodd" clip-rule="evenodd" d="M9.57142 12.67C9.57142 12.67 8.89736 13.0053 10.0511 13.1188C11.4489 13.2552 12.1633 13.2356 13.7036 12.9862C13.7036 12.9862 14.1086 13.2035 14.6741 13.3916C11.2211 14.6577 6.85925 13.3183 9.57142 12.67Z" fill="#5382A1"/>
<path fill-rule="evenodd" clip-rule="evenodd" d="M9.14954 11.0178C9.14954 11.0178 8.39352 11.4966 9.54814 11.5988C11.0413 11.7305 12.2204 11.7413 14.2608 11.4052C14.2608 11.4052 14.543 11.65 14.9868 11.7838C10.8119 12.8282 6.16177 11.8662 9.14954 11.0178Z" fill="#5382A1"/>
<path fill-rule="evenodd" clip-rule="evenodd" d="M12.7065 8.21528C13.5574 9.0533 12.483 9.80741 12.483 9.80741C12.483 9.80741 14.6434 8.85331 13.6512 7.65855C12.7246 6.54437 12.0139 5.99078 15.861 4.08206C15.861 4.08206 9.8224 5.37227 12.7065 8.21528Z" fill="#F8981D"/>
<path fill-rule="evenodd" clip-rule="evenodd" d="M17.2741 13.8919C17.2741 13.8919 17.7729 14.2436 16.7248 14.5156C14.7316 15.0321 8.42913 15.1881 6.67833 14.5362C6.04896 14.3019 7.2292 13.9769 7.60046 13.9087C7.98765 13.8368 8.20892 13.8502 8.20892 13.8502C7.50899 13.4284 3.6849 14.6785 6.26646 15.0365C13.3068 16.0132 19.1003 14.5966 17.2741 13.8919Z" fill="#5382A1"/>
<path fill-rule="evenodd" clip-rule="evenodd" d="M9.89554 9.30607C9.89554 9.30607 6.68969 9.95749 8.76027 10.194C9.63453 10.2942 11.3773 10.2715 13.0007 10.1552C14.3275 10.0594 15.6597 9.85584 15.6597 9.85584C15.6597 9.85584 15.1918 10.0272 14.8534 10.2249C11.5979 10.9574 5.3089 10.6167 7.11942 9.86744C8.65058 9.23425 9.89554 9.30607 9.89554 9.30607Z" fill="#5382A1"/>
<path fill-rule="evenodd" clip-rule="evenodd" d="M15.6463 12.0561C18.9557 10.5849 17.4256 9.17117 16.3576 9.36163C16.0958 9.40825 15.9791 9.44863 15.9791 9.44863C15.9791 9.44863 16.0763 9.3184 16.2619 9.26203C18.3747 8.62656 19.9996 11.1363 15.5798 12.1303C15.5798 12.1303 15.631 12.0911 15.6463 12.0561Z" fill="#5382A1"/>
<path fill-rule="evenodd" clip-rule="evenodd" d="M13.6514 1C13.6514 1 15.4842 2.56845 11.9131 4.98029C9.04944 6.915 11.2601 8.01812 11.9119 9.27848C10.2403 7.98827 9.01365 6.85249 9.83661 5.79541C11.0445 4.24371 14.3909 3.49139 13.6514 1Z" fill="#F8981D"/>
<path fill-rule="evenodd" clip-rule="evenodd" d="M10.2209 16.0426C13.3975 16.2166 18.2755 15.9461 18.391 14.6602C18.391 14.6602 18.1689 15.1477 15.7657 15.5348C13.0545 15.9713 9.71051 15.9203 7.72717 15.6406C7.72722 15.6406 8.13319 15.9281 10.2209 16.0426Z" fill="#5382A1"/>
<path d="M9.70024 20.9559C9.40058 21.1783 9.08409 21.3031 8.80007 21.3031C8.39467 21.3031 8.17564 21.0952 8.17564 20.7616C8.17564 20.4008 8.41031 20.137 9.3518 20.137H9.70019V20.9559H9.70024ZM10.5271 21.7541V19.2835C10.5271 18.6524 10.1063 18.236 9.09188 18.236C8.49964 18.236 7.98086 18.3611 7.5592 18.5206L7.68091 18.9579C8.0129 18.8537 8.44264 18.7567 8.86444 18.7567C9.44883 18.7567 9.70024 18.9579 9.70024 19.3741V19.6863H9.40857C7.9887 19.6863 7.34821 20.1579 7.34821 20.8656C7.34821 21.4764 7.77029 21.8236 8.56501 21.8236C9.07586 21.8236 9.4572 21.6431 9.81368 21.3791L9.87838 21.7541H10.5271V21.7541Z" fill="#5382A1"/>
<path fill-rule="evenodd" clip-rule="evenodd" d="M13.2866 21.754H12.2553L11.0142 18.2985H11.9148L12.6849 20.4216L12.8561 21.0601C13.2457 20.1369 13.5213 19.2003 13.6591 18.2985H14.5352C14.3005 19.4364 13.8781 20.6854 13.2866 21.754Z" fill="#5382A1"/>
<path d="M17.2428 20.9559C16.9426 21.1783 16.6255 21.3031 16.3415 21.3031C15.9368 21.3031 15.7172 21.0952 15.7172 20.7616C15.7172 20.4008 15.9524 20.137 16.8938 20.137H17.2428V20.9559ZM18.0696 21.7541V19.2835C18.0696 18.6524 17.6478 18.236 16.6345 18.236C16.0418 18.236 15.5228 18.3611 15.1014 18.5206L15.2229 18.9579C15.555 18.8537 15.9856 18.7567 16.407 18.7567C16.991 18.7567 17.2428 18.9579 17.2428 19.3741V19.6863H16.9506C15.5303 19.6863 14.8901 20.1579 14.8901 20.8656C14.8901 21.4764 15.3119 21.8236 16.1065 21.8236C16.6176 21.8236 16.9988 21.6431 17.3559 21.3791L17.4208 21.7541H18.0696V21.7541Z" fill="#5382A1"/>
<path fill-rule="evenodd" clip-rule="evenodd" d="M6.4415 22.3409C6.20578 22.6353 5.82506 22.8682 5.40825 23L5 22.589C5.31725 22.4498 5.58934 22.2248 5.71576 22.0153C5.8251 21.829 5.87036 21.5889 5.87036 21.0146V17.0696H6.74886V20.9606C6.74881 21.7283 6.67707 22.0384 6.4415 22.3409Z" fill="#5382A1"/>
</svg>
