<svg width="24" height="24" viewBox="0 0 24 24" fill="none" xmlns="http://www.w3.org/2000/svg">
<path fill-rule="evenodd" clip-rule="evenodd" d="M10.6755 12.4951C10.6755 12.4951 10.2467 12.7446 10.981 12.8289C11.8709 12.9305 12.3254 12.9159 13.3057 12.7304C13.3057 12.7304 13.5638 12.892 13.9241 13.0318C11.7259 13.9738 8.94912 12.9773 10.6755 12.4951ZM10.4068 11.2659C10.4068 11.2659 9.92571 11.6219 10.6607 11.698C11.6113 11.7961 12.3616 11.8041 13.6609 11.5541C13.6609 11.5541 13.8403 11.7362 14.1226 11.8357C11.4652 12.613 8.50549 11.8969 10.4068 11.2659Z" fill="#3174B9"/>
<path fill-rule="evenodd" clip-rule="evenodd" d="M12.6705 9.1802C13.2124 9.80397 12.5285 10.365 12.5285 10.365C12.5285 10.365 13.9038 9.65513 13.2721 8.7659C12.6823 7.93704 12.2299 7.52526 14.6787 6.10522C14.6786 6.10513 10.8348 7.06486 12.6705 9.1802Z" fill="#CA3132"/>
<path fill-rule="evenodd" clip-rule="evenodd" d="M15.5778 13.4042C15.5778 13.4042 15.8953 13.6659 15.2282 13.8683C13.9597 14.2525 9.94762 14.3684 8.83318 13.8836C8.43286 13.7092 9.18396 13.4675 9.42026 13.4165C9.66671 13.3632 9.80735 13.3729 9.80735 13.3729C9.36186 13.0592 6.92779 13.989 8.57118 14.2558C13.0524 14.9824 16.7401 13.9287 15.5778 13.4042ZM10.8814 9.99205C10.8814 9.99205 8.84082 10.4769 10.1589 10.6531C10.7156 10.7275 11.8245 10.7104 12.8583 10.6236C13.7029 10.5528 14.5507 10.4011 14.5507 10.4011C14.5507 10.4011 14.2531 10.5288 14.0375 10.6758C11.965 11.221 7.96194 10.9671 9.11447 10.4098C10.0889 9.9384 10.8814 9.99205 10.8814 9.99205ZM14.5422 12.0381C16.6488 10.9437 15.6748 9.89174 14.9948 10.0335C14.8285 10.0682 14.7539 10.0982 14.7539 10.0982C14.7539 10.0982 14.8159 10.0012 14.9339 9.95945C16.2789 9.48676 17.3132 11.354 14.5002 12.0934C14.5001 12.0934 14.5325 12.0642 14.5422 12.0381Z" fill="#3174B9"/>
<path fill-rule="evenodd" clip-rule="evenodd" d="M13.2717 3.81177C13.2717 3.81177 14.4382 4.97892 12.1651 6.77311C10.3423 8.21289 11.7495 9.03356 12.1646 9.97159C11.1003 9.01158 10.3197 8.16632 10.8434 7.37983C11.6122 6.22534 13.7424 5.66547 13.2717 3.81177Z" fill="#CA3132"/>
<path fill-rule="evenodd" clip-rule="evenodd" d="M11.0884 15.0047C13.1101 15.134 16.2154 14.9329 16.289 13.9761C16.289 13.9761 16.1476 14.3388 14.618 14.6265C12.8922 14.9514 10.7632 14.9135 9.50098 14.7052C9.50098 14.7052 9.75963 14.9192 11.0884 15.0047Z" fill="#3174B9"/>
<path fill-rule="evenodd" clip-rule="evenodd" d="M16.1957 16.7206H16.1342V16.6861H16.3001V16.7206H16.2386V16.8927H16.1957V16.7206ZM16.5267 16.7292H16.5259L16.4648 16.8926H16.4368L16.3761 16.7292H16.3753V16.8926H16.3345V16.6861H16.3944L16.4507 16.8322L16.5069 16.6861H16.5663V16.8926H16.5268V16.7292H16.5267ZM10.7571 18.6603C10.5665 18.8255 10.3649 18.9185 10.1839 18.9185C9.92611 18.9185 9.78621 18.7636 9.78621 18.5157C9.78621 18.2474 9.93599 18.051 10.5354 18.051H10.757V18.6603H10.7571ZM11.2834 19.254V17.4161C11.2834 16.9464 11.0155 16.6364 10.3697 16.6364C9.99299 16.6364 9.66271 16.7295 9.39418 16.848L9.47149 17.1736C9.68301 17.0959 9.95648 17.0239 10.2249 17.0239C10.5969 17.0239 10.757 17.1736 10.757 17.4834V17.7158H10.5711C9.66746 17.7158 9.25969 18.0664 9.25969 18.5935C9.25969 19.0477 9.5284 19.3058 10.0343 19.3058C10.3594 19.3058 10.6023 19.1716 10.8291 18.9752L10.8704 19.254H11.2834ZM13.0397 19.254H12.3836L11.5934 16.6832H12.1666L12.657 18.2629L12.7662 18.7376C13.0136 18.051 13.1891 17.3541 13.277 16.6832H13.8343C13.6851 17.5296 13.4163 18.459 13.0397 19.254ZM15.558 18.6603C15.3668 18.8255 15.1652 18.9185 14.9846 18.9185C14.7268 18.9185 14.5871 18.7636 14.5871 18.5157C14.5871 18.2474 14.737 18.051 15.336 18.051H15.558V18.6603ZM16.0844 19.254V17.4161C16.0844 16.9464 15.8157 16.6364 15.1706 16.6364C14.7935 16.6364 14.4633 16.7295 14.1948 16.848L14.2721 17.1736C14.4836 17.0959 14.7576 17.0239 15.0262 17.0239C15.3976 17.0239 15.5579 17.1736 15.5579 17.4834V17.7158H15.372C14.4683 17.7158 14.0608 18.0664 14.0608 18.5935C14.0608 19.0477 14.3289 19.3058 14.8349 19.3058C15.1603 19.3058 15.4028 19.1716 15.6302 18.9752L15.6716 19.254H16.0844ZM8.68267 19.6908C8.53272 19.91 8.29018 20.0835 8.025 20.1814L7.76514 19.8753C7.96716 19.7716 8.14022 19.6043 8.22078 19.4485C8.29018 19.3098 8.31914 19.1313 8.31914 18.7042V15.7688H8.87846V18.6636C8.87846 19.235 8.83282 19.4659 8.68267 19.6908Z" fill="#CA3132"/>
</svg>
