<svg width="24" height="24" viewBox="0 0 24 24" fill="none" xmlns="http://www.w3.org/2000/svg">
<path d="M23 1H1V23H23V1Z" fill="#F7DF1E"/>
<path d="M15.7784 18.1876C16.2216 18.9111 16.7981 19.443 17.8178 19.443C18.6744 19.443 19.2216 19.0149 19.2216 18.4233C19.2216 17.7144 18.6594 17.4633 17.7165 17.0509L17.1997 16.8292C15.7079 16.1936 14.7168 15.3974 14.7168 13.7143C14.7168 12.1638 15.8982 10.9835 17.7445 10.9835C19.0589 10.9835 20.0038 11.4409 20.6848 12.6387L19.0749 13.6723C18.7205 13.0368 18.3381 12.7864 17.7445 12.7864C17.1389 12.7864 16.7552 13.1705 16.7552 13.6723C16.7552 14.2925 17.1393 14.5436 18.0263 14.9277L18.5431 15.1491C20.2996 15.9024 21.2913 16.6703 21.2913 18.3968C21.2913 20.258 19.8292 21.2777 17.8656 21.2777C15.9457 21.2777 14.7053 20.3628 14.0984 19.1636L15.7784 18.1876ZM8.47549 18.3667C8.80025 18.9429 9.09568 19.4301 9.80596 19.4301C10.4852 19.4301 10.9136 19.1643 10.9136 18.131V11.1015H12.9809V18.159C12.9809 20.2996 11.7259 21.2739 9.89396 21.2739C8.23873 21.2739 7.28016 20.4173 6.79266 19.3855L8.47549 18.3667Z" fill="black"/>
</svg>
