<svg width="24" height="24" viewBox="0 0 24 24" fill="none" xmlns="http://www.w3.org/2000/svg">
<path d="M6.0957 5.95459H18.3399V18.1988H6.0957V5.95459Z" fill="#F7DF1E"/>
<path d="M9.3174 16.1846L10.2379 15.6199C10.4155 15.9391 10.5771 16.2091 10.9646 16.2091C11.336 16.2091 11.5702 16.0618 11.5702 15.489V11.5933H12.7007V15.5052C12.7007 16.6919 12.0144 17.2321 11.0131 17.2321C10.1088 17.2321 9.58384 16.7573 9.31738 16.1845" fill="black"/>
<path d="M13.3457 16.0423L14.2885 15.4931C14.5366 15.9009 14.8592 16.2005 15.4298 16.2005C15.9096 16.2005 16.2155 15.9591 16.2155 15.6263C16.2155 15.2269 15.9013 15.0854 15.3719 14.8525L15.0825 14.7276C14.2472 14.3698 13.693 13.9205 13.693 12.9718C13.693 12.0981 14.3546 11.4324 15.3885 11.4324C16.1246 11.4324 16.6539 11.6904 17.0343 12.3644L16.1328 12.9468C15.9343 12.5891 15.7193 12.4476 15.3885 12.4476C15.0494 12.4476 14.8344 12.664 14.8344 12.9468C14.8344 13.2963 15.0494 13.4378 15.5456 13.6542L15.8351 13.779C16.8193 14.2034 17.3734 14.6361 17.3734 15.6096C17.3734 16.6582 16.5546 17.2323 15.4547 17.2323C14.3795 17.2323 13.6848 16.7164 13.3457 16.0423" fill="black"/>
</svg>
