<svg width="24" height="24" viewBox="0 0 24 24" fill="none" xmlns="http://www.w3.org/2000/svg">
<path d="M0.77525 12.675C6.93325 18.877 3.64125 15.558 12.0223 24C21.8352 14.118 20.9293 15.016 20.0243 15.912C19.3063 16.623 18.5903 17.335 23.2222 12.67C23.5932 12.3 23.5932 11.7 23.2222 11.329V11.33C19.8412 7.922 15.3643 3.366 12.0223 0C4.34625 7.73 0.77525 11.33 0.77525 11.33C0.40825 11.7 0.40825 12.3 0.77525 12.675ZM12.0203 8.452L15.5462 12L12.0212 15.548L8.49525 12L12.0203 8.452Z" fill="#2580F8"/>
<path d="M12.0005 0.0224609C4.33948 7.73746 0.775477 11.3305 0.775477 11.3305C0.409477 11.7005 0.409477 12.3005 0.775477 12.6755C6.92848 18.8725 3.64648 15.5645 12.0005 23.9785V15.5275L8.49548 12.0005L12.0005 8.47346V0.0224609Z" fill="#206FD8"/>
</svg>
