<svg width="24" height="24" viewBox="0 0 24 24" fill="none" xmlns="http://www.w3.org/2000/svg">
  <path d="M11.9534 11.7279C10.8428 9.14948 8.7537 7.54964 6.49963 7.54964C4.24557 7.54964 2.15644 9.14948 1.0459 11.7279C1.01563 11.7973 1 11.8721 1 11.9478C1 12.0235 1.01563 12.0984 1.0459 12.1677C2.15644 14.7462 4.24557 16.346 6.49963 16.346C8.7537 16.346 10.8428 14.7462 11.9534 12.1677C11.9836 12.0984 11.9993 12.0235 11.9993 11.9478C11.9993 11.8721 11.9836 11.7973 11.9534 11.7279V11.7279ZM6.49963 15.2464C4.75686 15.2464 3.10754 13.9875 2.15644 11.9478C3.10754 9.90816 4.75686 8.64918 6.49963 8.64918C8.24241 8.64918 9.89173 9.90816 10.8428 11.9478C9.89173 13.9875 8.24241 15.2464 6.49963 15.2464ZM6.49963 9.74873C6.0647 9.74873 5.63953 9.8777 5.27789 10.1193C4.91625 10.361 4.63439 10.7044 4.46794 11.1063C4.3015 11.5081 4.25795 11.9503 4.3428 12.3768C4.42765 12.8034 4.6371 13.1953 4.94464 13.5028C5.25219 13.8104 5.64403 14.0198 6.07061 14.1046C6.49719 14.1895 6.93936 14.146 7.34119 13.9795C7.74302 13.8131 8.08647 13.5312 8.32811 13.1696C8.56975 12.8079 8.69872 12.3828 8.69872 11.9478C8.69872 11.3646 8.46703 10.8052 8.05462 10.3928C7.64222 9.98042 7.08287 9.74873 6.49963 9.74873V9.74873ZM6.49963 13.0474C6.28217 13.0474 6.06958 12.9829 5.88876 12.8621C5.70794 12.7412 5.56701 12.5695 5.48379 12.3686C5.40057 12.1677 5.37879 11.9466 5.42122 11.7333C5.46364 11.52 5.56837 11.3241 5.72214 11.1703C5.87591 11.0165 6.07183 10.9118 6.28512 10.8694C6.49841 10.827 6.7195 10.8487 6.92041 10.932C7.12133 11.0152 7.29305 11.1561 7.41387 11.3369C7.53469 11.5178 7.59918 11.7303 7.59918 11.9478C7.59918 12.2394 7.48333 12.5191 7.27713 12.7253C7.07092 12.9315 6.79125 13.0474 6.49963 13.0474Z" fill="#C0C1C3"/>
  <path d="M14.9499 13.2605L18.386 16.6966C18.4513 16.7592 18.5284 16.8082 18.6128 16.8409C18.7801 16.9096 18.9677 16.9096 19.135 16.8409C19.2194 16.8082 19.2965 16.7592 19.3618 16.6966L22.7979 13.2605C22.862 13.1965 22.9128 13.1204 22.9475 13.0367C22.9822 12.9529 23 12.8632 23 12.7726C23 12.5896 22.9273 12.4141 22.7979 12.2847C22.6685 12.1553 22.493 12.0826 22.31 12.0826C22.127 12.0826 21.9515 12.1553 21.8221 12.2847L19.5611 14.5525V7.68721C19.5611 7.50495 19.4887 7.33016 19.3598 7.20128C19.231 7.0724 19.0562 7 18.8739 7C18.6916 7 18.5168 7.0724 18.388 7.20128C18.2591 7.33016 18.1867 7.50495 18.1867 7.68721V14.5525L15.9257 12.2847C15.8619 12.2203 15.7859 12.1691 15.7021 12.1343C15.6184 12.0994 15.5285 12.0814 15.4378 12.0814C15.3471 12.0814 15.2573 12.0994 15.1735 12.1343C15.0898 12.1691 15.0138 12.2203 14.9499 12.2847C14.8855 12.3486 14.8344 12.4246 14.7995 12.5083C14.7646 12.5921 14.7466 12.6819 14.7466 12.7726C14.7466 12.8633 14.7646 12.9531 14.7995 13.0369C14.8344 13.1206 14.8855 13.1966 14.9499 13.2605Z" fill="#C0C1C3"/>
</svg>
