<svg width="14" height="14" viewBox="0 0 14 14" fill="none" xmlns="http://www.w3.org/2000/svg">
<path d="M1.5415 6.50033C1.5415 6.50033 3.70817 2.16699 7.49984 2.16699C11.2915 2.16699 13.4582 6.50033 13.4582 6.50033C13.4582 6.50033 11.2915 10.8337 7.49984 10.8337C3.70817 10.8337 1.5415 6.50033 1.5415 6.50033Z" stroke="#C0C1C3" stroke-linecap="round" stroke-linejoin="round"/>
<path d="M7.5 8.125C8.39746 8.125 9.125 7.39746 9.125 6.5C9.125 5.60254 8.39746 4.875 7.5 4.875C6.60254 4.875 5.875 5.60254 5.875 6.5C5.875 7.39746 6.60254 8.125 7.5 8.125Z" stroke="#C0C1C3" stroke-linecap="round" stroke-linejoin="round"/>
<path d="M6 10C6 12.2091 4.433 14 2.5 14C0.567003 14 0 12.2091 0 10C0 7.79086 0.567003 6 2.5 6C4.433 6 6 7.79086 6 10Z" fill="#21242C"/>
<path d="M0.123148 10.7971L2.20477 12.8812C2.24436 12.9191 2.29105 12.9489 2.34215 12.9687C2.44351 13.0104 2.5572 13.0104 2.65856 12.9687C2.70966 12.9489 2.75635 12.9191 2.79594 12.8812L4.87756 10.7971C4.91638 10.7583 4.94717 10.7121 4.96818 10.6614C4.98919 10.6106 5 10.5562 5 10.5012C5 10.3902 4.95596 10.2838 4.87756 10.2053C4.79917 10.1268 4.69284 10.0827 4.58197 10.0827C4.47111 10.0827 4.36478 10.1268 4.28638 10.2053L2.91668 11.5808V7.41681C2.91668 7.30626 2.87282 7.20025 2.79474 7.12208C2.71666 7.04391 2.61077 7 2.50036 7C2.38994 7 2.28405 7.04391 2.20597 7.12208C2.12789 7.20025 2.08403 7.30626 2.08403 7.41681V11.5808L0.714327 10.2053C0.675624 10.1662 0.629579 10.1352 0.578846 10.114C0.528113 10.0929 0.473697 10.082 0.418738 10.082C0.363778 10.082 0.309362 10.0929 0.258629 10.114C0.207897 10.1352 0.161851 10.1662 0.123148 10.2053C0.0841269 10.244 0.0531545 10.2901 0.0320182 10.3409C0.0108819 10.3917 0 10.4462 0 10.5012C0 10.5562 0.0108819 10.6107 0.0320182 10.6615C0.0531545 10.7123 0.0841269 10.7584 0.123148 10.7971Z" fill="#C0C1C3"/>
</svg>
