<svg width="24" height="24" viewBox="0 0 24 24" fill="none" xmlns="http://www.w3.org/2000/svg">
<path d="M11.999 8C7.58091 8 3.99902 9.81517 3.99902 12.0542C3.99902 14.2933 7.58091 16.1084 11.999 16.1084C16.4171 16.1084 19.999 14.2933 19.999 12.0542C19.999 9.81517 16.4171 8 11.999 8ZM9.91738 12.8441C9.72646 13.0227 9.51446 13.0964 9.28098 13.1724C9.04751 13.2484 8.75039 13.2327 8.38911 13.2327H7.57031L7.34338 14.5422H6.38734L7.24045 10.09H9.07893C9.63205 10.09 10.0355 10.2491 10.2891 10.5394C10.5428 10.8297 10.619 11.2418 10.5179 11.7621C10.4761 11.9764 10.4058 12.1757 10.3066 12.3533C10.2037 12.5365 10.0723 12.7022 9.91738 12.8441ZM12.708 13.2327L13.0852 11.3445C13.1282 11.1234 13.1125 10.9592 13.0379 10.879C12.9633 10.7986 12.8046 10.7448 12.562 10.7448H11.8038L11.3152 13.2327H10.3667L11.2198 8.91151H12.1683L11.9415 10.09H12.7865C13.3183 10.09 13.685 10.1967 13.8867 10.3822C14.0885 10.5676 14.149 10.8216 14.0684 11.237L13.6715 13.2327H12.708ZM17.9797 11.769C17.9381 11.9834 17.8676 12.1793 17.7685 12.3567C17.6692 12.5344 17.5396 12.6969 17.3795 12.8441C17.1885 13.0227 16.9764 13.0964 16.7431 13.1724C16.5097 13.2484 16.2123 13.2327 15.8511 13.2327H15.0323L14.8055 14.5422H13.8494L14.7024 10.09H16.541C17.0941 10.09 17.4976 10.2491 17.7511 10.5394C18.0045 10.8297 18.0808 11.2489 17.9797 11.769ZM16.1787 10.7448H15.5238L15.1667 12.578H15.7484C16.1336 12.578 16.4209 12.54 16.6095 12.3947C16.7983 12.2496 16.9255 12.0244 16.9916 11.6848C17.055 11.3586 17.0262 11.1042 16.9052 10.9701C16.784 10.836 16.5419 10.7448 16.1787 10.7448ZM8.71674 10.7448H8.06175L7.70466 12.578H8.28619C8.67156 12.578 8.95872 12.54 9.14742 12.3947C9.33611 12.2496 9.46339 12.0244 9.52939 11.6848C9.59276 11.3586 9.56396 11.1042 9.44296 10.9701C9.32197 10.836 9.07998 10.7448 8.71674 10.7448Z" fill="#6181B6"/>
</svg>
