<svg width="24" height="24" viewBox="0 0 24 24" fill="none" xmlns="http://www.w3.org/2000/svg">
<g clip-path="url(#php_clip0)">
<path d="M1.27724 12.144C1.27724 15.2095 6.00156 17.6947 11.8291 17.6947C17.6566 17.6947 22.3809 15.2095 22.3809 12.144C22.3809 9.07854 17.6566 6.59335 11.8291 6.59335C6.00156 6.59335 1.27724 9.07854 1.27724 12.144Z" fill="url(#php_paint0_radial)"/>
<path d="M11.8291 17.2826C17.429 17.2826 21.9687 14.9819 21.9687 12.144C21.9687 9.3061 17.429 7.00544 11.8291 7.00544C6.22918 7.00544 1.68943 9.3061 1.68943 12.144C1.68943 14.9819 6.22918 17.2826 11.8291 17.2826Z" fill="#777BB3"/>
<path d="M7.01017 12.7811C7.47063 12.7811 7.81438 12.6962 8.03188 12.5288C8.24706 12.3631 8.39567 12.0761 8.47357 11.6757C8.54619 11.3015 8.51852 11.0402 8.39136 10.8991C8.26133 10.7551 7.98021 10.682 7.55581 10.682H6.81996L6.41201 12.7811H7.01017ZM4.60338 15.3668C4.56922 15.3668 4.53678 15.3515 4.51506 15.3251C4.49331 15.2987 4.48449 15.264 4.49102 15.2305L5.57216 9.66789C5.58261 9.61412 5.62975 9.57527 5.68455 9.57527H8.01467C8.74698 9.57527 9.29205 9.77411 9.63466 10.1663C9.97909 10.5606 10.0855 11.1117 9.95078 11.8044C9.89597 12.0866 9.8017 12.3487 9.67061 12.5833C9.53936 12.8182 9.3659 13.0356 9.15496 13.2294C8.90246 13.4658 8.61668 13.6371 8.30633 13.738C8.00089 13.8374 7.60863 13.8879 7.14047 13.8879H6.19695L5.92751 15.2741C5.91705 15.3279 5.86996 15.3668 5.81515 15.3668H4.60338Z" fill="black"/>
<path d="M6.91435 10.7965H7.55582C8.06803 10.7965 8.24596 10.9089 8.30641 10.9759C8.40671 11.0871 8.42564 11.3216 8.36118 11.654C8.28874 12.0261 8.15448 12.2899 7.96205 12.4381C7.76504 12.5897 7.44476 12.6666 7.01018 12.6666H6.5509L6.91435 10.7965ZM8.01468 9.46075H5.68452C5.57491 9.46075 5.48068 9.53846 5.45977 9.64604L4.37863 15.2086C4.36558 15.2757 4.38321 15.3452 4.42668 15.398C4.47019 15.4507 4.53499 15.4813 4.60339 15.4813H5.81512C5.92477 15.4813 6.019 15.4036 6.03991 15.296L6.29134 14.0024H7.14047C7.62066 14.0024 8.02491 13.95 8.34187 13.8468C8.66783 13.7409 8.96773 13.5613 9.23317 13.3131C9.45269 13.1111 9.63352 12.8844 9.77053 12.6392C9.90758 12.3939 10.006 12.1204 10.0632 11.8262C10.205 11.0971 10.0898 10.5133 9.72088 10.091C9.35556 9.6728 8.78149 9.46075 8.01468 9.46075ZM6.2731 12.8956H7.01018C7.49873 12.8956 7.86263 12.8036 8.10173 12.6195C8.34087 12.4354 8.50216 12.1281 8.58597 11.6976C8.66615 11.2842 8.62963 10.9924 8.4764 10.8225C8.32297 10.6525 8.01617 10.5675 7.55582 10.5675H6.72558L6.2731 12.8956V12.8956ZM8.01468 9.68974C8.71565 9.68974 9.22702 9.8737 9.54845 10.2416C9.86984 10.6096 9.96662 11.1232 9.83839 11.7826C9.78561 12.0542 9.69634 12.3025 9.57066 12.5275C9.44483 12.7526 9.28053 12.9585 9.07749 13.1452C8.83553 13.3716 8.56673 13.5329 8.27096 13.629C7.97518 13.7254 7.59845 13.7734 7.14047 13.7734H6.10254L5.81512 15.2523H4.60339L5.68452 9.68974H8.01468" fill="white"/>
<path d="M12.7291 13.8879C12.6949 13.8879 12.6625 13.8726 12.6408 13.8462C12.619 13.8199 12.6102 13.7852 12.6167 13.7516L13.095 11.2904C13.1405 11.0563 13.1292 10.8883 13.0634 10.8173C13.0231 10.7739 12.902 10.7011 12.5441 10.7011H11.6777L11.0764 13.7952C11.0659 13.849 11.0188 13.8879 10.964 13.8879H9.7618C9.72761 13.8879 9.6952 13.8726 9.67345 13.8462C9.6517 13.8199 9.64288 13.7851 9.64941 13.7516L10.7305 8.189C10.741 8.13523 10.7881 8.09638 10.8429 8.09638H12.0451C12.0793 8.09638 12.1117 8.11164 12.1335 8.13802C12.1552 8.16443 12.1641 8.19912 12.1575 8.2327L11.8966 9.57527H12.8287C13.5388 9.57527 14.0202 9.70045 14.3007 9.95799C14.5865 10.2207 14.6757 10.6408 14.5658 11.2067L14.0628 13.7952C14.0523 13.849 14.0052 13.8879 13.9504 13.8879H12.7291Z" fill="black"/>
<path d="M12.0451 7.98186H10.8429C10.7333 7.98186 10.6391 8.05957 10.6182 8.16715L9.53702 13.7297C9.52397 13.7969 9.5416 13.8663 9.58511 13.9191C9.62861 13.9718 9.69342 14.0024 9.76181 14.0024H10.964C11.0736 14.0024 11.1679 13.9247 11.1888 13.8171L11.7721 10.8156H12.5441C12.9014 10.8156 12.9764 10.8919 12.9795 10.8952C13.0011 10.9185 13.0296 11.0265 12.9826 11.2685L12.5043 13.7297C12.4913 13.7969 12.5089 13.8663 12.5524 13.9191C12.5959 13.9718 12.6607 14.0024 12.7291 14.0024H13.9504C14.06 14.0024 14.1543 13.9247 14.1752 13.8171L14.6782 11.2286C14.7962 10.6209 14.6952 10.1651 14.3782 9.8737C14.0756 9.59582 13.5688 9.46075 12.8287 9.46075H12.0355L12.2699 8.25455C12.2829 8.18742 12.2653 8.11796 12.2218 8.06521C12.1783 8.01243 12.1135 7.98186 12.0451 7.98186ZM12.0451 8.21085L11.7577 9.68974H12.8287C13.5026 9.68974 13.9674 9.80737 14.2232 10.0423C14.479 10.2774 14.5557 10.6583 14.4534 11.1849L13.9504 13.7734H12.7291L13.2074 11.3122C13.2618 11.0322 13.2418 10.8413 13.1473 10.7394C13.0528 10.6376 12.8517 10.5866 12.5441 10.5866H11.5833L10.964 13.7734H9.76181L10.8429 8.21085H12.0451Z" fill="white"/>
<path d="M16.468 12.7811C16.9285 12.7811 17.2722 12.6962 17.4897 12.5288C17.7049 12.3632 17.8535 12.0761 17.9314 11.6757C18.0041 11.3015 17.9764 11.0402 17.8492 10.8991C17.7192 10.7551 17.438 10.682 17.0136 10.682H16.2778L15.8698 12.7811H16.468ZM14.0613 15.3668C14.0271 15.3668 13.9947 15.3515 13.9729 15.3251C13.9512 15.2987 13.9423 15.264 13.9489 15.2305L15.03 9.66789C15.0405 9.61412 15.0876 9.57527 15.1424 9.57527H17.4725C18.2049 9.57527 18.7499 9.77411 19.0925 10.1663C19.437 10.5606 19.5433 11.1117 19.4086 11.8044C19.3538 12.0866 19.2595 12.3487 19.1284 12.5833C18.9972 12.8182 18.8237 13.0356 18.6128 13.2294C18.3603 13.4658 18.0745 13.6371 17.7642 13.738C17.4587 13.8374 17.0665 13.8879 16.5983 13.8879H15.6548L15.3854 15.2741C15.3749 15.3279 15.3278 15.3668 15.273 15.3668H14.0613Z" fill="black"/>
<path d="M16.3722 10.7965H17.0137C17.5259 10.7965 17.7038 10.9089 17.7643 10.9759C17.8646 11.0871 17.8835 11.3216 17.819 11.6539C17.7466 12.0261 17.6123 12.2899 17.4199 12.4381C17.2229 12.5897 16.9026 12.6666 16.468 12.6666H16.0088L16.3722 10.7965ZM17.4725 9.46075H15.1424C15.0328 9.46075 14.9386 9.53846 14.9177 9.64604L13.8365 15.2086C13.8235 15.2757 13.8411 15.3452 13.8846 15.398C13.9281 15.4507 13.9929 15.4813 14.0613 15.4813H15.273C15.3826 15.4813 15.4769 15.4036 15.4978 15.296L15.7492 14.0024H16.5983C17.0785 14.0024 17.4828 13.95 17.7997 13.8468C18.1257 13.7409 18.4257 13.5613 18.6911 13.313C18.9106 13.1111 19.0914 12.8844 19.2284 12.6392C19.3654 12.3939 19.4639 12.1204 19.521 11.8262C19.6628 11.0971 19.5476 10.5132 19.1787 10.091C18.8134 9.6728 18.2394 9.46075 17.4725 9.46075ZM15.731 12.8956H16.468C16.9566 12.8956 17.3205 12.8036 17.5596 12.6195C17.7988 12.4354 17.96 12.1281 18.0438 11.6976C18.124 11.2842 18.0875 10.9924 17.9342 10.8225C17.7808 10.6525 17.474 10.5675 17.0137 10.5675H16.1834L15.731 12.8956ZM17.4725 9.68974C18.1735 9.68974 18.6849 9.8737 19.0063 10.2416C19.3277 10.6096 19.4245 11.1232 19.2962 11.7826C19.2435 12.0542 19.1542 12.3025 19.0285 12.5275C18.9027 12.7526 18.7384 12.9585 18.5353 13.1452C18.2934 13.3716 18.0246 13.5329 17.7288 13.629C17.433 13.7254 17.0563 13.7734 16.5983 13.7734H15.5604L15.273 15.2523H14.0613L15.1424 9.68974H17.4725" fill="white"/>
</g>
<defs>
<radialGradient id="php_paint0_radial" cx="0" cy="0" r="1" gradientUnits="userSpaceOnUse" gradientTransform="translate(7.61262 8.5448) scale(13.8561)">
<stop stop-color="#AEB2D5"/>
<stop offset="0.3" stop-color="#AEB2D5"/>
<stop offset="0.75" stop-color="#484C89"/>
<stop offset="1" stop-color="#484C89"/>
</radialGradient>
<clipPath id="php_clip0">
<rect width="21.7143" height="11.712" fill="white" transform="translate(0.971931 6.28803)"/>
</clipPath>
</defs>
</svg>
