<svg width="24" height="24" viewBox="0 0 24 24" fill="none" xmlns="http://www.w3.org/2000/svg">
<path d="M11.6687 5.00059C11.112 5.00323 10.5807 5.05056 10.1129 5.13336C8.73509 5.37676 8.4851 5.88622 8.4851 6.8259V8.06672H11.7408V8.48033H7.26313C6.31699 8.48033 5.48846 9.04899 5.22924 10.1312C4.93021 11.3712 4.91703 12.1452 5.22924 13.4401C5.46064 14.404 6.01335 15.0907 6.95962 15.0907H8.07914V13.6032C8.07914 12.5285 9.0088 11.5806 10.113 11.5806H13.3651C14.2703 11.5806 14.9929 10.8351 14.9929 9.92618V6.82603C14.9929 5.94357 14.2485 5.28077 13.3651 5.1335C12.8055 5.04041 12.2252 4.99809 11.6687 5.00059ZM9.90801 5.99855C10.2442 5.99855 10.519 6.27767 10.519 6.62101C10.519 6.96289 10.2444 7.23938 9.90801 7.23938C9.57048 7.23938 9.29716 6.96289 9.29716 6.62101C9.29702 6.27767 9.57048 5.99855 9.90801 5.99855Z" fill="url(#paint0_linear_1960:5407)"/>
<path d="M15.3986 8.48036V9.9262C15.3986 11.0469 14.4482 11.9903 13.3647 11.9903H10.1127C9.22189 11.9903 8.48486 12.7528 8.48486 13.6449V16.7453C8.48486 17.6275 9.25196 18.1465 10.1127 18.3996C11.1432 18.7024 12.1315 18.7573 13.3647 18.3996C14.1843 18.1621 14.9925 17.6845 14.9925 16.7453V15.5043H11.7406V15.0906H16.6206C17.5667 15.0906 17.9195 14.4307 18.2486 13.44C18.5885 12.4201 18.5739 11.4393 18.2486 10.1311C18.0147 9.18904 17.5681 8.48022 16.6206 8.48022H15.3986V8.48036ZM13.5695 16.3315C13.9071 16.3315 14.1804 16.608 14.1804 16.9502C14.1804 17.2932 13.907 17.5723 13.5695 17.5723C13.2332 17.5723 12.9586 17.2932 12.9586 16.9502C12.9586 16.608 13.2332 16.3315 13.5695 16.3315Z" fill="url(#paint1_linear_1960:5407)"/>
<path opacity="0.444" d="M16.1411 19.1544C16.1411 19.6216 14.1877 20.0004 11.7782 20.0004C9.3685 20.0004 7.41504 19.6216 7.41504 19.1544C7.41504 18.6871 9.36837 18.3083 11.7782 18.3083C14.1877 18.3083 16.1411 18.687 16.1411 19.1544Z" fill="url(#paint2_radial_1960:5407)"/>
<defs>
<linearGradient id="paint0_linear_1960:5407" x1="4.67362" y1="5.38857" x2="12.1829" y2="11.7924" gradientUnits="userSpaceOnUse">
<stop stop-color="#5A9FD4"/>
<stop offset="1" stop-color="#306998"/>
</linearGradient>
<linearGradient id="paint1_linear_1960:5407" x1="15.0079" y1="15.7732" x2="12.315" y2="11.9968" gradientUnits="userSpaceOnUse">
<stop stop-color="#FFD43B"/>
<stop offset="1" stop-color="#FFE873"/>
</linearGradient>
<radialGradient id="paint2_radial_1960:5407" cx="0" cy="0" r="1" gradientUnits="userSpaceOnUse" gradientTransform="translate(11.7605 19.1302) rotate(-90) scale(0.846244 3.71995)">
<stop stop-color="#B8B8B8" stop-opacity="0.498"/>
<stop offset="1" stop-color="#7F7F7F" stop-opacity="0"/>
</radialGradient>
</defs>
</svg>
