<svg width="24" height="24" viewBox="0 0 24 24" fill="none" xmlns="http://www.w3.org/2000/svg">
<g clip-path="url(#clip0)">
<path d="M11.927 2C6.84973 2 7.16688 4.20176 7.16688 4.20176L7.1725 6.48284H12.0176V7.16768H5.24804C5.24804 7.16768 1.99902 6.79927 1.99902 11.9222C1.99902 17.0451 4.8349 16.8635 4.8349 16.8635H6.52715V14.4862C6.52715 14.4862 6.43604 11.6505 9.31774 11.6505H14.1232C14.1232 11.6505 16.823 11.6942 16.823 9.04123V4.65457C16.823 4.65457 17.2329 2 11.927 2ZM9.25543 3.53395C9.36993 3.53383 9.48333 3.55629 9.58914 3.60005C9.69495 3.6438 9.79109 3.708 9.87206 3.78895C9.95303 3.86991 10.0172 3.96603 10.061 4.07183C10.1048 4.17763 10.1273 4.29102 10.1272 4.40552C10.1273 4.52004 10.1048 4.63345 10.0611 4.73927C10.0173 4.84509 9.95309 4.94124 9.87212 5.02221C9.79115 5.10318 9.695 5.16739 9.58918 5.21116C9.48336 5.25493 9.36995 5.2774 9.25543 5.27728C9.14092 5.2774 9.0275 5.25493 8.92169 5.21116C8.81587 5.16739 8.71972 5.10318 8.63874 5.02221C8.55777 4.94124 8.49356 4.84509 8.44979 4.73927C8.40603 4.63345 8.38356 4.52004 8.38368 4.40552C8.38356 4.29101 8.40603 4.17759 8.44979 4.07177C8.49356 3.96595 8.55777 3.86981 8.63874 3.78883C8.71972 3.70786 8.81587 3.64365 8.92169 3.59988C9.0275 3.55612 9.14092 3.53365 9.25543 3.53377V3.53395Z" fill="url(#paint0_linear)"/>
<path d="M12.072 21.8959C17.1493 21.8959 16.8321 19.6941 16.8321 19.6941L16.8267 17.413H11.9816V16.7282H18.751C18.751 16.7282 22 17.0966 22 11.9736C22 6.85052 19.1641 7.03219 19.1641 7.03219H17.4719V9.40946C17.4719 9.40946 17.563 12.2453 14.6813 12.2453H9.87601C9.87601 12.2453 7.17598 12.2017 7.17598 14.8546V19.2413C7.17598 19.2413 6.76609 21.8959 12.072 21.8959V21.8959ZM14.7436 20.3619C14.6291 20.362 14.5157 20.3395 14.4099 20.2958C14.3041 20.252 14.208 20.1878 14.1271 20.1068C14.0461 20.0259 13.9819 19.9298 13.9381 19.824C13.8944 19.7182 13.8719 19.6048 13.872 19.4903C13.8719 19.3758 13.8943 19.2624 13.9381 19.1566C13.9818 19.0508 14.046 18.9547 14.127 18.8737C14.2079 18.7927 14.3041 18.7285 14.4099 18.6847C14.5157 18.641 14.6291 18.6185 14.7436 18.6186C14.8581 18.6185 14.9715 18.6409 15.0773 18.6847C15.1831 18.7285 15.2793 18.7927 15.3603 18.8736C15.4412 18.9546 15.5054 19.0508 15.5492 19.1566C15.593 19.2624 15.6154 19.3758 15.6153 19.4903C15.6154 19.6048 15.5929 19.7182 15.5492 19.824C15.5054 19.9298 15.4412 20.0259 15.3602 20.1069C15.2792 20.1879 15.1831 20.2521 15.0773 20.2958C14.9715 20.3396 14.8581 20.362 14.7436 20.3619Z" fill="url(#paint1_linear)"/>
</g>
<defs>
<linearGradient id="paint0_linear" x1="3.92112" y1="3.73898" x2="13.8105" y2="13.6616" gradientUnits="userSpaceOnUse">
<stop stop-color="#387EB8"/>
<stop offset="1" stop-color="#366994"/>
</linearGradient>
<linearGradient id="paint1_linear" x1="10.0055" y1="10.0514" x2="20.6267" y2="20.227" gradientUnits="userSpaceOnUse">
<stop stop-color="#FFE052"/>
<stop offset="1" stop-color="#FFC331"/>
</linearGradient>
<clipPath id="clip0">
<rect width="20" height="19.8959" fill="white" transform="translate(2 2)"/>
</clipPath>
</defs>
</svg>
