<svg width="24" height="24" viewBox="0 0 24 24" fill="none" xmlns="http://www.w3.org/2000/svg">
<g clip-path="url(#clip0_1960:5404)">
<path fill-rule="evenodd" clip-rule="evenodd" d="M8.3418 18.1562L17.6172 17.5267L18.3315 8.17407L15.5053 13.9026L8.3418 18.1562Z" fill="url(#paint0_linear_1960:5404)"/>
<path fill-rule="evenodd" clip-rule="evenodd" d="M14.6636 14.8855L17.6323 17.5205L16.835 12.0181L14.6636 14.8855Z" fill="url(#paint1_linear_1960:5404)"/>
<path fill-rule="evenodd" clip-rule="evenodd" d="M8.37305 18.1443L17.6434 17.5205L11.8028 17.062L8.37305 18.1443Z" fill="url(#paint2_linear_1960:5404)"/>
<path fill-rule="evenodd" clip-rule="evenodd" d="M6.62939 14.0522L8.381 18.1456L9.84004 13.3657L6.62939 14.0522Z" fill="url(#paint3_linear_1960:5404)"/>
<path fill-rule="evenodd" clip-rule="evenodd" d="M9.47852 13.2439L14.663 14.9012L13.3205 9.64258L9.47852 13.2439Z" fill="url(#paint4_linear_1960:5404)"/>
<path fill-rule="evenodd" clip-rule="evenodd" d="M13.3838 10.02L18.0269 9.7167L14.3951 6.75049L13.3838 10.02Z" fill="url(#paint5_linear_1960:5404)"/>
<path fill-rule="evenodd" clip-rule="evenodd" d="M12.8447 5.67725L16.3283 5.69308L14.1923 6.87348L12.8447 5.67725Z" fill="url(#paint6_linear_1960:5404)"/>
<path fill-rule="evenodd" clip-rule="evenodd" d="M5.95565 12.0796L5.78467 15.6556L6.67947 14.0237L5.95565 12.0796Z" fill="url(#paint7_linear_1960:5404)"/>
<path fill-rule="evenodd" clip-rule="evenodd" d="M5.90771 12.0181L6.63597 14.0838L9.80229 13.3739L13.4151 10.0176L14.4346 6.7791L12.8274 5.64429L10.098 6.66574C9.23805 7.46555 7.5694 9.04808 7.50924 9.07784C7.44908 9.10761 6.40736 11.0783 5.90771 12.0181Z" fill="white"/>
<path fill-rule="evenodd" clip-rule="evenodd" d="M8.4648 8.30717C10.3285 6.45931 12.7311 5.36756 13.6531 6.29782C14.5752 7.22809 13.5974 9.48884 11.7337 11.3361C9.87001 13.1833 7.49464 14.3352 6.57577 13.4049C5.65691 12.4747 6.6011 10.1544 8.4648 8.30717Z" fill="url(#paint8_linear_1960:5404)"/>
<path fill-rule="evenodd" clip-rule="evenodd" d="M8.38086 18.1437L9.8285 13.3486L14.6362 14.8932C12.8979 16.5232 10.9646 17.9012 8.38086 18.1437Z" fill="url(#paint9_linear_1960:5404)"/>
<path fill-rule="evenodd" clip-rule="evenodd" d="M13.4194 10.0069L14.6537 14.8957C16.107 13.3702 17.409 11.7275 18.0473 9.69727L13.4194 10.0069Z" fill="url(#paint10_linear_1960:5404)"/>
<path fill-rule="evenodd" clip-rule="evenodd" d="M18.0347 9.72185C18.5287 8.23115 18.6401 6.09261 16.3135 5.69556L14.4023 6.75121L18.0347 9.72185Z" fill="url(#paint11_linear_1960:5404)"/>
<path fill-rule="evenodd" clip-rule="evenodd" d="M5.78467 15.6341C5.85306 18.0943 7.6281 18.1311 8.38422 18.1526L6.63767 14.0737L5.78467 15.6341Z" fill="#AA3E35"/>
<path fill-rule="evenodd" clip-rule="evenodd" d="M13.4263 10.0138C14.5421 10.6997 16.7908 12.077 16.8364 12.1036C16.9073 12.1435 17.8059 10.5882 18.0098 9.70923L13.4263 10.0138Z" fill="url(#paint12_radial_1960:5404)"/>
<path fill-rule="evenodd" clip-rule="evenodd" d="M9.82666 13.3486L11.7619 17.0849C12.9062 16.4643 13.8023 15.7082 14.623 14.8982L9.82666 13.3486Z" fill="url(#paint13_radial_1960:5404)"/>
<path fill-rule="evenodd" clip-rule="evenodd" d="M6.62996 14.0787L6.35449 17.3438C6.87187 18.0505 7.58366 18.112 8.33028 18.0569C7.79137 16.7124 6.71229 14.0242 6.62996 14.0787Z" fill="url(#paint14_linear_1960:5404)"/>
<path fill-rule="evenodd" clip-rule="evenodd" d="M14.3906 6.75953L18.2352 7.29907C18.03 6.4296 17.3999 5.86853 16.3259 5.69312L14.3906 6.75953Z" fill="url(#paint15_linear_1960:5404)"/>
</g>
<defs>
<linearGradient id="paint0_linear_1960:5404" x1="16.8079" y1="19.2936" x2="14.1609" y2="14.6201" gradientUnits="userSpaceOnUse">
<stop stop-color="#F68F71"/>
<stop offset="0.41" stop-color="#DC5242"/>
<stop offset="0.99" stop-color="#A72C32"/>
<stop offset="1" stop-color="#A72C32"/>
</linearGradient>
<linearGradient id="paint1_linear_1960:5404" x1="18.1263" y1="15.3687" x2="14.7155" y2="13.0794" gradientUnits="userSpaceOnUse">
<stop stop-color="#9B3F34"/>
<stop offset="0.99" stop-color="#A23E36"/>
<stop offset="1" stop-color="#A23E36"/>
</linearGradient>
<linearGradient id="paint2_linear_1960:5404" x1="1415.52" y1="252.754" x2="1394.25" y2="130.484" gradientUnits="userSpaceOnUse">
<stop stop-color="#9B3F34"/>
<stop offset="0.99" stop-color="#A23E36"/>
<stop offset="1" stop-color="#A23E36"/>
</linearGradient>
<linearGradient id="paint3_linear_1960:5404" x1="8.23535" y1="13.7115" x2="8.76413" y2="17.1482" gradientUnits="userSpaceOnUse">
<stop stop-color="white"/>
<stop offset="0.23" stop-color="#E28B6F"/>
<stop offset="0.46" stop-color="#DA6144"/>
<stop offset="0.99" stop-color="#A60003"/>
<stop offset="1" stop-color="#A60003"/>
</linearGradient>
<linearGradient id="paint4_linear_1960:5404" x1="11.8723" y1="10.5019" x2="12.0673" y2="14.0096" gradientUnits="userSpaceOnUse">
<stop stop-color="white"/>
<stop offset="0.23" stop-color="#E08A6D"/>
<stop offset="0.56" stop-color="#C14435"/>
<stop offset="0.99" stop-color="#B13430"/>
<stop offset="1" stop-color="#B13430"/>
</linearGradient>
<linearGradient id="paint5_linear_1960:5404" x1="15.0999" y1="7.26027" x2="15.6838" y2="9.77432" gradientUnits="userSpaceOnUse">
<stop stop-color="white"/>
<stop offset="0.18" stop-color="#DF8063"/>
<stop offset="0.4" stop-color="#C94D37"/>
<stop offset="0.99" stop-color="#B13430"/>
<stop offset="1" stop-color="#B13430"/>
</linearGradient>
<linearGradient id="paint6_linear_1960:5404" x1="13.319" y1="6.3751" x2="15.8325" y2="5.11807" gradientUnits="userSpaceOnUse">
<stop stop-color="white"/>
<stop offset="0.54" stop-color="#C94838"/>
<stop offset="0.99" stop-color="#C12D2F"/>
<stop offset="1" stop-color="#C12D2F"/>
</linearGradient>
<linearGradient id="paint7_linear_1960:5404" x1="6.03164" y1="12.8357" x2="6.23872" y2="14.9071" gradientUnits="userSpaceOnUse">
<stop stop-color="white"/>
<stop offset="0.31" stop-color="#DA6548"/>
<stop offset="0.99" stop-color="#C14433"/>
<stop offset="1" stop-color="#C14433"/>
</linearGradient>
<linearGradient id="paint8_linear_1960:5404" x1="4.60949" y1="15.4669" x2="14.3345" y2="5.46635" gradientUnits="userSpaceOnUse">
<stop stop-color="#BD0012"/>
<stop offset="0.07" stop-color="white"/>
<stop offset="0.17" stop-color="white"/>
<stop offset="0.27" stop-color="#C95841"/>
<stop offset="0.33" stop-color="#983734"/>
<stop offset="0.46" stop-color="#AE4231"/>
<stop offset="0.72" stop-color="#B93E2F"/>
<stop offset="0.99" stop-color="#DE4E2B"/>
<stop offset="1" stop-color="#DE4E2B"/>
</linearGradient>
<linearGradient id="paint9_linear_1960:5404" x1="12.0589" y1="16.4751" x2="9.12938" y2="15.7525" gradientUnits="userSpaceOnUse">
<stop stop-color="#9F3633"/>
<stop offset="0.54" stop-color="#A73532"/>
<stop offset="0.99" stop-color="#B13439"/>
<stop offset="1" stop-color="#B13439"/>
</linearGradient>
<linearGradient id="paint10_linear_1960:5404" x1="17.0905" y1="12.9592" x2="14.4877" y2="10.6269" gradientUnits="userSpaceOnUse">
<stop stop-color="#923C36"/>
<stop offset="0.99" stop-color="#AA3531"/>
<stop offset="1" stop-color="#AA3531"/>
</linearGradient>
<linearGradient id="paint11_linear_1960:5404" x1="18.0461" y1="8.68013" x2="16.7499" y2="7.29392" gradientUnits="userSpaceOnUse">
<stop stop-color="#8D3E36"/>
<stop offset="0.99" stop-color="#AA3E37"/>
<stop offset="1" stop-color="#AA3E37"/>
</linearGradient>
<radialGradient id="paint12_radial_1960:5404" cx="0" cy="0" r="1" gradientUnits="userSpaceOnUse" gradientTransform="translate(14.8929 10.6718) scale(3.18912)">
<stop stop-color="#B13430"/>
<stop offset="0.99" stop-color="#923934"/>
<stop offset="1" stop-color="#923934"/>
</radialGradient>
<radialGradient id="paint13_radial_1960:5404" cx="0" cy="0" r="1" gradientUnits="userSpaceOnUse" gradientTransform="translate(10.4764 14.8742) scale(4.2397)">
<stop stop-color="#AE3531"/>
<stop offset="0.99" stop-color="#953A36"/>
<stop offset="1" stop-color="#953A36"/>
</radialGradient>
<linearGradient id="paint14_linear_1960:5404" x1="7.47347" y1="18.1411" x2="6.41719" y2="14.5568" gradientUnits="userSpaceOnUse">
<stop stop-color="#994939"/>
<stop offset="0.43" stop-color="#AA3A36"/>
<stop offset="0.99" stop-color="#B83936"/>
<stop offset="1" stop-color="#B83936"/>
</linearGradient>
<linearGradient id="paint15_linear_1960:5404" x1="15.5774" y1="6.26495" x2="17.9458" y2="7.31047" gradientUnits="userSpaceOnUse">
<stop stop-color="#B9392F"/>
<stop offset="0.44" stop-color="#A23A36"/>
<stop offset="0.99" stop-color="#8D463A"/>
<stop offset="1" stop-color="#8D463A"/>
</linearGradient>
<clipPath id="clip0_1960:5404">
<rect width="12.5469" height="12.512" fill="white" transform="translate(5.78467 5.64429)"/>
</clipPath>
</defs>
</svg>
