<svg width="24" height="24" viewBox="0 0 24 24" fill="none" xmlns="http://www.w3.org/2000/svg">
<path d="M19.5347 16.4329C19.6259 16.4709 19.7088 16.5266 19.7784 16.5968C19.8486 16.6665 19.9044 16.7493 19.9424 16.8406C19.9804 16.9319 20 17.0298 20 17.1287C20 17.2276 19.9804 17.3255 19.9424 17.4168C19.9044 17.508 19.8486 17.5909 19.7784 17.6605L16.7821 20.6568C16.7125 20.727 16.6296 20.7828 16.5384 20.8208C16.4471 20.8588 16.3492 20.8784 16.2503 20.8784C16.1514 20.8784 16.0535 20.8588 15.9622 20.8208C15.8709 20.7828 15.7881 20.727 15.7184 20.6568L14.2203 19.1587C14.1505 19.0888 14.0951 19.0059 14.0573 18.9147C14.0195 18.8234 14 18.7256 14 18.6268C14 18.5281 14.0195 18.4302 14.0573 18.339C14.0951 18.2477 14.1505 18.1648 14.2203 18.095C14.2901 18.0251 14.3731 17.9697 14.4643 17.9319C14.5556 17.8941 14.6534 17.8747 14.7521 17.8747C14.8509 17.8747 14.9487 17.8941 15.04 17.9319C15.1312 17.9697 15.2141 18.0251 15.284 18.095L16.2503 19.0688L18.7147 16.5968C18.7844 16.5266 18.8672 16.4709 18.9585 16.4329C19.0498 16.3948 19.1477 16.3753 19.2466 16.3753C19.3455 16.3753 19.4434 16.3948 19.5347 16.4329Z" fill="#33CB9A"/>
<path fill-rule="evenodd" clip-rule="evenodd" d="M18.5166 8.37584L19.21 7.69C19.3983 7.5017 19.5041 7.2463 19.5041 6.98C19.5041 6.7137 19.3983 6.4583 19.21 6.27C19.0217 6.0817 18.7663 5.97591 18.5 5.97591C18.2337 5.97591 17.9783 6.0817 17.79 6.27L16.9331 7.13649C16.9093 7.16056 16.8765 7.17353 16.8491 7.1537C16.531 6.92381 14.5608 5.5 12 5.5C9.29368 5.5 7.00129 7.07908 7.09994 7.17991L6.19003 6.26C6.0004 6.0717 5.74373 5.96644 5.47649 5.96737C5.20925 5.96831 4.95333 6.07537 4.76503 6.265C4.57672 6.45463 4.47146 6.7113 4.4724 6.97854C4.47334 7.24578 4.5804 7.5017 4.77003 7.69C4.91427 7.83324 5.37139 8.2851 5.58194 8.49319C5.64189 8.55244 5.66503 8.65323 5.62246 8.72598C5.30081 9.27572 4.00517 11.4901 4.00003 13.5C3.99676 14.7754 4.29849 16.0331 4.88005 17.1683C5.46161 18.3034 6.30614 19.283 7.34322 20.0254C8.38029 20.7679 9.57985 21.2516 10.8418 21.4362C11.2073 21.4897 11.5749 21.5176 11.9421 21.5203C12.4779 21.5242 12.8697 21.0491 12.8341 20.5145L12.8141 20.2148C12.7865 19.8009 12.4149 19.5 12 19.5C10.8133 19.5 9.6533 19.1481 8.6666 18.4888C7.67991 17.8295 6.91087 16.8925 6.45675 15.7961C6.00262 14.6997 5.8838 13.4933 6.11531 12.3295C6.34683 11.1656 6.91827 10.0965 7.75739 9.25736C8.5965 8.41824 9.6656 7.8468 10.8295 7.61529C11.9934 7.38378 13.1998 7.5026 14.2961 7.95672C15.3925 8.41085 16.3296 9.17988 16.9888 10.1666C17.6481 11.1533 18 12.3133 18 13.5C18 14.0106 18.4404 14.4516 18.9432 14.3629L19.2494 14.3089C19.6756 14.2337 20.0036 13.8803 19.9997 13.4475C19.9953 12.9717 19.9485 12.4957 19.859 12.0251C19.6744 11.055 18.7871 9.47382 18.4377 8.85122C18.3553 8.7043 18.3968 8.49431 18.5166 8.37584ZM10 4.5H14C14.2652 4.5 14.5196 4.39464 14.7071 4.20711C14.8947 4.01957 15 3.76522 15 3.5C15 3.23478 14.8947 2.98043 14.7071 2.79289C14.5196 2.60536 14.2652 2.5 14 2.5H10C9.73481 2.5 9.48046 2.60536 9.29292 2.79289C9.10538 2.98043 9.00003 3.23478 9.00003 3.5C9.00003 3.76522 9.10538 4.01957 9.29292 4.20711C9.48046 4.39464 9.73481 4.5 10 4.5ZM9.99967 8.33329C9.53943 8.33329 9.16633 8.70638 9.16633 9.16662V11.6666C9.16633 12.1269 9.53943 12.5 9.99967 12.5C10.4599 12.5 10.833 12.1269 10.833 11.6666V9.16662C10.833 8.70638 10.4599 8.33329 9.99967 8.33329Z" fill="currentColor"/>
</svg>
