<svg width="24" height="24" viewBox="0 0 24 24" fill="none" xmlns="http://www.w3.org/2000/svg">
<path fill-rule="evenodd" clip-rule="evenodd" d="M18.5166 8.37584L19.21 7.69C19.3983 7.5017 19.5041 7.24631 19.5041 6.98C19.5041 6.7137 19.3983 6.45831 19.21 6.27C19.0217 6.0817 18.7663 5.97591 18.5 5.97591C18.2337 5.97591 17.9783 6.0817 17.79 6.27L16.9331 7.13649C16.9093 7.16056 16.8765 7.17353 16.8491 7.1537C16.531 6.92382 14.5608 5.5 12 5.5C9.29368 5.5 7.00129 7.07909 7.09994 7.17992L6.19003 6.26C6.0004 6.0717 5.74373 5.96644 5.47649 5.96738C5.20925 5.96831 4.95333 6.07537 4.76503 6.265C4.57672 6.45463 4.47146 6.7113 4.4724 6.97854C4.47334 7.24578 4.5804 7.5017 4.77003 7.69C4.91427 7.83324 5.37139 8.2851 5.58194 8.49319C5.64189 8.55244 5.66503 8.65323 5.62246 8.72598C5.30081 9.27572 4.00517 11.4901 4.00003 13.5C3.99676 14.7754 4.29849 16.0331 4.88005 17.1683C5.46161 18.3034 6.30614 19.283 7.34322 20.0254C8.38029 20.7679 9.57985 21.2516 10.8418 21.4362C11.27 21.4988 11.701 21.5265 12.1309 21.5194C12.6291 21.5113 13.0002 21.084 13.0002 20.5858L13.0002 20.4209C13.0001 19.8953 12.5256 19.5 12 19.5C10.8133 19.5 9.6533 19.1481 8.6666 18.4888C7.67991 17.8295 6.91087 16.8925 6.45675 15.7961C6.00262 14.6997 5.8838 13.4933 6.11531 12.3295C6.34683 11.1656 6.91827 10.0965 7.75739 9.25736C8.5965 8.41825 9.6656 7.8468 10.8295 7.61529C11.9934 7.38378 13.1998 7.5026 14.2961 7.95673C15.3925 8.41085 16.3296 9.17989 16.9888 10.1666C17.6481 11.1533 18 12.3133 18 13.5C18 13.6199 17.9964 13.7393 17.9893 13.8583C17.9489 14.5344 18.4827 15.1829 19.1564 15.1132C19.5708 15.0704 19.9141 14.7617 19.9572 14.3473C20.0374 13.5752 20.0051 12.7929 19.859 12.0251C19.6744 11.055 18.7871 9.47383 18.4377 8.85123C18.3553 8.70431 18.3968 8.49431 18.5166 8.37584ZM10 4.5H14C14.2652 4.5 14.5196 4.39465 14.7071 4.20711C14.8947 4.01957 15 3.76522 15 3.5C15 3.23479 14.8947 2.98043 14.7071 2.7929C14.5196 2.60536 14.2652 2.5 14 2.5H10C9.73481 2.5 9.48046 2.60536 9.29292 2.7929C9.10538 2.98043 9.00003 3.23479 9.00003 3.5C9.00003 3.76522 9.10538 4.01957 9.29292 4.20711C9.48046 4.39465 9.73481 4.5 10 4.5ZM9.99967 8.33329C9.53943 8.33329 9.16633 8.70639 9.16633 9.16662V11.6666C9.16633 12.1269 9.53943 12.5 9.99967 12.5C10.4599 12.5 10.833 12.1269 10.833 11.6666V9.16662C10.833 8.70639 10.4599 8.33329 9.99967 8.33329Z" fill="currentColor"/>
<path d="M16.6697 20.53C16.7257 20.5695 16.7793 20.6124 16.8301 20.6584C16.9246 20.7623 17.0006 20.8817 17.0547 21.0113C17.1171 21.1577 17.146 21.3162 17.1393 21.4752C17.1326 21.6342 17.0905 21.7897 17.0161 21.9304C16.9418 22.0711 16.8369 22.1934 16.7093 22.2884C16.5816 22.3834 16.4344 22.4488 16.2783 22.4796C16.1222 22.5105 15.9611 22.5062 15.8069 22.467C15.6527 22.4278 15.5091 22.3546 15.3868 22.2529C15.2644 22.1511 15.1663 22.0234 15.0995 21.8789C15.0328 21.7345 14.9992 21.5769 15.001 21.4178C14.994 21.2703 15.0234 21.1234 15.0866 20.9899C15.1346 20.8572 15.2113 20.7367 15.3111 20.6368C15.4109 20.537 15.5315 20.4604 15.6642 20.4123C15.86 20.3298 16.076 20.3074 16.2846 20.3482L16.4771 20.4337C16.5453 20.4571 16.61 20.4895 16.6697 20.53Z" fill="#F6D87C"/>
<path d="M15.3143 15.3133C15.5149 15.1127 15.787 15 16.0707 15C16.3543 15 16.6264 15.1127 16.827 15.3133C17.0276 15.5139 17.1403 15.7859 17.1403 16.0696V18.2089C17.1403 18.4926 17.0276 18.7646 16.827 18.9652C16.6264 19.1658 16.3543 19.2785 16.0707 19.2785C15.787 19.2785 15.5149 19.1658 15.3143 18.9652C15.1137 18.7646 15.001 18.4926 15.001 18.2089V16.0696C15.001 15.7859 15.1137 15.5139 15.3143 15.3133Z" fill="#F6D87C"/>
</svg>
