<svg width="24" height="25" viewBox="0 0 24 25" fill="none" xmlns="http://www.w3.org/2000/svg">
<path d="M19.5076 11.9379L18.8634 11.5417C18.858 11.4795 18.8516 11.4172 18.8452 11.3549L19.3959 10.8417C19.4236 10.8162 19.4443 10.7839 19.456 10.7481C19.4677 10.7123 19.4699 10.6741 19.4626 10.6371C19.4553 10.6002 19.4386 10.5657 19.4141 10.537C19.3897 10.5084 19.3583 10.4865 19.3229 10.4734L18.6186 10.2115C18.6014 10.1503 18.5821 10.0901 18.5639 10.0289L19.003 9.41911C19.0265 9.3891 19.0416 9.35337 19.0467 9.31559C19.0519 9.27781 19.0469 9.23934 19.0322 9.20414C19.0176 9.16894 18.9938 9.13827 18.9634 9.11529C18.933 9.09232 18.897 9.07785 18.8591 9.07339L18.1172 8.95206C18.0882 8.89623 18.0582 8.8447 18.0281 8.78565L18.3405 8.10065C18.356 8.06625 18.3624 8.02849 18.3592 7.99093C18.356 7.95336 18.3433 7.91723 18.3223 7.88592C18.3019 7.85447 18.2736 7.8289 18.2403 7.81175C18.2069 7.79461 18.1697 7.7865 18.1322 7.78822L17.3807 7.81506C17.342 7.76567 17.3023 7.71736 17.2615 7.67012L17.4354 6.93681C17.4442 6.9001 17.4433 6.86177 17.433 6.82548C17.4227 6.78919 17.4032 6.75618 17.3764 6.72959C17.3496 6.70307 17.3166 6.68375 17.2804 6.67342C17.2441 6.6631 17.2059 6.66211 17.1692 6.67054L16.4359 6.84448C16.3886 6.80368 16.3403 6.76395 16.2909 6.7253L16.3178 5.97374C16.3197 5.93611 16.3117 5.89865 16.2945 5.8651C16.2774 5.83156 16.2517 5.80311 16.2201 5.78263C16.1888 5.76162 16.1526 5.74893 16.1151 5.74573C16.0775 5.74254 16.0397 5.74896 16.0053 5.76438L15.3214 6.07681L15.155 5.9877L15.0347 5.24473C15.0291 5.20761 15.0139 5.17261 14.9905 5.14322C14.9672 5.11383 14.9365 5.09108 14.9016 5.07724C14.8667 5.06264 14.8286 5.05724 14.791 5.06156C14.7534 5.06589 14.7176 5.07979 14.6869 5.10193L14.0792 5.53891C14.0191 5.51958 13.9589 5.50133 13.8977 5.48415L13.6358 4.77983C13.6241 4.743 13.6028 4.70998 13.5739 4.68427C13.5451 4.65856 13.5099 4.6411 13.472 4.63373C13.434 4.62637 13.3948 4.62937 13.3585 4.64242C13.3221 4.65547 13.2899 4.67809 13.2654 4.7079L12.7543 5.25761L12.5675 5.24473L12.1713 4.60053C12.1518 4.56804 12.1243 4.5411 12.0914 4.5223C12.0585 4.5035 12.0213 4.49347 11.9834 4.49317C11.9456 4.49302 11.9084 4.50287 11.8756 4.52172C11.8428 4.54057 11.8155 4.56776 11.7966 4.60053L11.3993 5.24473L11.2125 5.26298L10.6993 4.7079C10.6736 4.68059 10.6415 4.66026 10.6058 4.6488C10.5701 4.63734 10.5321 4.63514 10.4953 4.6424C10.4583 4.6493 10.4237 4.66583 10.395 4.69033C10.3664 4.71483 10.3447 4.74644 10.3321 4.78198L10.0691 5.48415L9.88871 5.53891L9.27887 5.09978C9.24814 5.07773 9.21229 5.06389 9.17471 5.05957C9.13713 5.05525 9.09908 5.06059 9.06414 5.07509C9.02936 5.08941 8.99896 5.11263 8.97597 5.1424C8.95298 5.17217 8.93822 5.20745 8.93315 5.24473L8.81183 5.98555L8.64863 6.07466L7.96149 5.76223C7.92709 5.74681 7.88933 5.74039 7.85177 5.74359C7.8142 5.74678 7.77807 5.75948 7.74676 5.78048C7.71514 5.80097 7.68947 5.82941 7.67232 5.86295C7.65517 5.8965 7.64715 5.93397 7.64906 5.97159L7.67483 6.72315C7.62651 6.7618 7.5782 6.80153 7.53096 6.84233L6.79658 6.6684C6.75986 6.66006 6.72163 6.6611 6.68542 6.67142C6.6492 6.68174 6.61617 6.70101 6.58936 6.72745C6.56232 6.75383 6.54272 6.78689 6.53254 6.82327C6.52236 6.85965 6.52196 6.89808 6.53138 6.93466L6.70317 7.66797L6.58399 7.81291L5.83243 7.78607C5.79488 7.78521 5.75773 7.79393 5.72449 7.8114C5.69124 7.82886 5.66299 7.85451 5.64239 7.88592C5.62087 7.91703 5.60795 7.95327 5.60493 7.99098C5.60191 8.02869 5.60891 8.06652 5.62522 8.10065L5.93443 8.78779C5.90329 8.84362 5.87323 8.89516 5.84424 8.95421L5.10557 9.07339C5.06787 9.07847 5.0322 9.09347 5.0022 9.11687C4.97221 9.14026 4.94897 9.1712 4.93485 9.20652C4.91962 9.2413 4.91388 9.2795 4.91821 9.31722C4.92255 9.35494 4.93681 9.39084 4.95955 9.42125L5.39867 10.0311C5.37935 10.0912 5.3611 10.1524 5.34284 10.2136L4.63852 10.4734C4.60363 10.4871 4.57277 10.5094 4.54884 10.5382C4.52491 10.567 4.5087 10.6014 4.50173 10.6383C4.49475 10.6751 4.49724 10.713 4.50896 10.7486C4.52068 10.7842 4.54125 10.8162 4.56874 10.8417L5.1206 11.3549C5.11308 11.4172 5.10771 11.4795 5.10234 11.5417L4.46137 11.9379C4.42886 11.9577 4.40194 11.9854 4.38315 12.0184C4.36436 12.0515 4.35433 12.0888 4.35401 12.1269C4.35386 12.1647 4.36371 12.2019 4.38256 12.2347C4.40141 12.2675 4.4286 12.2948 4.46137 12.3137L5.10557 12.7099C5.10557 12.7721 5.1163 12.8344 5.12382 12.8967L4.56874 13.4099C4.5413 13.4355 4.52085 13.4676 4.50933 13.5033C4.49781 13.539 4.49561 13.577 4.50292 13.6138C4.51023 13.6506 4.52683 13.6849 4.55112 13.7135C4.57542 13.7421 4.60661 13.764 4.64175 13.7771L5.34606 14.0401C5.36432 14.1013 5.38257 14.1614 5.4019 14.2226L4.95955 14.8325C4.93598 14.8626 4.9209 14.8985 4.91586 14.9365C4.91083 14.9744 4.91603 15.013 4.93092 15.0483C4.94581 15.0835 4.96985 15.1142 5.00056 15.137C5.03126 15.1599 5.06752 15.1741 5.10557 15.1782L5.84854 15.2995C5.87753 15.3554 5.90651 15.4069 5.93765 15.4659L5.62522 16.1499C5.60969 16.1841 5.60314 16.2217 5.60619 16.2591C5.60923 16.2966 5.62176 16.3327 5.64261 16.3639C5.66345 16.3952 5.69191 16.4206 5.72531 16.4378C5.75871 16.455 5.79595 16.4635 5.83351 16.4623L6.58507 16.4355L6.70424 16.5804L6.53246 17.3137C6.52337 17.3502 6.52404 17.3885 6.53441 17.4247C6.54477 17.4609 6.56446 17.4937 6.59151 17.5198C6.61831 17.5463 6.65139 17.5654 6.68763 17.5756C6.72387 17.5857 6.7621 17.5865 6.79872 17.5778L7.53203 17.406C7.57927 17.4468 7.62759 17.4855 7.67697 17.5241L7.65013 18.2757C7.64867 18.3134 7.65689 18.3508 7.67402 18.3843C7.69116 18.4179 7.71662 18.4465 7.74798 18.4674C7.77933 18.4883 7.81553 18.5008 7.85311 18.5037C7.89068 18.5066 7.92837 18.4998 7.96257 18.484L8.64863 18.1748L8.81505 18.2639L8.93637 19.0069C8.94181 19.0442 8.95698 19.0794 8.98035 19.109C9.00372 19.1386 9.03447 19.1615 9.06951 19.1754C9.10429 19.1907 9.14249 19.1964 9.18021 19.1921C9.21793 19.1877 9.25383 19.1735 9.28424 19.1507L9.89408 18.7116C9.9542 18.7309 10.0154 18.7503 10.0766 18.7674L10.3396 19.4718C10.3524 19.5071 10.3741 19.5385 10.4028 19.5628C10.4314 19.5871 10.4659 19.6035 10.5028 19.6103C10.5396 19.6182 10.5778 19.6163 10.6136 19.6048C10.6494 19.5933 10.6815 19.5726 10.7068 19.5448L11.22 18.994L11.4069 19.0122L11.803 19.6564C11.8224 19.6888 11.8498 19.7156 11.8825 19.7344C11.9152 19.7532 11.9521 19.7633 11.9899 19.7638C12.0279 19.7635 12.0652 19.7534 12.0983 19.7346C12.1313 19.7159 12.1591 19.6889 12.1788 19.6564L12.575 19.0122L12.7618 18.994L13.2654 19.5448C13.291 19.5722 13.3233 19.5926 13.359 19.6041C13.3948 19.6156 13.4329 19.6178 13.4698 19.6105C13.5066 19.6032 13.541 19.5866 13.5697 19.5623C13.5983 19.5381 13.6203 19.5069 13.6336 19.4718L13.8999 18.7728C13.9611 18.7556 14.0212 18.7363 14.0824 18.717L14.6923 19.1561C14.7223 19.1796 14.758 19.1947 14.7958 19.1999C14.8335 19.205 14.872 19.2 14.9072 19.1853C14.9424 19.1707 14.9731 19.1469 14.9961 19.1165C15.019 19.0861 15.0335 19.0501 15.038 19.0122L15.1593 18.2693L15.3257 18.1801L16.0096 18.4926C16.0438 18.5084 16.0815 18.5152 16.1191 18.5123C16.1567 18.5094 16.1929 18.4969 16.2242 18.476C16.2556 18.4551 16.281 18.4265 16.2982 18.3929C16.3153 18.3594 16.3235 18.3219 16.3221 18.2843L16.2952 17.5327C16.3446 17.4941 16.3929 17.4554 16.4402 17.4146L17.1735 17.5864C17.2101 17.5951 17.2483 17.5943 17.2846 17.5842C17.3208 17.574 17.3539 17.5549 17.3807 17.5284C17.4077 17.5023 17.4274 17.4694 17.4378 17.4333C17.4482 17.3971 17.4488 17.3588 17.4397 17.3223L17.268 16.589C17.3077 16.5407 17.3474 16.4934 17.3861 16.444L18.1376 16.4709C18.1752 16.4721 18.2124 16.4636 18.2458 16.4464C18.2792 16.4292 18.3077 16.4038 18.3285 16.3725C18.3494 16.3412 18.3619 16.3052 18.3649 16.2677C18.368 16.2303 18.3614 16.1927 18.3459 16.1585L18.0335 15.4745L18.1226 15.3081L18.8645 15.1868C18.9018 15.1814 18.937 15.1662 18.9666 15.1428C18.9962 15.1194 19.0191 15.0887 19.033 15.0537C19.0476 15.0187 19.053 14.9807 19.0487 14.9431C19.0444 14.9055 19.0305 14.8696 19.0084 14.8389L18.5692 14.2291C18.5875 14.169 18.6068 14.1078 18.624 14.0466L19.3283 13.7835C19.3645 13.7717 19.397 13.7504 19.4222 13.7219C19.4475 13.6934 19.4648 13.6587 19.4722 13.6213C19.4797 13.5839 19.477 13.5452 19.4645 13.5092C19.4521 13.4732 19.4303 13.4411 19.4013 13.4163L18.8505 12.9031C18.857 12.8409 18.8634 12.7786 18.8688 12.7163L19.513 12.3201C19.5454 12.3008 19.5723 12.2735 19.5911 12.2408C19.6099 12.208 19.62 12.171 19.6203 12.1333C19.6201 12.0953 19.6101 12.0579 19.5913 12.0248C19.5725 11.9917 19.5455 11.964 19.513 11.9443L19.5076 11.9379ZM15.2194 17.2622C15.1314 17.2438 15.0508 17.1997 14.9878 17.1354C14.9249 17.0712 14.8824 16.9897 14.8659 16.9013C14.8493 16.8128 14.8594 16.7215 14.8948 16.6388C14.9302 16.5561 14.9893 16.4858 15.0648 16.4368C15.1402 16.3878 15.2284 16.3623 15.3184 16.3635C15.4083 16.3647 15.4959 16.3926 15.5699 16.4436C15.644 16.4946 15.7012 16.5665 15.7344 16.6501C15.7676 16.7337 15.7752 16.8253 15.7562 16.9132C15.731 17.0305 15.6604 17.133 15.5598 17.1984C15.4592 17.2638 15.3368 17.2867 15.2194 17.2622ZM15.0047 15.7891C14.9513 15.7777 14.8962 15.7769 14.8425 15.787C14.7888 15.797 14.7377 15.8176 14.692 15.8476C14.6464 15.8775 14.6071 15.9163 14.5766 15.9615C14.546 16.0068 14.5248 16.0577 14.514 16.1112L14.2864 17.1731C13.5549 17.5036 12.7607 17.6727 11.958 17.669C11.1553 17.6653 10.3627 17.4888 9.63425 17.1516L9.40019 16.0887C9.3892 16.0353 9.36777 15.9846 9.33714 15.9394C9.30652 15.8943 9.26729 15.8557 9.22171 15.8258C9.17613 15.7959 9.12509 15.7752 9.07152 15.7651C9.01795 15.7549 8.9629 15.7554 8.90953 15.7666L7.97223 15.9684C7.79794 15.7889 7.63616 15.5977 7.48801 15.3962H12.0575C12.109 15.3962 12.1434 15.3876 12.1434 15.3403V13.7266C12.1434 13.6794 12.109 13.6708 12.0575 13.6708H10.7229V12.6422H12.1649C12.2969 12.6422 12.8703 12.6798 13.0517 13.4131C13.1097 13.6375 13.2364 14.3697 13.3223 14.6038C13.4082 14.8668 13.7517 15.3919 14.1286 15.3919H16.4037C16.4314 15.3915 16.4591 15.3886 16.4863 15.3833C16.3286 15.5977 16.156 15.8007 15.9699 15.991L15.0101 15.7848L15.0047 15.7891ZM8.68621 17.2407C8.59828 17.2596 8.50671 17.252 8.42311 17.2189C8.3395 17.1857 8.26763 17.1285 8.2166 17.0544C8.16557 16.9803 8.13768 16.8928 8.13647 16.8028C8.13526 16.7129 8.16078 16.6246 8.2098 16.5492C8.25882 16.4738 8.32913 16.4146 8.41181 16.3792C8.49449 16.3438 8.58583 16.3338 8.67423 16.3503C8.76264 16.3669 8.84413 16.4093 8.90839 16.4723C8.97264 16.5352 9.01676 16.6158 9.03515 16.7039C9.05997 16.8213 9.03717 16.9438 8.97174 17.0445C8.90632 17.1451 8.80363 17.2157 8.68621 17.2407ZM6.95118 10.2243C6.98794 10.3064 6.99951 10.3975 6.98442 10.4862C6.96934 10.5748 6.92828 10.657 6.86644 10.7223C6.80461 10.7876 6.72478 10.833 6.63709 10.8529C6.54939 10.8728 6.45776 10.8662 6.37382 10.8339C6.28988 10.8017 6.21741 10.7453 6.16558 10.6718C6.11375 10.5983 6.0849 10.5111 6.08268 10.4212C6.08047 10.3313 6.10499 10.2428 6.15314 10.1668C6.20129 10.0909 6.2709 10.0309 6.35316 9.99459C6.46307 9.94694 6.58729 9.94431 6.69912 9.98727C6.81094 10.0302 6.90145 10.1154 6.95118 10.2243ZM6.41435 11.4848L7.39138 11.05C7.44139 11.0284 7.48664 10.9971 7.52452 10.958C7.56241 10.9189 7.59219 10.8726 7.61214 10.8219C7.6321 10.7712 7.64184 10.7171 7.6408 10.6626C7.63977 10.6082 7.62798 10.5545 7.60611 10.5046L7.40427 10.0493H8.19555V13.6085H6.60869C6.46649 13.1102 6.39422 12.5946 6.39395 12.0764C6.3944 11.8763 6.40515 11.6763 6.42616 11.4773L6.41435 11.4848ZM10.7068 11.1391V10.0891H12.5879C12.6856 10.0891 13.275 10.2018 13.275 10.642C13.275 11.0081 12.823 11.1391 12.4515 11.1391H10.7068ZM17.5471 12.0839C17.5471 12.2235 17.5471 12.3609 17.5321 12.4984H16.9587C16.9018 12.4984 16.8782 12.5359 16.8782 12.5918V12.8548C16.8782 13.4732 16.5304 13.6064 16.2233 13.6429C15.9323 13.6751 15.6092 13.5205 15.5705 13.3422C15.3976 12.376 15.1121 12.1687 14.66 11.8101C15.2216 11.4548 15.8046 10.9276 15.8046 10.2211C15.8046 9.46098 15.2838 8.98213 14.9295 8.747C14.57 8.51692 14.1574 8.38309 13.7313 8.35833H7.80903C8.62787 7.44303 9.72426 6.82149 10.9302 6.58894L11.6291 7.32118C11.6666 7.3605 11.7116 7.39204 11.7613 7.41398C11.8111 7.43591 11.8647 7.44782 11.919 7.44902C11.9734 7.45021 12.0274 7.44068 12.0781 7.42095C12.1287 7.40122 12.175 7.3717 12.2142 7.33406L12.9959 6.58787C13.7924 6.73822 14.5467 7.06 15.2066 7.5309C15.8664 8.0018 16.4159 8.61055 16.817 9.31496L16.2802 10.5228C16.2583 10.5727 16.2465 10.6264 16.2455 10.6809C16.2445 10.7354 16.2542 10.7895 16.2742 10.8402C16.2941 10.8909 16.3239 10.9371 16.3618 10.9762C16.3997 11.0154 16.4449 11.0466 16.4949 11.0682L17.5246 11.5267C17.5428 11.7081 17.5525 11.8939 17.5525 12.0807L17.5471 12.0839ZM11.6259 5.97267C11.6909 5.91131 11.7726 5.87056 11.8607 5.85555C11.9489 5.84053 12.0395 5.85192 12.1211 5.88828C12.2028 5.92463 12.2719 5.98434 12.3197 6.05987C12.3675 6.13541 12.3919 6.22339 12.3898 6.31276C12.3877 6.40213 12.3592 6.48889 12.308 6.56211C12.2567 6.63533 12.1849 6.69175 12.1016 6.72425C12.0183 6.75676 11.9273 6.76391 11.84 6.7448C11.7527 6.72569 11.6729 6.68118 11.6109 6.61686C11.5691 6.57381 11.5363 6.52288 11.5145 6.46704C11.4926 6.4112 11.482 6.35157 11.4834 6.29161C11.4848 6.23166 11.4981 6.17258 11.5226 6.11782C11.5471 6.06306 11.5822 6.01372 11.6259 5.97267ZM16.9351 10.2469C16.9717 10.1651 17.0317 10.0961 17.1075 10.0484C17.1833 10.0007 17.2715 9.97653 17.361 9.97897C17.4506 9.9814 17.5374 10.0103 17.6105 10.062C17.6836 10.1138 17.7397 10.186 17.7718 10.2696C17.8038 10.3533 17.8104 10.4445 17.7906 10.5319C17.7709 10.6192 17.7257 10.6987 17.6607 10.7604C17.5958 10.8221 17.514 10.8631 17.4258 10.8784C17.3375 10.8936 17.2467 10.8823 17.1649 10.846C17.1103 10.8219 17.061 10.7873 17.0199 10.7441C16.9788 10.7009 16.9466 10.65 16.9253 10.5943C16.9039 10.5386 16.8938 10.4792 16.8955 10.4196C16.8972 10.36 16.9106 10.3013 16.9351 10.2469Z" fill="white"/>
</svg>
