<svg width="24" height="24" viewBox="0 0 24 24" fill="white" xmlns="http://www.w3.org/2000/svg">
<path d="M22.8437 11.7315L21.9151 11.1604C21.9073 11.0706 21.8981 10.9809 21.8888 10.8911L22.6827 10.1513C22.7226 10.1145 22.7524 10.068 22.7693 10.0164C22.7861 9.96476 22.7894 9.90967 22.7788 9.8564C22.7683 9.80313 22.7442 9.75346 22.7089 9.71215C22.6737 9.67084 22.6284 9.63927 22.5775 9.62046L21.5622 9.24283C21.5375 9.15461 21.5096 9.06794 21.4833 8.97973L22.1163 8.10066C22.1502 8.0574 22.172 8.00589 22.1794 7.95144C22.1868 7.89698 22.1795 7.84153 22.1584 7.79079C22.1373 7.74005 22.1031 7.69584 22.0592 7.66272C22.0154 7.62959 21.9635 7.60874 21.9089 7.60231L20.8395 7.42742C20.7977 7.34694 20.7543 7.27266 20.711 7.18754L21.1614 6.20013C21.1836 6.15054 21.1928 6.09611 21.1882 6.04196C21.1836 5.98781 21.1653 5.93572 21.1351 5.8906C21.1057 5.84525 21.0649 5.80839 21.0169 5.78368C20.9688 5.75897 20.9151 5.74728 20.8611 5.74976L19.7778 5.78845C19.722 5.71726 19.6648 5.64761 19.606 5.57952L19.8567 4.52246C19.8693 4.46955 19.8681 4.41429 19.8532 4.36199C19.8383 4.30968 19.8102 4.26208 19.7716 4.22376C19.733 4.18553 19.6854 4.15768 19.6332 4.1428C19.5809 4.12791 19.5258 4.12649 19.4729 4.13864L18.4158 4.38936C18.3477 4.33055 18.2781 4.27329 18.2069 4.21757L18.2456 3.13421C18.2483 3.07997 18.2368 3.02597 18.212 2.97761C18.1873 2.92926 18.1503 2.88826 18.1047 2.85873C18.0596 2.82845 18.0075 2.81015 17.9534 2.80554C17.8992 2.80094 17.8448 2.81019 17.7952 2.83242L16.8093 3.28279L16.5695 3.15433L16.3961 2.08335C16.388 2.02984 16.366 1.97939 16.3324 1.93703C16.2987 1.89466 16.2545 1.86187 16.2042 1.84191C16.1539 1.82087 16.099 1.81309 16.0448 1.81933C15.9906 1.82556 15.9389 1.84559 15.8947 1.87751L15.0187 2.50741C14.932 2.47955 14.8454 2.45324 14.7571 2.42848L14.3795 1.41321C14.3627 1.36011 14.3319 1.31252 14.2904 1.27546C14.2488 1.23839 14.198 1.21323 14.1434 1.20261C14.0887 1.19199 14.0322 1.19632 13.9798 1.21514C13.9274 1.23395 13.881 1.26656 13.8456 1.30952L13.1089 2.10192L12.8396 2.08335L12.2685 1.15475C12.2404 1.10791 12.2007 1.06908 12.1533 1.04198C12.1059 1.01488 12.0523 1.00042 11.9977 0.999987C11.9431 0.99977 11.8895 1.01397 11.8422 1.04115C11.7949 1.06833 11.7556 1.10752 11.7284 1.15475L11.1557 2.08335L10.8864 2.10966L10.1467 1.30952C10.1097 1.27016 10.0633 1.24085 10.0118 1.22433C9.9604 1.20782 9.90561 1.20465 9.85261 1.21511C9.79919 1.22505 9.74932 1.24887 9.70803 1.28419C9.66674 1.31951 9.63547 1.36507 9.61736 1.41631L9.23819 2.42848L8.97818 2.50741L8.09911 1.87442C8.05481 1.84263 8.00313 1.82268 7.94896 1.81645C7.8948 1.81022 7.83994 1.81792 7.78958 1.83882C7.73944 1.85947 7.69562 1.89293 7.66248 1.93584C7.62934 1.97876 7.60806 2.02962 7.60076 2.08335L7.42588 3.15124L7.19063 3.27969L6.20013 2.82932C6.15054 2.80709 6.09611 2.79785 6.04196 2.80245C5.98781 2.80705 5.93572 2.82535 5.8906 2.85563C5.84502 2.88516 5.80801 2.92616 5.78329 2.97451C5.75857 3.02287 5.747 3.07688 5.74976 3.13112L5.7869 4.21448C5.71726 4.27019 5.64761 4.32746 5.57952 4.38627L4.52092 4.13555C4.46798 4.12354 4.41288 4.12504 4.36068 4.13991C4.30848 4.15479 4.26087 4.18256 4.22222 4.22067C4.18324 4.2587 4.15499 4.30635 4.14032 4.3588C4.12564 4.41124 4.12507 4.46663 4.13864 4.51937L4.38627 5.57642L4.21448 5.78535L3.13112 5.74666C3.07699 5.74542 3.02344 5.75798 2.97552 5.78317C2.92759 5.80835 2.88686 5.84532 2.85718 5.8906C2.82615 5.93544 2.80753 5.98768 2.80318 6.04203C2.79883 6.09639 2.80892 6.15092 2.83242 6.20013L3.27814 7.19063C3.23326 7.27111 3.18993 7.3454 3.14814 7.43052L2.08335 7.60231C2.02901 7.60963 1.97759 7.63126 1.93436 7.66498C1.89112 7.6987 1.85762 7.7433 1.83727 7.79422C1.81531 7.84435 1.80703 7.89941 1.81328 7.95379C1.81954 8.00817 1.8401 8.05991 1.87287 8.10375L2.50586 8.98282C2.478 9.06949 2.45169 9.15771 2.42538 9.24592L1.41012 9.62046C1.35982 9.64012 1.31533 9.67223 1.28084 9.71379C1.24635 9.75534 1.22298 9.80498 1.21292 9.85804C1.20287 9.91111 1.20646 9.96585 1.22335 10.0171C1.24025 10.0684 1.2699 10.1146 1.30952 10.1513L2.10502 10.8911C2.09418 10.9809 2.08645 11.0706 2.07871 11.1604L1.15475 11.7315C1.1079 11.7599 1.06908 11.7999 1.042 11.8476C1.01491 11.8952 1.00045 11.949 0.999987 12.0039C0.999771 12.0584 1.01397 12.112 1.04115 12.1593C1.06833 12.2066 1.10752 12.2459 1.15475 12.2731L2.08335 12.8442C2.08335 12.934 2.09883 13.0238 2.10966 13.1135L1.30952 13.8533C1.26997 13.8902 1.24049 13.9365 1.22389 13.988C1.20728 14.0394 1.2041 14.0943 1.21465 14.1473C1.22519 14.2003 1.24911 14.2498 1.28413 14.2909C1.31915 14.3321 1.36412 14.3637 1.41476 14.3826L2.43003 14.7618C2.45634 14.85 2.48265 14.9367 2.5105 15.0249L1.87287 15.904C1.83889 15.9474 1.81715 15.9992 1.8099 16.0539C1.80264 16.1086 1.81013 16.1642 1.8316 16.215C1.85306 16.2658 1.88772 16.31 1.93198 16.3429C1.97625 16.3759 2.0285 16.3964 2.08335 16.4023L3.15433 16.5772C3.19612 16.6577 3.23791 16.732 3.28279 16.8171L2.83242 17.8029C2.81004 17.8523 2.8006 17.9065 2.80499 17.9605C2.80938 18.0145 2.82744 18.0664 2.85749 18.1115C2.88753 18.1566 2.92856 18.1932 2.97671 18.218C3.02485 18.2429 3.07853 18.255 3.13266 18.2533L4.21603 18.2146L4.38782 18.4236L4.14019 19.4806C4.1271 19.5333 4.12807 19.5884 4.14301 19.6406C4.15794 19.6927 4.18633 19.74 4.22531 19.7778C4.26395 19.8158 4.31163 19.8435 4.36387 19.8581C4.41612 19.8727 4.47122 19.8738 4.52401 19.8613L5.58106 19.6137C5.64916 19.6725 5.71881 19.7282 5.79 19.7839L5.75131 20.8673C5.74919 20.9216 5.76105 20.9755 5.78574 21.0239C5.81044 21.0723 5.84715 21.1135 5.89235 21.1437C5.93755 21.1738 5.98973 21.1918 6.04389 21.196C6.09805 21.2002 6.15238 21.1904 6.20168 21.1676L7.19063 20.7218L7.43052 20.8503L7.6054 21.9213C7.61324 21.9751 7.63511 22.0258 7.66879 22.0685C7.70248 22.1111 7.74681 22.1442 7.79731 22.1643C7.84745 22.1862 7.90251 22.1945 7.95689 22.1882C8.01126 22.182 8.06301 22.1614 8.10685 22.1287L8.98592 21.4957C9.07259 21.5235 9.1608 21.5514 9.24902 21.5761L9.6282 22.5914C9.64652 22.6423 9.67789 22.6876 9.71917 22.7226C9.76045 22.7577 9.8102 22.7813 9.86344 22.7911C9.91643 22.8024 9.97148 22.7997 10.0231 22.7831C10.0747 22.7666 10.121 22.7367 10.1575 22.6966L10.8973 21.9027L11.1666 21.929L11.7377 22.8576C11.7656 22.9042 11.8051 22.9429 11.8522 22.97C11.8993 22.9971 11.9526 23.0117 12.007 23.0124C12.0618 23.0119 12.1156 22.9974 12.1632 22.9704C12.2109 22.9433 12.2509 22.9045 12.2793 22.8576L12.8504 21.929L13.1197 21.9027L13.8456 22.6966C13.8826 22.7362 13.9291 22.7656 13.9806 22.7822C14.0322 22.7987 14.0871 22.8019 14.1402 22.7914C14.1933 22.7808 14.2429 22.757 14.2842 22.722C14.3255 22.687 14.3573 22.6421 14.3764 22.5914L14.7602 21.5839C14.8485 21.5591 14.9351 21.5313 15.0233 21.5034L15.9024 22.1364C15.9457 22.1703 15.9972 22.1921 16.0516 22.1995C16.1061 22.2069 16.1615 22.1997 16.2123 22.1785C16.263 22.1574 16.3072 22.1232 16.3404 22.0793C16.3735 22.0355 16.3943 21.9836 16.4008 21.929L16.5756 20.858L16.8155 20.7296L17.8014 21.1799C17.8507 21.2028 17.905 21.2126 17.9592 21.2084C18.0133 21.2042 18.0655 21.1862 18.1107 21.156C18.1559 21.1259 18.1926 21.0847 18.2173 21.0363C18.242 20.9879 18.2539 20.934 18.2518 20.8797L18.2131 19.7963C18.2843 19.7406 18.3539 19.6849 18.422 19.6261L19.4791 19.8737C19.5319 19.8862 19.587 19.8851 19.6392 19.8705C19.6914 19.8559 19.7391 19.8282 19.7778 19.7901C19.8167 19.7524 19.8451 19.7051 19.8601 19.6529C19.875 19.6008 19.876 19.5456 19.8629 19.493L19.6153 18.4359C19.6725 18.3663 19.7298 18.2982 19.7855 18.227L20.8689 18.2657C20.923 18.2674 20.9767 18.2552 21.0248 18.2304C21.073 18.2056 21.114 18.1689 21.144 18.1239C21.1741 18.0788 21.1921 18.0268 21.1965 17.9728C21.2009 17.9189 21.1915 17.8646 21.1691 17.8153L20.7187 16.8295L20.8472 16.5896L21.9166 16.4147C21.9704 16.4069 22.0212 16.385 22.0638 16.3513C22.1065 16.3176 22.1395 16.2733 22.1596 16.2228C22.1807 16.1725 22.1884 16.1176 22.1822 16.0634C22.176 16.0092 22.1559 15.9575 22.124 15.9132L21.491 15.0342C21.5173 14.9475 21.5452 14.8593 21.57 14.7711L22.5852 14.3919C22.6374 14.3748 22.6842 14.3442 22.7206 14.3031C22.7571 14.262 22.782 14.2119 22.7927 14.158C22.8034 14.1041 22.7996 14.0484 22.7816 13.9965C22.7636 13.9445 22.7322 13.8983 22.6905 13.8626L21.8965 13.1228C21.9058 13.0331 21.9151 12.9433 21.9228 12.8535L22.8514 12.2824C22.8981 12.2546 22.9369 12.2152 22.964 12.168C22.9911 12.1209 23.0056 12.0675 23.0062 12.0131C23.0059 11.9583 22.9915 11.9044 22.9644 11.8567C22.9373 11.809 22.8984 11.7691 22.8514 11.7408L22.8437 11.7315ZM16.6623 19.4063C16.5354 19.3798 16.4192 19.3162 16.3285 19.2236C16.2378 19.131 16.1766 19.0135 16.1527 18.8861C16.1288 18.7586 16.1433 18.627 16.1944 18.5078C16.2454 18.3886 16.3307 18.2873 16.4394 18.2166C16.5481 18.1459 16.6753 18.1091 16.805 18.1109C16.9346 18.1126 17.0608 18.1528 17.1676 18.2264C17.2744 18.2999 17.3569 18.4036 17.4047 18.5241C17.4525 18.6446 17.4634 18.7766 17.4361 18.9033C17.3997 19.0724 17.2979 19.2201 17.1529 19.3144C17.008 19.4086 16.8316 19.4417 16.6623 19.4063V19.4063ZM16.3528 17.2829C16.2758 17.2664 16.1963 17.2654 16.119 17.2799C16.0416 17.2943 15.9679 17.324 15.9021 17.3672C15.8363 17.4104 15.7797 17.4662 15.7357 17.5315C15.6916 17.5967 15.661 17.67 15.6455 17.7472L15.3174 19.2779C14.2629 19.7543 13.1182 19.9981 11.961 19.9928C10.8039 19.9874 9.66146 19.733 8.61138 19.2469L8.27399 17.7147C8.25814 17.6377 8.22726 17.5646 8.18311 17.4996C8.13896 17.4346 8.08241 17.3789 8.01671 17.3358C7.95101 17.2927 7.87744 17.2629 7.80022 17.2483C7.723 17.2336 7.64365 17.2344 7.56671 17.2504L6.21561 17.5414C5.96437 17.2827 5.73116 17.0071 5.51761 16.7165H12.1045C12.1787 16.7165 12.2283 16.7041 12.2283 16.636V14.3099C12.2283 14.2418 12.1787 14.2294 12.1045 14.2294H10.1807V12.7467H12.2592C12.4496 12.7467 13.276 12.8009 13.5376 13.858C13.6212 14.1814 13.8038 15.2369 13.9276 15.5743C14.0514 15.9535 14.5467 16.7103 15.0899 16.7103H18.3694C18.4094 16.7098 18.4493 16.7056 18.4886 16.6979C18.2612 17.0069 18.0124 17.2996 17.7441 17.5739L16.3605 17.2767L16.3528 17.2829ZM7.2448 19.3754C7.11805 19.4027 6.98605 19.3917 6.86554 19.3439C6.74502 19.2961 6.64142 19.2136 6.56786 19.1068C6.4943 19 6.4541 18.8738 6.45236 18.7442C6.45061 18.6145 6.4874 18.4873 6.55806 18.3786C6.62872 18.2699 6.73007 18.1846 6.84925 18.1336C6.96844 18.0825 7.1001 18.068 7.22753 18.0919C7.35497 18.1158 7.47244 18.177 7.56506 18.2677C7.65769 18.3584 7.72128 18.4746 7.74779 18.6015C7.78357 18.7708 7.75069 18.9474 7.65639 19.0925C7.56208 19.2376 7.41405 19.3393 7.2448 19.3754V19.3754ZM4.74378 9.2614C4.79677 9.3797 4.81344 9.51106 4.7917 9.63884C4.76995 9.76663 4.71076 9.88508 4.62163 9.97919C4.53249 10.0733 4.41743 10.1388 4.29101 10.1675C4.1646 10.1961 4.03252 10.1866 3.91153 10.1401C3.79053 10.0936 3.68605 10.0123 3.61134 9.90635C3.53663 9.80043 3.49504 9.67471 3.49185 9.54513C3.48866 9.41555 3.52401 9.28794 3.59342 9.17846C3.66283 9.06899 3.76317 8.98259 3.88173 8.9302C4.04017 8.86152 4.21923 8.85773 4.38043 8.91966C4.54163 8.9816 4.67209 9.1043 4.74378 9.2614V9.2614ZM3.96995 11.0784L5.37832 10.4516C5.45041 10.4204 5.51563 10.3754 5.57024 10.3189C5.62486 10.2625 5.66778 10.1959 5.69654 10.1228C5.72531 10.0497 5.73935 9.97171 5.73786 9.8932C5.73637 9.8147 5.71937 9.73726 5.68785 9.66534L5.39689 9.00913H6.53752V14.1396H4.25008C4.0451 13.4213 3.94093 12.6781 3.94054 11.9311C3.94118 11.6426 3.95668 11.3544 3.98697 11.0675L3.96995 11.0784ZM10.1575 10.58V9.0664H12.869C13.0098 9.0664 13.8595 9.2289 13.8595 9.86344C13.8595 10.3912 13.2079 10.58 12.6724 10.58H10.1575ZM20.0176 11.9419C20.0176 12.1431 20.0176 12.3412 19.996 12.5393H19.1695C19.0875 12.5393 19.0535 12.5935 19.0535 12.674V13.0532C19.0535 13.9446 18.552 14.1365 18.1094 14.1892C17.69 14.2356 17.2241 14.0127 17.1684 13.7558C16.9192 12.3629 16.5076 12.0642 15.856 11.5473C16.6654 11.035 17.5058 10.2751 17.5058 9.25676C17.5058 8.16101 16.7552 7.47076 16.2444 7.13182C15.7262 6.80017 15.1315 6.60725 14.5173 6.57157H5.98036C7.16071 5.25218 8.74112 4.35623 10.4794 4.02102L11.4869 5.07653C11.5411 5.13321 11.6058 5.17867 11.6775 5.21029C11.7492 5.24191 11.8265 5.25908 11.9048 5.2608C11.9832 5.26253 12.0611 5.24878 12.1341 5.22034C12.2072 5.19191 12.2739 5.14935 12.3304 5.0951L13.4571 4.01947C14.6053 4.2362 15.6927 4.70004 16.6438 5.37883C17.5949 6.05763 18.387 6.93513 18.9652 7.95053L18.1914 9.69165C18.1599 9.76357 18.1429 9.84101 18.1414 9.91951C18.1399 9.99802 18.154 10.076 18.1827 10.1491C18.2115 10.2222 18.2544 10.2888 18.309 10.3452C18.3636 10.4017 18.4289 10.4467 18.5009 10.4779L19.9851 11.1387C20.0115 11.4003 20.0254 11.668 20.0254 11.9373L20.0176 11.9419ZM11.4823 3.13266C11.576 3.04423 11.6938 2.98549 11.8208 2.96384C11.9479 2.9422 12.0784 2.95861 12.1962 3.01102C12.3139 3.06343 12.4135 3.14949 12.4824 3.25837C12.5513 3.36725 12.5865 3.49408 12.5835 3.62291C12.5805 3.75173 12.5394 3.87679 12.4655 3.98234C12.3916 4.08788 12.2881 4.16921 12.1681 4.21607C12.048 4.26293 11.9168 4.27324 11.7909 4.24569C11.665 4.21814 11.5501 4.15397 11.4606 4.06126C11.4004 3.99921 11.3532 3.92579 11.3217 3.8453C11.2901 3.76481 11.2749 3.67885 11.2769 3.59242C11.279 3.506 11.2982 3.42084 11.3334 3.34191C11.3687 3.26297 11.4193 3.19184 11.4823 3.13266V3.13266ZM19.1355 9.2939C19.1882 9.17606 19.2746 9.07647 19.3839 9.00773C19.4932 8.93899 19.6204 8.90418 19.7494 8.90769C19.8785 8.9112 20.0036 8.95287 20.109 9.02745C20.2143 9.10202 20.2953 9.20616 20.3415 9.32669C20.3877 9.44723 20.3972 9.57876 20.3687 9.70467C20.3402 9.83059 20.275 9.94524 20.1814 10.0341C20.0878 10.123 19.97 10.1822 19.8428 10.2042C19.7155 10.2261 19.5847 10.2099 19.4667 10.1575C19.388 10.1228 19.317 10.0729 19.2577 10.0106C19.1984 9.94833 19.1521 9.87494 19.1213 9.79466C19.0905 9.71438 19.0759 9.6288 19.0783 9.54286C19.0808 9.45692 19.1002 9.3723 19.1355 9.2939V9.2939Z" fill="white"/>
</svg>
