<svg width="24" height="25" viewBox="0 0 24 25" fill="none" xmlns="http://www.w3.org/2000/svg">
<path d="M7.62354 10.3813C7.62354 10.3813 16.4199 11.261 16.4199 12.727V9.20849C16.4199 9.20849 16.4199 7.74243 7.62354 6.86279V10.3813Z" fill="url(#paint0_linear_1960:5378)"/>
<path d="M7.62354 15.0727C7.62354 15.0727 16.4199 15.9524 16.4199 17.4184V13.8999C16.4199 13.8999 16.4199 12.4338 7.62354 11.5542V15.0727Z" fill="url(#paint1_linear_1960:5378)"/>
<path d="M16.4209 4.51685V8.0354C16.4209 8.0354 16.4209 9.50146 7.62451 10.3811V6.86255C7.62451 6.86255 16.4209 5.98291 16.4209 4.51685Z" fill="url(#paint2_linear_1960:5378)"/>
<path d="M7.62354 11.5542C7.62354 11.5542 16.4199 10.6746 16.4199 9.2085V12.727C16.4199 12.727 16.4199 14.1931 7.62354 15.0727V11.5542Z" fill="url(#paint3_linear_1960:5378)"/>
<path d="M7.62354 19.7644V16.2458C7.62354 16.2458 16.4199 15.3662 16.4199 13.9001V17.4187C16.4199 17.4187 16.4199 18.8848 7.62354 19.7644Z" fill="url(#paint4_linear_1960:5378)"/>
<defs>
<linearGradient id="paint0_linear_1960:5378" x1="7.63855" y1="9.77428" x2="16.404" y2="9.77428" gradientUnits="userSpaceOnUse">
<stop stop-color="#656565"/>
<stop offset="1" stop-color="#010101"/>
</linearGradient>
<linearGradient id="paint1_linear_1960:5378" x1="7.63855" y1="14.4758" x2="16.404" y2="14.4758" gradientUnits="userSpaceOnUse">
<stop stop-color="#656565"/>
<stop offset="1" stop-color="#010101"/>
</linearGradient>
<linearGradient id="paint2_linear_1960:5378" x1="7.63952" y1="7.45202" x2="16.4049" y2="7.45202" gradientUnits="userSpaceOnUse">
<stop stop-color="#9F1C20"/>
<stop offset="1" stop-color="#ED2224"/>
</linearGradient>
<linearGradient id="paint3_linear_1960:5378" x1="7.63855" y1="12.1559" x2="16.404" y2="12.1559" gradientUnits="userSpaceOnUse">
<stop stop-color="#9F1C20"/>
<stop offset="1" stop-color="#ED2224"/>
</linearGradient>
<linearGradient id="paint4_linear_1960:5378" x1="7.63855" y1="16.8581" x2="16.404" y2="16.8581" gradientUnits="userSpaceOnUse">
<stop stop-color="#9F1C20"/>
<stop offset="1" stop-color="#ED2224"/>
</linearGradient>
</defs>
</svg>
