<svg width="24" height="24" viewBox="0 0 24 24" fill="none" xmlns="http://www.w3.org/2000/svg">
<path fill-rule="evenodd" clip-rule="evenodd" d="M10.6543 4.91358H18.3086C19.3655 4.91358 20.2222 5.77032 20.2222 6.82716V12.0187C19.642 11.6655 18.9967 11.4085 18.3086 11.2697V6.82716H4.91358V18.3086H11.2697C11.4085 18.9967 11.6655 19.642 12.0187 20.2222H4.91358C3.85674 20.2222 3 19.3655 3 18.3086V4.91358C3 3.86111 3.86111 3 4.91358 3H8.74074L10.6543 4.91358Z" fill="url(#secrets_paint0_linear)"/>
<path fill-rule="evenodd" clip-rule="evenodd" d="M17.0278 23C20.3261 23 23 20.3261 23 17.0278C23 13.7294 20.3261 11.0556 17.0278 11.0556C13.7294 11.0556 11.0555 13.7294 11.0555 17.0278C11.0555 20.3261 13.7294 23 17.0278 23ZM17.1426 13.3526C16.6248 13.3526 16.1282 13.5583 15.762 13.9244C15.3959 14.2906 15.1902 14.7872 15.1902 15.305C15.1922 15.6458 15.2834 15.98 15.4547 16.2746C15.6259 16.5692 15.8713 16.8138 16.1664 16.9841V20.1862C16.1664 20.4451 16.2692 20.6934 16.4523 20.8765C16.6354 21.0595 16.8837 21.1624 17.1426 21.1624C17.4015 21.1624 17.6498 21.0595 17.8329 20.8765C18.016 20.6934 18.1188 20.4451 18.1188 20.1862V16.9841C18.4139 16.8138 18.6593 16.5692 18.8306 16.2746C19.0018 15.98 19.093 15.6458 19.0951 15.305C19.0951 14.7872 18.8894 14.2906 18.5232 13.9244C18.1571 13.5583 17.6604 13.3526 17.1426 13.3526Z" fill="url(#secrets_paint1_linear)"/>
<defs>
<linearGradient id="secrets_paint0_linear" x1="11.6111" y1="3" x2="11.6111" y2="20.2222" gradientUnits="userSpaceOnUse">
<stop stop-color="#4C99F2"/>
<stop offset="1" stop-color="#104481"/>
</linearGradient>
<linearGradient id="secrets_paint1_linear" x1="17.0278" y1="11.0556" x2="17.0278" y2="23" gradientUnits="userSpaceOnUse">
<stop stop-color="#4C99F2"/>
<stop offset="1" stop-color="#104481"/>
</linearGradient>
</defs>
</svg>
