<svg width="24" height="24" viewBox="0 0 24 24" fill="none" xmlns="http://www.w3.org/2000/svg">
<path fill-rule="evenodd" clip-rule="evenodd" d="M10.7935 7.11328H15.9263C16.635 7.11328 17.2095 7.68779 17.2095 8.39648V11.8778C16.8204 11.641 16.3877 11.4686 15.9263 11.3756V8.39648H6.94385V16.0957H11.2061C11.2992 16.5571 11.4715 16.9898 11.7084 17.3789H6.94385C6.23515 17.3789 5.66064 16.8044 5.66064 16.0957V7.11328C5.66064 6.40752 6.23809 5.83008 6.94385 5.83008H9.51025L10.7935 7.11328Z" fill="url(#paint0_linear_1960:5413)"/>
<path fill-rule="evenodd" clip-rule="evenodd" d="M15.0668 19.2416C17.2787 19.2416 19.0717 17.4486 19.0717 15.2368C19.0717 13.025 17.2787 11.2319 15.0668 11.2319C12.855 11.2319 11.062 13.025 11.062 15.2368C11.062 17.4486 12.855 19.2416 15.0668 19.2416ZM15.1439 12.7723C14.7966 12.7723 14.4636 12.9102 14.2181 13.1557C13.9725 13.4013 13.8346 13.7343 13.8346 14.0815C13.836 14.31 13.8971 14.5342 14.012 14.7317C14.1268 14.9292 14.2913 15.0933 14.4892 15.2075V17.3547C14.4892 17.5283 14.5582 17.6948 14.681 17.8176C14.8037 17.9404 14.9702 18.0093 15.1439 18.0093C15.3175 18.0093 15.484 17.9404 15.6068 17.8176C15.7295 17.6948 15.7985 17.5283 15.7985 17.3547V15.2075C15.9964 15.0933 16.1609 14.9292 16.2758 14.7317C16.3906 14.5342 16.4518 14.31 16.4531 14.0815C16.4531 13.7343 16.3152 13.4013 16.0697 13.1557C15.8241 12.9102 15.4911 12.7723 15.1439 12.7723Z" fill="url(#paint1_linear_1960:5413)"/>
<defs>
<linearGradient id="paint0_linear_1960:5413" x1="11.4351" y1="5.83008" x2="11.4351" y2="17.3789" gradientUnits="userSpaceOnUse">
<stop stop-color="#4C99F2"/>
<stop offset="1" stop-color="#104481"/>
</linearGradient>
<linearGradient id="paint1_linear_1960:5413" x1="15.0668" y1="11.2319" x2="15.0668" y2="19.2416" gradientUnits="userSpaceOnUse">
<stop stop-color="#4C99F2"/>
<stop offset="1" stop-color="#104481"/>
</linearGradient>
</defs>
</svg>
