<svg width="24" height="24" viewBox="0 0 24 24" fill="none" xmlns="http://www.w3.org/2000/svg">
<path fill-rule="evenodd" clip-rule="evenodd" d="M10.4532 5.49342H17.0665C17.9796 5.49342 18.7198 6.23364 18.7198 7.14675V11.6323C18.2185 11.3271 17.661 11.105 17.0665 10.9851V7.14675H5.49318V17.0668H10.9849C11.1048 17.6613 11.3268 18.2188 11.632 18.7201H5.49318C4.58007 18.7201 3.83984 17.9799 3.83984 17.0668V5.49342C3.83984 4.58409 4.58384 3.84009 5.49318 3.84009H8.79984L10.4532 5.49342Z" fill="url(#paint0_linear_1960:5413)"/>
<path fill-rule="evenodd" clip-rule="evenodd" d="M15.9598 21.12C18.8096 21.12 21.1198 18.8098 21.1198 15.96C21.1198 13.1103 18.8096 10.8 15.9598 10.8C13.11 10.8 10.7998 13.1103 10.7998 15.96C10.7998 18.8098 13.11 21.12 15.9598 21.12ZM16.059 12.7847C15.6116 12.7847 15.1826 12.9624 14.8662 13.2788C14.5498 13.5951 14.3721 14.0242 14.3721 14.4716C14.3739 14.766 14.4527 15.0548 14.6006 15.3093C14.7486 15.5638 14.9606 15.7751 15.2156 15.9223V18.6889C15.2156 18.9126 15.3044 19.1271 15.4626 19.2853C15.6208 19.4435 15.8353 19.5324 16.059 19.5324C16.2827 19.5324 16.4973 19.4435 16.6555 19.2853C16.8136 19.1271 16.9025 18.9126 16.9025 18.6889V15.9223C17.1575 15.7751 17.3695 15.5638 17.5174 15.3093C17.6654 15.0548 17.7442 14.766 17.746 14.4716C17.746 14.0242 17.5682 13.5951 17.2519 13.2788C16.9355 12.9624 16.5064 12.7847 16.059 12.7847Z" fill="url(#paint1_linear_1960:5413)"/>
<defs>
<linearGradient id="paint0_linear_1960:5413" x1="11.2798" y1="3.84009" x2="11.2798" y2="18.7201" gradientUnits="userSpaceOnUse">
<stop stop-color="#4C99F2"/>
<stop offset="1" stop-color="#104481"/>
</linearGradient>
<linearGradient id="paint1_linear_1960:5413" x1="15.9598" y1="10.8" x2="15.9598" y2="21.12" gradientUnits="userSpaceOnUse">
<stop stop-color="#4C99F2"/>
<stop offset="1" stop-color="#104481"/>
</linearGradient>
</defs>
</svg>
