<svg width="24" height="24" viewBox="0 0 24 24" fill="none" xmlns="http://www.w3.org/2000/svg">
<rect x="6.09473" y="5.95459" width="12.1076" height="12.1076" rx="0.968611" fill="white"/>
<path d="M7.72171 13.5087C7.66941 13.5087 7.62582 13.4942 7.59095 13.4651C7.56189 13.4302 7.54736 13.3866 7.54736 13.3343V12.9508C7.54736 12.8868 7.56189 12.8345 7.59095 12.7938C7.62001 12.7532 7.67231 12.7067 7.74787 12.6544L10.0754 11.0591L7.74787 9.46376C7.67231 9.41727 7.62001 9.37368 7.59095 9.333C7.56189 9.29232 7.54736 9.24001 7.54736 9.17608V8.79251C7.54736 8.74021 7.56189 8.69953 7.59095 8.67047C7.62582 8.6356 7.66941 8.61816 7.72171 8.61816C7.77402 8.61816 7.84376 8.64722 7.93093 8.70534L10.6769 10.5883C10.7699 10.6581 10.8339 10.722 10.8687 10.7801C10.9094 10.8382 10.9298 10.908 10.9298 10.9893V11.1375C10.9298 11.2189 10.9094 11.2886 10.8687 11.3467C10.8281 11.4049 10.7641 11.4659 10.6769 11.5298L7.93093 13.4215C7.84376 13.4796 7.77402 13.5087 7.72171 13.5087Z" fill="#33CB9A"/>
<path d="M11.3807 15.0411C11.3226 15.0411 11.2732 15.0237 11.2325 14.9888C11.1976 14.9539 11.1802 14.9045 11.1802 14.8406V14.5093C11.1802 14.4512 11.1976 14.4047 11.2325 14.3699C11.2732 14.3292 11.3226 14.3088 11.3807 14.3088H16.4368C16.4949 14.3088 16.5414 14.3292 16.5763 14.3699C16.617 14.4047 16.6373 14.4512 16.6373 14.5093V14.8406C16.6373 14.9045 16.6199 14.9539 16.585 14.9888C16.5502 15.0237 16.5008 15.0411 16.4368 15.0411H11.3807Z" fill="#33CB9A"/>
</svg>
