<svg width="24" height="24" viewBox="0 0 24 24" fill="none" xmlns="http://www.w3.org/2000/svg">
<g clip-path="url(#clip0_257_1103)">
<path d="M7.01636 0.431641C5.95951 0.431641 5.10289 1.28849 5.10289 2.34517C5.10264 2.59621 5.15193 2.84483 5.24796 3.07686C5.34398 3.30888 5.48485 3.51976 5.66254 3.69744C5.84022 3.87513 6.05123 4.01615 6.28351 4.11245C6.5158 4.20875 6.76482 4.25845 7.01636 4.2587H8.93014V2.34517C8.93056 1.83815 8.72918 1.35172 8.37029 0.992875C8.01139 0.634028 7.52438 0.432149 7.01636 0.431641ZM7.01636 5.53438H1.91346C0.856622 5.53438 0 6.39123 0 7.44823C0 8.50491 0.856622 9.36176 1.91346 9.36176H7.01668C8.0732 9.36176 8.93014 8.50491 8.93014 7.44823C8.93014 6.39123 8.0732 5.53438 7.01636 5.53438Z" fill="#36C5F0"/>
<path d="M19.1362 7.44823C19.1362 6.39123 18.2793 5.53438 17.2224 5.53438C16.1656 5.53438 15.3089 6.39123 15.3089 7.44823V9.36176H17.2224C17.7304 9.36125 18.2174 9.15937 18.5763 8.80052C18.9352 8.44168 19.1366 7.95525 19.1362 7.44823ZM14.0333 7.44823V2.34517C14.0337 1.83815 13.8323 1.35172 13.4735 0.992875C13.1146 0.634028 12.6275 0.432149 12.1195 0.431641C11.0627 0.431641 10.2061 1.28849 10.2061 2.34517V7.44791C10.2061 8.50523 11.0627 9.36208 12.1195 9.36208C12.6275 9.36157 13.1146 9.15969 13.4735 8.80084C13.8323 8.442 14.0337 7.95557 14.0333 7.44855" fill="#2EB67D"/>
<path d="M12.1195 19.5678C12.6275 19.5673 13.1146 19.3654 13.4735 19.0066C13.8323 18.6477 14.0337 18.1613 14.0333 17.6543C14.0337 17.1473 13.8323 16.6608 13.4735 16.302C13.1146 15.9431 12.6275 15.7413 12.1195 15.7408H10.2061V17.6543C10.2061 18.711 11.0627 19.5678 12.1195 19.5678ZM12.1195 14.4651H17.2227C18.2793 14.4651 19.1362 13.6082 19.1362 12.5512C19.1366 12.0442 18.9352 11.5578 18.5763 11.1989C18.2174 10.8401 17.7304 10.6382 17.2224 10.6377H12.1195C11.0627 10.6377 10.2061 11.4945 10.2061 12.5512C10.2058 12.8023 10.2551 13.0509 10.3511 13.2829C10.4471 13.5149 10.588 13.7258 10.7657 13.9035C10.9434 14.0812 11.1544 14.2222 11.3867 14.3185C11.619 14.4148 11.868 14.4645 12.1195 14.4648" fill="#ECB22E"/>
<path d="M9.65487e-07 12.5512C-0.000251577 12.8023 0.0490413 13.0509 0.145065 13.2829C0.241089 13.5149 0.381964 13.7258 0.559645 13.9035C0.737327 14.0812 0.948336 14.2222 1.18062 14.3185C1.41291 14.4148 1.66193 14.4645 1.91346 14.4648C2.42149 14.4642 2.9085 14.2624 3.2674 13.9035C3.62629 13.5447 3.82767 13.0582 3.82725 12.5512V10.6377H1.91346C0.856623 10.6377 9.65487e-07 11.4945 9.65487e-07 12.5512ZM5.10289 12.5512V17.654C5.10289 18.711 5.95951 19.5678 7.01636 19.5678C7.52438 19.5673 8.01139 19.3654 8.37029 19.0066C8.72918 18.6477 8.93057 18.1613 8.93014 17.6543V12.5512C8.93039 12.3002 8.88109 12.0515 8.78505 11.8195C8.689 11.5874 8.5481 11.3765 8.37038 11.1988C8.19267 11.0211 7.98162 10.8801 7.74929 10.7839C7.51697 10.6876 7.26792 10.6379 7.01636 10.6377C5.95951 10.6377 5.10289 11.4945 5.10289 12.5512Z" fill="#E01E5A"/>
</g>
<defs>
<clipPath id="clip0_257_1103">
<rect width="19.1359" height="19.1359" fill="white" transform="translate(0 0.431641)"/>
</clipPath>
</defs>
</svg>
