<svg width="24" height="24" viewBox="0 0 24 24" fill="none" xmlns="http://www.w3.org/2000/svg">
<path d="M8.56623 8.44534C8.43561 7.6392 6.57023 7 4.28713 7C2.00405 7 0.138619 7.6392 0.00803836 8.44534H0V8.53568V10.6134V10.7037V10.794V12.7814V12.8717V12.962V15.1301H0.00803836C0.138619 15.936 2.00423 16.5754 4.28713 16.5754C6.57002 16.5754 8.43561 15.936 8.56623 15.1301H8.57425V12.962V12.8717V12.7814V10.794V10.7037V10.6134V8.53568V8.44534H8.56623Z" fill="#424A60"/>
<path d="M4.293 14.4133C1.92201 14.4133 0 13.7251 0 12.8764V15.1365H0.00804944C0.138806 15.943 2.00698 16.5829 4.293 16.5829C6.57901 16.5829 8.44716 15.943 8.57792 15.1365H8.58601V12.8764C8.58601 13.7251 6.66399 14.4133 4.293 14.4133Z" fill="#424A60"/>
<path d="M0 12.7865V12.8769C0 12.8465 0.00275998 12.8165 0.00690053 12.7865H0Z" fill="#424A60"/>
<path d="M8.57819 12.7864C8.58234 12.8164 8.58512 12.8464 8.58512 12.8768V12.7864H8.57819Z" fill="#424A60"/>
<path d="M4.293 12.2431C1.92201 12.2431 0 11.555 0 10.7063V12.9664H0.00804944C0.138806 13.7729 2.00698 14.4128 4.293 14.4128C6.57901 14.4128 8.44716 13.7729 8.57792 12.9664H8.58601V10.7063C8.58601 11.555 6.66399 12.2431 4.293 12.2431Z" fill="#556080"/>
<path d="M0 10.6164V10.7068C0 10.6765 0.00275998 10.6465 0.00690053 10.6164H0Z" fill="#556080"/>
<path d="M8.57819 10.6167C8.58234 10.6468 8.58512 10.6768 8.58512 10.7071V10.6167H8.57819Z" fill="#556080"/>
<path d="M4.28713 10.0753C6.65486 10.0753 8.57425 9.38688 8.57425 8.53766C8.57425 7.68843 6.65486 7 4.28713 7C1.91941 7 0 7.68843 0 8.53766C0 9.38688 1.91941 10.0753 4.28713 10.0753Z" fill="#7FABDA"/>
<path d="M4.293 10.0739C1.92201 10.0739 0 9.38574 0 8.53704V10.7971H0.00804944C0.138806 11.6037 2.00698 12.2435 4.293 12.2435C6.57901 12.2435 8.44716 11.6037 8.57792 10.7971H8.58601V8.53704C8.58601 9.38574 6.66399 10.0739 4.293 10.0739Z" fill="#7383BF"/>
<path d="M0 8.44626V8.53667C0 8.50629 0.00275998 8.47627 0.00690053 8.44626H0Z" fill="#7383BF"/>
<path d="M8.57819 8.44611C8.58234 8.47612 8.58512 8.50614 8.58512 8.53652V8.44611H8.57819Z" fill="#7383BF"/>
<path d="M11.7412 15.5774C11.1238 15.5774 10.6027 15.4231 10.1779 15.1144C10.1381 15.0876 10.1082 15.0607 10.0883 15.0339C10.075 15.0003 10.0684 14.95 10.0684 14.8829C10.0684 14.7621 10.0883 14.638 10.1281 14.5105C10.1746 14.3763 10.231 14.3092 10.2974 14.3092C10.3239 14.3092 10.3438 14.3159 10.3571 14.3294C10.3704 14.3428 10.3804 14.3495 10.387 14.3495C10.7521 14.638 11.2134 14.7823 11.771 14.7823C12.1096 14.7823 12.3851 14.6816 12.5975 14.4803C12.8165 14.2723 12.9261 13.9939 12.9261 13.645C12.9261 13.3296 12.8398 13.0847 12.6672 12.9102C12.4946 12.7291 12.239 12.5513 11.9005 12.3768C11.5221 12.1889 11.2201 12.0178 10.9944 11.8635C10.7753 11.7092 10.5895 11.5113 10.4368 11.2697C10.2907 11.0214 10.2177 10.7128 10.2177 10.3438C10.2177 9.73317 10.4069 9.25342 10.7853 8.90451C11.1703 8.5489 11.6681 8.37109 12.2789 8.37109C12.7502 8.37109 13.1551 8.47173 13.4936 8.67303C13.5401 8.69987 13.5633 8.74013 13.5633 8.7938C13.5633 8.88103 13.5301 9.00516 13.4638 9.1662C13.404 9.32723 13.3443 9.40775 13.2845 9.40775C13.2646 9.40775 13.2215 9.39097 13.1551 9.35742C12.9028 9.22994 12.5942 9.1662 12.2291 9.1662C11.9104 9.1662 11.6416 9.26013 11.4225 9.44801C11.2035 9.62917 11.094 9.89421 11.094 10.2431C11.094 10.5451 11.1836 10.79 11.3628 10.9778C11.5487 11.159 11.8474 11.3569 12.2589 11.5716C12.5975 11.7461 12.8697 11.9105 13.0754 12.0648C13.2879 12.2124 13.4638 12.4104 13.6032 12.6586C13.7426 12.9002 13.8123 13.2055 13.8123 13.5745C13.8123 14.2052 13.6198 14.6984 13.2347 15.054C12.8497 15.4029 12.3519 15.5774 11.7412 15.5774Z" fill="#9E9E9E"/>
<path d="M19.4931 17.228C19.4267 17.228 18.9189 16.9764 17.9696 16.4731C17.027 15.9699 16.3765 15.6109 16.018 15.3962C15.0621 14.9064 14.5842 13.7758 14.5842 12.0044C14.5842 10.7967 14.7933 9.89756 15.2115 9.3071C15.6363 8.71664 16.257 8.42141 17.0735 8.42141C17.89 8.42141 18.5106 8.72 18.9355 9.31717C19.3603 9.90763 19.5727 10.8034 19.5727 12.0044C19.5727 12.9841 19.4333 13.7624 19.1545 14.3394C18.8757 14.9165 18.4675 15.2922 17.9298 15.4667V15.4969L19.8615 16.3926C19.9412 16.4329 19.981 16.4866 19.981 16.5537C19.9677 16.6476 19.908 16.7818 19.8018 16.9562C19.6955 17.1374 19.5927 17.228 19.4931 17.228ZM17.0834 14.8326C17.5946 14.8326 17.9829 14.5978 18.2484 14.1281C18.5206 13.6584 18.6567 12.9505 18.6567 12.0044C18.6567 11.0516 18.5206 10.3438 18.2484 9.88079C17.9829 9.41781 17.5946 9.18632 17.0834 9.18632C16.0346 9.18632 15.5102 10.1257 15.5102 12.0044C15.5102 13.8899 16.0346 14.8326 17.0834 14.8326Z" fill="#9E9E9E"/>
<path d="M21.1025 15.5271C21.0096 15.5271 20.9399 15.5036 20.8934 15.4566C20.8536 15.4096 20.8336 15.3325 20.8336 15.2251V8.68309C20.8336 8.53548 20.9598 8.46167 21.212 8.46167H21.3514C21.6037 8.46167 21.7298 8.53548 21.7298 8.68309V14.7621H23.8009C23.8739 14.7621 23.9237 14.7856 23.9502 14.8326C23.9834 14.8796 24 14.9567 24 15.0641V15.2251C24 15.3325 23.9834 15.4096 23.9502 15.4566C23.9237 15.5036 23.8739 15.5271 23.8009 15.5271H21.1025Z" fill="#9E9E9E"/>
</svg>
