<svg width="24" height="25" viewBox="0 0 24 25" fill="none" xmlns="http://www.w3.org/2000/svg">
<path d="M18.8883 6.75658C18.6773 5.46802 15.6634 4.44629 11.9746 4.44629C8.2858 4.44629 5.27182 5.46802 5.06084 6.75658H5.04785V6.90098V10.2221V10.3665V10.5108V13.6875V13.8319V13.9763V17.4418H5.06084C5.27182 18.7301 8.28609 19.7521 11.9746 19.7521C15.663 19.7521 18.6773 18.7301 18.8883 17.4418H18.9013V13.9763V13.8319V13.6875V10.5108V10.3665V10.2221V6.90098V6.75658H18.8883Z" fill="#424A60"/>
<path d="M11.9835 16.2957C8.15275 16.2957 5.04736 15.1957 5.04736 13.8391V17.4517H5.06037C5.27163 18.741 8.29004 19.7638 11.9835 19.7638C15.6771 19.7638 18.6954 18.741 18.9067 17.4517H18.9198V13.8391C18.9198 15.1957 15.8144 16.2957 11.9835 16.2957Z" fill="#424A60"/>
<path d="M5.04736 13.6948V13.8396C5.04736 13.7909 5.05257 13.7429 5.06039 13.6948H5.04736Z" fill="#424A60"/>
<path d="M18.9067 13.6948C18.9146 13.7429 18.9198 13.7909 18.9198 13.8396V13.6948H18.9067Z" fill="#424A60"/>
<path d="M11.9835 12.8276C8.15275 12.8276 5.04736 11.7277 5.04736 10.3711V13.9837H5.06037C5.27163 15.273 8.29004 16.2958 11.9835 16.2958C15.6771 16.2958 18.6954 15.273 18.9067 13.9837H18.9198V10.3711C18.9198 11.7277 15.8144 12.8276 11.9835 12.8276Z" fill="#556080"/>
<path d="M5.04736 10.2266V10.3713C5.04736 10.3227 5.05257 10.2747 5.06039 10.2266H5.04736Z" fill="#556080"/>
<path d="M18.9067 10.2266C18.9146 10.2747 18.9198 10.3227 18.9198 10.3713V10.2266H18.9067Z" fill="#556080"/>
<path d="M11.9746 9.36204C15.8001 9.36204 18.9013 8.26159 18.9013 6.90416C18.9013 5.5467 15.8001 4.44629 11.9746 4.44629C8.14904 4.44629 5.04785 5.5467 5.04785 6.90416C5.04785 8.26159 8.14904 9.36204 11.9746 9.36204Z" fill="#7FABDA"/>
<path d="M11.9835 9.35939C8.15275 9.35939 5.04736 8.2594 5.04736 6.90283V10.5154H5.06037C5.27163 11.8047 8.29004 12.8275 11.9835 12.8275C15.6771 12.8275 18.6954 11.8047 18.9067 10.5154H18.9198V6.90283C18.9198 8.2594 15.8144 9.35939 11.9835 9.35939Z" fill="#7383BF"/>
<path d="M5.04736 6.75806V6.90284C5.04736 6.8542 5.05257 6.80611 5.06039 6.75806H5.04736Z" fill="#7383BF"/>
<path d="M18.9067 6.75806C18.9146 6.80611 18.9198 6.8542 18.9198 6.90284V6.75806H18.9067Z" fill="#7383BF"/>
</svg>
