<svg width="24" height="24" viewBox="0 0 24 24" fill="none" xmlns="http://www.w3.org/2000/svg">
<path fill-rule="evenodd" clip-rule="evenodd" d="M4 12H13V20.1915C13 21.1903 12.1845 22 11.1786 22H5.82143C4.81548 22 4 21.1903 4 20.1915V12ZM4.75 12.7447V20.1915C4.75 20.779 5.22969 21.2553 5.82143 21.2553H11.1786C11.7703 21.2553 12.25 20.779 12.25 20.1915V12.7447H4.75Z" fill="currentColor"/>
<path fill-rule="evenodd" clip-rule="evenodd" d="M15.2736 16.5889C15.8668 16.0021 16.8234 16.0072 17.4102 16.6004L18.0228 17.2197C18.6096 17.8129 18.6045 18.7695 18.0113 19.3563L17.5646 19.7982L14.8269 17.0309L15.2736 16.5889ZM16.0122 17.0572L17.551 18.6127C17.6935 18.3531 17.6559 18.0205 17.437 17.7993L16.8244 17.18C16.6054 16.9587 16.2733 16.9175 16.0122 17.0572Z" fill="currentColor"/>
<path fill-rule="evenodd" clip-rule="evenodd" d="M13.2698 14.8708C13.4316 14.7108 13.6925 14.7122 13.8525 14.874L19.7103 20.7953C19.8704 20.9571 19.869 21.2179 19.7072 21.378C19.5454 21.538 19.2845 21.5366 19.1245 21.3748L13.2667 15.4536C13.1066 15.2918 13.108 15.0309 13.2698 14.8708Z" fill="currentColor"/>
<path fill-rule="evenodd" clip-rule="evenodd" d="M7.26964 2.04607C7.43957 1.93851 7.6462 2.02571 7.73116 2.24083C8.03694 3.01504 8.09641 3.65681 7.83416 4.16588C7.71244 4.40217 7.54118 4.56583 7.37106 4.68758C7.20183 4.80868 7.01273 4.90269 6.83823 4.98485C6.79851 5.00355 6.75959 5.0217 6.72149 5.03946C6.3994 5.18967 6.13579 5.31261 5.94355 5.50949C5.84592 5.60948 5.77776 5.71971 5.73661 5.85292C5.69509 5.9873 5.6722 6.17382 5.70049 6.44251C5.72399 6.66566 5.78949 6.80605 5.87907 6.91704C5.9781 7.03973 6.11891 7.14176 6.31484 7.25287C6.37928 7.28942 6.45103 7.32698 6.5278 7.36716C6.87602 7.54942 7.32753 7.78575 7.66928 8.22762C8.05717 8.72917 8.01924 9.46056 7.79995 9.99119C7.57393 10.5381 7.11326 11 6.50616 11C6.31618 11 6.16217 10.805 6.16217 10.5645C6.16217 10.324 6.31618 10.129 6.50616 10.129C6.8164 10.129 7.06283 9.89603 7.19035 9.58745C7.3246 9.26258 7.28666 8.97785 7.17768 8.83694C6.94392 8.53469 6.65657 8.38211 6.31939 8.20307C6.22777 8.15442 6.13247 8.10381 6.03356 8.04772C5.81965 7.9264 5.58685 7.77365 5.39786 7.5395C5.19942 7.29364 5.0625 6.97512 5.01854 6.55758C4.97805 6.17305 5.00391 5.83337 5.09588 5.53568C5.18822 5.23681 5.33829 5.00909 5.51084 4.83237C5.79868 4.53757 6.1793 4.36209 6.48361 4.2218C6.5233 4.2035 6.56169 4.1858 6.5984 4.16852C6.77076 4.08737 6.91489 4.01354 7.03249 3.92938C7.1492 3.84586 7.21837 3.76683 7.25789 3.69012C7.31813 3.57319 7.38333 3.3077 7.1158 2.63032C7.03084 2.4152 7.09972 2.15362 7.26964 2.04607Z" fill="currentColor"/>
<path fill-rule="evenodd" clip-rule="evenodd" d="M11.2696 2.04607C11.4396 1.93851 11.6462 2.02571 11.7312 2.24083C12.0369 3.01504 12.0964 3.65681 11.8342 4.16588C11.7124 4.40217 11.5412 4.56583 11.3711 4.68758C11.2018 4.80868 11.0127 4.90269 10.8382 4.98485C10.7985 5.00355 10.7596 5.0217 10.7215 5.03946C10.3994 5.18967 10.1358 5.31261 9.94355 5.50949C9.84592 5.60948 9.77776 5.71971 9.73661 5.85292C9.69509 5.9873 9.6722 6.17382 9.70049 6.44251C9.72399 6.66566 9.78949 6.80605 9.87907 6.91704C9.9781 7.03973 10.1189 7.14176 10.3148 7.25287C10.3793 7.28942 10.451 7.32698 10.5278 7.36716C10.876 7.54942 11.3275 7.78575 11.6693 8.22762C12.0572 8.72917 12.0192 9.46056 11.8 9.99119C11.5739 10.5381 11.1133 11 10.5062 11C10.3162 11 10.1622 10.805 10.1622 10.5645C10.1622 10.324 10.3162 10.129 10.5062 10.129C10.8164 10.129 11.0628 9.89603 11.1903 9.58745C11.3246 9.26258 11.2867 8.97785 11.1777 8.83694C10.9439 8.53469 10.6566 8.38211 10.3194 8.20307C10.2278 8.15442 10.1325 8.10381 10.0336 8.04772C9.81965 7.9264 9.58685 7.77365 9.39786 7.5395C9.19942 7.29364 9.0625 6.97512 9.01854 6.55758C8.97805 6.17305 9.00391 5.83337 9.09588 5.53568C9.18822 5.23681 9.33829 5.00909 9.51084 4.83237C9.79868 4.53757 10.1793 4.36209 10.4836 4.2218C10.5233 4.2035 10.5617 4.1858 10.5984 4.16852C10.7708 4.08737 10.9149 4.01354 11.0325 3.92938C11.1492 3.84586 11.2184 3.76683 11.2579 3.69012C11.3181 3.57319 11.3833 3.3077 11.1158 2.63032C11.0308 2.4152 11.0997 2.15362 11.2696 2.04607Z" fill="currentColor"/>
<path fill-rule="evenodd" clip-rule="evenodd" d="M6 19V14H7V19H6Z" fill="currentColor"/>
<path fill-rule="evenodd" clip-rule="evenodd" d="M10 19V14H11V19H10Z" fill="currentColor"/>
<path fill-rule="evenodd" clip-rule="evenodd" d="M8 19V14H9V19H8Z" fill="currentColor"/>
</svg>
