<svg width="24" height="24" viewBox="0 0 24 24" fill="none" xmlns="http://www.w3.org/2000/svg">
<mask id="path-1-inside-1" fill="white">
<rect x="2" width="20" height="24" rx="1"/>
</mask>
<rect x="2" width="20" height="24" rx="1" stroke="currentColor" stroke-width="4" mask="url(#path-1-inside-1)"/>
<path d="M7.79102 8.56934C7.79102 8.0127 7.96973 7.4502 8.32715 6.88184C8.68457 6.30762 9.20605 5.83301 9.8916 5.45801C10.5771 5.08301 11.377 4.89551 12.291 4.89551C13.1406 4.89551 13.8906 5.05371 14.541 5.37012C15.1914 5.68066 15.6924 6.10547 16.0439 6.64453C16.4014 7.18359 16.5801 7.76953 16.5801 8.40234C16.5801 8.90039 16.4775 9.33691 16.2725 9.71191C16.0732 10.0869 15.833 10.4121 15.5518 10.6875C15.2764 10.957 14.7783 11.4141 14.0576 12.0586C13.8584 12.2402 13.6973 12.4014 13.5742 12.542C13.457 12.6768 13.3691 12.8027 13.3105 12.9199C13.252 13.0312 13.2051 13.1455 13.1699 13.2627C13.1406 13.374 13.0938 13.5732 13.0293 13.8604C12.918 14.4697 12.5693 14.7744 11.9834 14.7744C11.6787 14.7744 11.4209 14.6748 11.21 14.4756C11.0049 14.2764 10.9023 13.9805 10.9023 13.5879C10.9023 13.0957 10.9785 12.6709 11.1309 12.3135C11.2832 11.9502 11.4854 11.6338 11.7373 11.3643C11.9893 11.0889 12.3291 10.7637 12.7568 10.3887C13.1318 10.0605 13.4014 9.81445 13.5654 9.65039C13.7354 9.48047 13.876 9.29297 13.9873 9.08789C14.1045 8.88281 14.1631 8.66016 14.1631 8.41992C14.1631 7.95117 13.9873 7.55566 13.6357 7.2334C13.29 6.91113 12.8418 6.75 12.291 6.75C11.6465 6.75 11.1719 6.91406 10.8672 7.24219C10.5625 7.56445 10.3047 8.04199 10.0938 8.6748C9.89453 9.33691 9.5166 9.66797 8.95996 9.66797C8.63184 9.66797 8.35352 9.55371 8.125 9.3252C7.90234 9.09082 7.79102 8.83887 7.79102 8.56934ZM12.0801 19.2021C11.7227 19.2021 11.4092 19.0879 11.1396 18.8594C10.876 18.625 10.7441 18.2998 10.7441 17.8838C10.7441 17.5146 10.873 17.2041 11.1309 16.9521C11.3887 16.7002 11.7051 16.5742 12.0801 16.5742C12.4492 16.5742 12.7598 16.7002 13.0117 16.9521C13.2637 17.2041 13.3896 17.5146 13.3896 17.8838C13.3896 18.2939 13.2578 18.6162 12.9941 18.8506C12.7305 19.085 12.4258 19.2021 12.0801 19.2021Z" fill="currentColor"/>
</svg>
