<svg width="24" height="24" viewBox="0 0 24 24" fill="none" xmlns="http://www.w3.org/2000/svg">
<g clip-path="url(#clip0_1509_3908)">
<path d="M22.5117 0H1.41202C0.697172 0 0.117676 0.587119 0.117676 1.31137V22.6886C0.117676 23.4129 0.697172 24 1.41202 24H22.5117C23.2266 24 23.8061 23.4129 23.8061 22.6886V1.31137C23.8061 0.587119 23.2266 0 22.5117 0Z" fill="#16181D"/>
<path d="M22.5117 0H1.41202C0.697172 0 0.117676 0.587119 0.117676 1.31137V22.6886C0.117676 23.4129 0.697172 24 1.41202 24H22.5117C23.2266 24 23.8061 23.4129 23.8061 22.6886V1.31137C23.8061 0.587119 23.2266 0 22.5117 0Z" fill="#16181D"/>
<rect width="4.32759" height="4.38451" rx="0.398592" transform="matrix(1 0 0 -1 5.19287 18.814)" fill="#F6D87C"/>
<rect width="4.32759" height="4.38451" rx="0.398592" transform="matrix(1 0 0 -1 14.3198 9.56641)" fill="#F6D87C"/>
<rect width="4.32759" height="4.38451" rx="0.398592" transform="matrix(1 0 0 -1 9.75635 14.1904)" fill="#F6D87C"/>
<rect width="4.32759" height="4.38451" rx="0.398592" transform="matrix(1 0 0 -1 9.75635 18.814)" fill="#F6D87C"/>
<path d="M14.3198 13.7918C14.3198 14.012 14.4983 14.1904 14.7184 14.1904H18.2488C18.469 14.1904 18.6474 14.012 18.6474 13.7918V10.2045C18.6474 9.98438 18.469 9.80592 18.2488 9.80592H14.7184C14.4983 9.80592 14.3198 9.98438 14.3198 10.2045V13.7918Z" fill="#F6D87C"/>
<rect width="4.32759" height="4.38451" rx="0.398592" transform="matrix(1 0 0 -1 14.3198 18.814)" fill="#F6D87C"/>
</g>
<defs>
<clipPath id="clip0_1509_3908">
<rect width="24" height="24" rx="2" fill="white"/>
</clipPath>
</defs>
</svg>
